<svg xmlns="http://www.w3.org/2000/svg" width="44.263" height="41.793" viewBox="0 0 44.263 41.793"><defs><style>.a{fill:#1f2249;fill-rule:evenodd;}</style></defs><path class="a" d="M4,.871l-4-4H-2v2l4,4Zm6-4h2v4H10ZM22.361,10h4v2h-4ZM23,2V0H21L17,4l2,2ZM-6.244,10h4v2h-4ZM10,22.15h2v4H10ZM-2,21v2H0l4-4L2,17ZM37.582,34.227,17.7,14.348a1.5,1.5,0,0,0-2.121,0L13.7,16.227a1.5,1.5,0,0,0,0,2.121L33.582,38.227a1.5,1.5,0,0,0,2.121,0l1.879-1.879A1.5,1.5,0,0,0,37.582,34.227ZM21.019,23.664l-6-6,2-2,6,6Z" transform="translate(6.244 3.129)"/></svg>