<svg xmlns="http://www.w3.org/2000/svg" width="67.984" height="67.984" viewBox="0 0 67.984 67.984"><defs><style>.a{fill:#1f2249;fill-rule:evenodd;}</style></defs><path class="a" d="M17,12.747l-8.5-8.5H4.249V8.5l8.5,8.5ZM21.245,0h4.249V8.5H21.245Zm17,21.245h8.5v4.249h-8.5ZM42.49,8.5V4.249H38.241l-8.5,8.5L33.992,17ZM0,21.245H8.5v4.249H0Zm21.245,17h4.249v8.5H21.245Zm-17,0V42.49H8.5l8.5-8.5-4.249-4.249ZM67.055,58.557,24.823,16.325a3.2,3.2,0,0,0-4.506,0l-3.992,3.992a3.2,3.2,0,0,0,0,4.506L58.557,67.055a3.2,3.2,0,0,0,4.506,0l3.992-3.992A3.2,3.2,0,0,0,67.055,58.557ZM31.867,36.116,19.12,23.369l4.249-4.249L36.116,31.867Z"/></svg>