<svg xmlns="http://www.w3.org/2000/svg" x="0px" y="0px"
width="35" height="30"
viewBox="0 0 226 226"
style=" fill:#000000;"><g transform="translate(0.452,0.452) scale(0.996,0.996)"><g fill="none" fill-rule="nonzero" stroke="none" stroke-width="1" stroke-linecap="butt" stroke-linejoin="none" stroke-miterlimit="10" stroke-dasharray="" stroke-dashoffset="0" font-family="none" font-weight="none" font-size="none" text-anchor="none" style="mix-blend-mode: normal"><g fill="#000000" stroke="#000000" stroke-linejoin="round"><path d="M94.33734,61.65562c0.88281,1.78328 0.49438,3.93734 -0.97109,5.29688l-41.5275,41.5275h133.48125c1.62437,-0.01766 3.14281,0.82984 3.97266,2.24234c0.81219,1.4125 0.81219,3.14281 0,4.55531c-0.82984,1.4125 -2.34828,2.26 -3.97266,2.24234h-133.48125l41.5275,41.5275c1.34188,1.09469 1.95984,2.84266 1.57141,4.53766c-0.38844,1.67734 -1.71266,3.00156 -3.39,3.39c-1.695,0.38844 -3.44297,-0.22953 -4.53766,-1.57141l-49.29625,-49.155l-3.1075,-3.24875l3.1075,-3.24875l49.29625,-49.155c0.67094,-0.74156 1.55375,-1.23594 2.5425,-1.4125c1.95984,-0.31781 3.91969,0.67094 4.78484,2.47187z"></path></g><path d="M0,226v-226h226v226z" fill="none" stroke="none" stroke-linejoin="miter"></path><g fill="#4d555e" stroke="none" stroke-linejoin="miter"><path d="M89.5525,59.18375c-0.98875,0.17656 -1.87156,0.67094 -2.5425,1.4125l-49.29625,49.155l-3.1075,3.24875l3.1075,3.24875l49.29625,49.155c1.09469,1.34188 2.84266,1.95984 4.53766,1.57141c1.67734,-0.38844 3.00156,-1.71266 3.39,-3.39c0.38844,-1.695 -0.22953,-3.44297 -1.57141,-4.53766l-41.5275,-41.5275h133.48125c1.62437,0.01766 3.14281,-0.82984 3.97266,-2.24234c0.81219,-1.4125 0.81219,-3.14281 0,-4.55531c-0.82984,-1.4125 -2.34828,-2.26 -3.97266,-2.24234h-133.48125l41.5275,-41.5275c1.46547,-1.35953 1.85391,-3.51359 0.97109,-5.29688c-0.86516,-1.80094 -2.825,-2.78969 -4.78484,-2.47187z"></path></g><path d="" fill="none" stroke="none" stroke-linejoin="miter"></path></g></g></svg>
