<?xml version="1.0" standalone="no"?>
<!DOCTYPE svg PUBLIC "-//W3C//DTD SVG 20010904//EN"
 "http://www.w3.org/TR/2001/REC-SVG-20010904/DTD/svg10.dtd">
<svg version="1.0" xmlns="http://www.w3.org/2000/svg"
 width="432.000000pt" height="432.000000pt" viewBox="0 0 432.000000 432.000000"
 preserveAspectRatio="xMidYMid meet">
<metadata>
Created by potrace 1.11, written by Peter Selinger 2001-2013
</metadata>
<g transform="translate(0.000000,432.000000) scale(0.100000,-0.100000)"
fill="#000000" stroke="none">
<path d="M395 4307 c-6 -7 -9 -43 -9 -82 3 -151 15 -483 19 -540 3 -33 12
-150 20 -260 96 -1225 352 -2215 715 -2769 244 -373 511 -572 846 -631 85 -15
215 -21 261 -11 11 2 43 8 70 12 74 10 217 60 302 104 541 283 936 1094 1155
2370 64 370 116 843 141 1265 3 55 8 132 10 170 4 63 8 342 6 373 -1 18 -3521
17 -3536 -1z m3515 -51 c0 -2 -8 -10 -17 -17 -16 -13 -17 -12 -4 4 13 16 21
21 21 13z"/>
</g>
</svg>
