<?xml version="1.0" standalone="no"?>
<!DOCTYPE svg PUBLIC "-//W3C//DTD SVG 1.1//EN" "http://www.w3.org/Graphics/SVG/1.1/DTD/svg11.dtd" >
<svg xmlns="http://www.w3.org/2000/svg" xmlns:xlink="http://www.w3.org/1999/xlink" version="1.1">
<metadata>
Created by FontForge 20161013 at Wed Mar 23 19:16:54 2011
 By ,,,
(c) 1987, 2001 Adobe Systems Incorporated. All rights reserved.
</metadata>
<defs>
<font id="OratorStd-Slanted" horiz-adv-x="600" >
  <font-face 
    font-family="Orator Std"
    font-weight="400"
    font-style="oblique"
    font-stretch="normal"
    units-per-em="1000"
    panose-1="2 13 5 9 2 2 3 10 2 4"
    ascent="667"
    descent="-333"
    x-height="521"
    cap-height="667"
    bbox="0 -288 734 1046"
    underline-thickness="63"
    underline-position="-214"
    slope="-12"
    unicode-range="U+0020-FB02"
  />
<missing-glyph 
d="M118 0v700h500v-700h-500zM368 395l170 255h-340zM398 350l170 -255v510zM198 50h340l-170 255zM168 605v-510l170 255z" />
    <glyph glyph-name=".notdef" 
d="M118 0v700h500v-700h-500zM368 395l170 255h-340zM398 350l170 -255v510zM198 50h340l-170 255zM168 605v-510l170 255z" />
    <glyph glyph-name=".null" horiz-adv-x="0" 
 />
    <glyph glyph-name="nonmarkingreturn" 
 />
    <glyph glyph-name="space" unicode=" " 
 />
    <glyph glyph-name="exclam" unicode="!" 
d="M375 207h-64l80 460h102zM254 0l31 148h92l-31 -148h-92z" />
    <glyph glyph-name="quotedbl" unicode="&#x22;" 
d="M320 676h92l-24 -111l-56 -135h-38l2 135zM477 676h92l-24 -111l-56 -135h-38l2 135z" />
    <glyph glyph-name="numbersign" unicode="#" 
d="M337 805h44l-162 -901h-45l61 335h-134l8 44h134l28 157h-134l8 44h134zM399 -96h-45l165 901h44l-58 -321h135l-9 -44h-134l-28 -157h134l-8 -44h-134z" />
    <glyph glyph-name="dollar" unicode="$" 
d="M395 298l-34 -161q35 2 63.5 24t35.5 56q6 32 -13.5 54t-51.5 27zM344 385l31 145q-26 -6 -46.5 -27.5t-25.5 -46.5q-5 -24 6.5 -43.5t34.5 -27.5zM291 137l39 181q-53 14 -80 50.5t-16 90.5q10 51 55.5 88t98.5 46l18 83h70l-18 -83q76 -7 122 -87l-59 -43
q-25 37 -41 50.5t-35 16.5l-35 -164q63 -10 98 -48.5t22 -101.5q-13 -60 -67 -100.5t-115 -41.5l-18 -83h-70l18 83q-44 2 -76 29.5t-49 69.5l63 40q8 -18 12.5 -26.5t14 -21.5t21.5 -19.5t27 -8.5z" />
    <glyph glyph-name="percent" unicode="%" 
d="M458 116q14 75 -33 75q-27 0 -44 -23t-22 -52q-8 -24 -0.5 -49.5t34.5 -25.5q26 0 42 22.5t23 52.5zM625 675l32 -20l-517 -664l-53 32l453 580q-20 -8 -47 -8t-51 9q4 -25 -2 -53q-11 -53 -48 -89.5t-88 -36.5q-52 0 -73 36.5t-10 89.5q11 52 48 88.5t89 36.5
q20 0 64 -14q47 -17 78 -17q74 0 125 30zM518 116q-11 -52 -48 -88.5t-88 -36.5q-52 0 -73 36t-10 89t47.5 89t88.5 36q51 0 72.5 -36.5t10.5 -88.5zM380 551q8 23 0.5 49t-33.5 26q-49 0 -66 -75q-8 -24 -0.5 -50t34.5 -26q48 0 65 76z" />
    <glyph glyph-name="ampersand" unicode="&#x26;" 
d="M376 87l-78 149q-36 -21 -55 -41t-26 -51q-8 -40 12 -65t60 -25q46 0 87 33zM332 319l24 15q23 14 36 24t26.5 27.5t17.5 37.5q7 34 -7.5 55t-48.5 21q-30 0 -51 -19.5t-28 -49.5q-9 -43 31 -111zM271 284l-10 20q-18 37 -23 56.5t0 65.5q14 61 56.5 98.5t101.5 37.5
q58 0 87 -39.5t17 -96.5q-10 -47 -41.5 -81t-101.5 -75l70 -133q32 37 50 98l63 -13q-26 -82 -83 -142l29 -57l-59 -37l-26 49q-65 -44 -129 -44q-66 0 -103 43t-23 109q10 46 41.5 77.5t83.5 63.5z" />
    <glyph glyph-name="quotesingle" unicode="'" 
d="M398 676h92l-24 -111l-56 -135h-38l2 135z" />
    <glyph glyph-name="parenleft" unicode="(" 
d="M506 676l31 -39q-149 -119 -194 -332q-46 -212 53 -332l-48 -40q-62 64 -80.5 170t5.5 202q22 105 83 206.5t150 164.5z" />
    <glyph glyph-name="parenright" unicode=")" 
d="M333 637l49 39q62 -63 80.5 -169t-5.5 -202q-22 -105 -83 -206.5t-150 -165.5l-32 40q148 117 195 332q45 214 -54 332z" />
    <glyph glyph-name="asterisk" unicode="*" 
d="M263 564l98 -10l-48 74l79 48l32 -94l72 94l57 -48l-78 -74l102 10l-19 -88l-98 9l48 -73l-79 -49l-32 95l-72 -95l-57 49l78 73l-102 -9zM416 548q-11 0 -21 -8.5t-12 -19.5q-3 -12 3.5 -20t18.5 -8q11 0 21 8t13 20q2 11 -5 19.5t-18 8.5z" />
    <glyph glyph-name="plus" unicode="+" 
d="M634 382v-44h-244v-244h-44v244h-244v44h244v244h44v-244h244z" />
    <glyph glyph-name="comma" unicode="," 
d="M296 148h92l-9 -45q-9 -48 -50.5 -92.5t-95.5 -69.5l-11 55q48 27 61 91z" />
    <glyph glyph-name="hyphen" unicode="-" 
d="M238 229l13 63h222l-13 -63h-222z" />
    <glyph glyph-name="period" unicode="." 
d="M254 0l31 148h92l-31 -148h-92z" />
    <glyph glyph-name="slash" unicode="/" 
d="M175 -27h-46l296 774h46z" />
    <glyph glyph-name="zero" unicode="0" 
d="M444 676q38 0 66 -12.5t43.5 -29.5t23 -47.5t9.5 -53t-2.5 -60t-7.5 -54.5t-11 -50.5t-8 -35.5q-1 -4 -7.5 -35t-9 -42.5t-11 -43t-15 -47t-19 -43t-25 -42.5t-31 -34.5t-38.5 -29.5t-46.5 -17.5t-56.5 -7.5q-46 0 -77 13t-44 45t-20 54t-0.5 72.5t9 66t14.5 67.5
q3 16 5 24q30 145 54 200q66 141 205 143zM430 613q-55 0 -91.5 -43.5t-48 -83t-29.5 -126.5l-6 -27q-16 -77 -21.5 -129.5t-3 -82t15.5 -45t27 -19t38 -3.5q32 0 53 9t43.5 37.5t41 85t38.5 147.5q20 94 25 152t-6.5 85t-28 35t-47.5 8z" />
    <glyph glyph-name="one" unicode="1" 
d="M292 60l112 526l-132 -47l-8 61l227 80l-132 -620h143l-13 -60h-378l13 60h168z" />
    <glyph glyph-name="two" unicode="2" 
d="M114 0l13 60l315 319q26 26 37.5 39.5t25 37t19.5 48.5q10 48 -13 78.5t-71 30.5q-56 0 -96.5 -37.5t-60.5 -96.5l-64 9q31 87 90.5 137.5t144.5 50.5q80 0 118.5 -45.5t22.5 -124.5q-16 -72 -105 -163l-278 -283h287l-13 -60h-372z" />
    <glyph glyph-name="three" unicode="3" 
d="M266 350l12 54l240 203h-278l13 60h370l-13 -60l-225 -189q82 2 128 -44t29 -126q-28 -129 -164 -203q-100 -54 -260 -54l13 63q133 0 199 32q53 26 91.5 68t49.5 92q12 59 -25 85.5t-100 26.5q-8 0 -80 -8z" />
    <glyph glyph-name="four" unicode="4" 
d="M406 167h-261l209 513l63 -18l-179 -435h181l72 339h67l-72 -339h53l-13 -60h-53l-35 -167h-67z" />
    <glyph glyph-name="five" unicode="5" 
d="M206 325l73 342h342l-13 -60h-275l-44 -205q63 21 104 21q76 0 118 -48t25 -129q-27 -129 -161 -205q-89 -50 -261 -50l13 63q142 0 202 29q51 25 88.5 68.5t48.5 94.5q11 53 -14.5 83.5t-78.5 30.5q-45 0 -119 -35h-48z" />
    <glyph glyph-name="six" unicode="6" 
d="M591 618l-49 -55q-48 50 -97 50q-35 0 -63.5 -18t-46.5 -41t-34 -61.5t-23 -62t-16 -60.5q75 54 144 54q88 0 117.5 -61.5t9.5 -152.5q-20 -94 -83.5 -156.5t-155.5 -62.5q-49 0 -80 23.5t-42 56.5t-11 83t5.5 87t15.5 85q75 350 274 350q85 0 135 -58zM246 296
q-16 -75 -17.5 -125.5t11.5 -74.5t29.5 -33t42.5 -9q58 0 97 43.5t53 109.5q32 154 -79 154q-54 0 -137 -65z" />
    <glyph glyph-name="seven" unicode="7" 
d="M156 14l392 593h-275l13 60h372l-448 -680z" />
    <glyph glyph-name="eight" unicode="8" 
d="M366 311q-5 -3 -28 -15t-29.5 -16.5t-24.5 -15.5t-25 -19t-18.5 -21t-17 -27t-9.5 -30q-10 -51 18 -82t79 -31q52 0 93.5 31t51.5 82q3 13 3.5 24.5t-2 21.5t-5.5 18t-10 16.5t-12 14t-14.5 13.5t-15.5 12t-17 12t-17 12zM381 380q4 2 20.5 11.5t21.5 13t18.5 12t19 14
l15 15t14 17.5t9.5 19.5t8 23.5q10 46 -10.5 76.5t-66.5 30.5t-78.5 -30t-42.5 -77q-3 -12 -2.5 -23.5t1.5 -19.5t7 -18t8.5 -14.5t13 -14t13 -12t16 -12.5t15.5 -12zM577 506q-11 -53 -48.5 -90.5t-97.5 -70.5q58 -33 84 -72t12 -103q-17 -80 -82.5 -129.5t-146.5 -49.5
t-125.5 49.5t-27.5 129.5q14 64 56.5 103t114.5 72q-46 33 -67 70.5t-10 90.5q16 73 74 121.5t131 48.5t111 -48.5t22 -121.5z" />
    <glyph glyph-name="nine" unicode="9" 
d="M150 49l50 55q45 -50 97 -50q35 0 63.5 18t46.5 41t34 61.5t23 62t16 60.5q-73 -54 -143 -54q-88 0 -117 61t-10 153q20 94 83 156.5t155 62.5q36 0 62 -12.5t40.5 -31.5t22 -48.5t9 -57t-2.5 -64t-8.5 -62.5t-11.5 -59q-72 -350 -273 -350q-84 0 -136 58zM496 370
q16 74 17 124t-11 75t-29 34.5t-43 9.5q-58 0 -96 -43.5t-53 -110.5q-32 -153 79 -153q53 0 136 64z" />
    <glyph glyph-name="colon" unicode=":" 
d="M254 0l31 148h92l-31 -148h-92zM314 284l32 148h92l-32 -148h-92z" />
    <glyph glyph-name="semicolon" unicode=";" 
d="M296 148h92l-9 -45q-9 -48 -50.5 -92.5t-95.5 -69.5l-11 55q48 27 61 91zM325 284l32 148h92l-32 -148h-92z" />
    <glyph glyph-name="less" unicode="&#x3c;" 
d="M166 360l379 360l25 -32l-340 -328l340 -328l-25 -32z" />
    <glyph glyph-name="equal" unicode="=" 
d="M634 449v-44h-532v44h532zM634 315v-44h-532v44h532z" />
    <glyph glyph-name="greater" unicode="&#x3e;" 
d="M191 720l379 -360l-379 -360l-25 32l340 328l-340 328z" />
    <glyph glyph-name="question" unicode="?" 
d="M378 220h-69l3 17q10 54 25.5 76.5t66.5 59.5q2 2 14.5 11t15.5 11.5t14 11t14.5 12t12.5 11.5t12.5 13t10 13.5t9.5 15.5t6.5 15.5t5.5 17.5q11 48 -9.5 78t-68.5 30q-102 0 -156 -138l-62 17q74 184 230 184q78 0 115.5 -46t21.5 -123q-12 -53 -45 -91t-91 -80
q-40 -30 -52.5 -45.5t-20.5 -56.5zM250 0l31 148h92l-31 -148h-92z" />
    <glyph glyph-name="at" unicode="@" 
d="M530 131l10 -63q-133 -77 -262 -77q-49 0 -90 16.5t-73 51.5t-41.5 89.5t4.5 129.5q15 70 49 139t83 128t117 95t142 36q42 0 81.5 -15.5t72.5 -49t44.5 -86.5t-1.5 -127q-18 -83 -72 -155.5t-129 -72.5q-29 0 -42.5 8.5t-31.5 32.5q-31 -23 -51.5 -32t-49.5 -9
q-40 0 -60 25t-12 65q8 39 32.5 83.5t55.5 75.5q32 32 80.5 47t143.5 12l-57 -151q-16 -43 -19 -54q-9 -40 26 -40q29 0 55.5 31.5t39.5 64.5t20 64q21 99 -19.5 159.5t-126.5 60.5q-93 0 -180.5 -91t-120.5 -246q-22 -103 18 -162.5t130 -59.5q97 0 234 77zM429 389l10 26
q-2 0 -15 -2.5t-18 -4l-15 -4.5t-17 -7.5t-14 -10.5q-23 -22 -43.5 -57t-27.5 -64q-6 -32 20 -32q60 0 120 156z" />
    <glyph glyph-name="A" unicode="A" 
d="M435 206h-182l-99 -219l-62 18l310 662h80l28 -662l-70 -18zM432 266l-8 312h-2l-140 -312h150z" />
    <glyph glyph-name="B" unicode="B" 
d="M256 60h91q47 0 81.5 35.5t49.5 105.5q28 132 -91 132h-73zM327 393h60q100 0 123 106q12 60 -12 84t-87 24h-39zM337 0h-215l13 60h54l116 547h-54l13 60h204q59 0 93.5 -46t18.5 -122q-20 -90 -98 -129q93 -45 66 -170q-21 -99 -79 -149.5t-132 -50.5z" />
    <glyph glyph-name="C" unicode="C" 
d="M461 138l47 -38q-90 -109 -196 -109q-62 0 -97 33.5t-42.5 90t-4 108t16.5 110.5q10 46 22.5 87.5t35.5 90t51.5 83.5t71 58.5t92.5 23.5q103 0 140 -108l-64 -34q-24 79 -90 79q-129 0 -189 -280q-58 -279 70 -279q68 0 136 84z" />
    <glyph glyph-name="D" unicode="D" 
d="M302 607h-54l13 60h176q43 0 72.5 -8.5t52 -30t31.5 -59t6 -96.5t-20 -140q-8 -38 -14.5 -65t-19 -64.5t-26.5 -63.5t-35.5 -54.5t-47 -45.5t-61.5 -28.5t-78 -11.5h-178l13 60h54zM369 607l-116 -547h55q28 0 47 4t42.5 19.5t41 44.5t36 80t34.5 125q16 73 19 125.5
t-2.5 81t-20.5 44t-29.5 19.5t-35.5 4h-71z" />
    <glyph glyph-name="E" unicode="E" 
d="M157 0l142 667h325l-13 -60h-258l-47 -220h213l-12 -60h-213l-57 -267h258l-13 -60h-325z" />
    <glyph glyph-name="F" unicode="F" 
d="M176 0l142 667h328l-13 -60h-261l-47 -220h219l-12 -60h-219l-70 -327h-67z" />
    <glyph glyph-name="G" unicode="G" 
d="M550 346l-64 -297q-83 -58 -167 -58q-49 0 -81.5 23t-46.5 58t-17 83t1.5 90t14.5 87q9 43 22 84.5t36.5 90.5t51.5 84.5t69.5 60t88.5 24.5q102 0 144 -107l-67 -36q-28 80 -95 80q-39 0 -72 -31.5t-54.5 -82.5t-33.5 -89.5t-21 -79.5q-59 -276 74 -276q50 0 94 31
l43 201h-125l13 60h192z" />
    <glyph glyph-name="H" unicode="H" 
d="M130 0l142 667h67l-60 -280h206l60 280h67l-142 -667h-67l70 327h-206l-70 -327h-67z" />
    <glyph glyph-name="I" unicode="I" 
d="M279 60l116 547h-90l13 60h248l-13 -60h-91l-116 -547h91l-13 -60h-248l13 60h90z" />
    <glyph glyph-name="J" unicode="J" 
d="M160 242h67l-14 -67q-4 -28 -3 -55t20.5 -46.5t55.5 -19.5q44 0 78 36t46 94l103 483h67l-104 -490q-19 -90 -78.5 -138t-129.5 -48q-67 0 -103.5 48t-17.5 141z" />
    <glyph glyph-name="K" unicode="K" 
d="M371 667l-59 -275h18l248 288l46 -34l-243 -282l146 -343l-63 -34l-141 345h-23l-71 -332h-67l142 667h67z" />
    <glyph glyph-name="L" unicode="L" 
d="M169 0l142 667h67l-129 -607h274l-13 -60h-341z" />
    <glyph glyph-name="M" unicode="M" 
d="M382 384l156 283h84l-122 -667h-71l105 556h-2l-185 -335l-43 335h-2l-131 -556h-70l162 667h83z" />
    <glyph glyph-name="N" unicode="N" 
d="M126 0l142 667h84l79 -561l2 2l29 149l87 410h67l-142 -667h-84l-79 562l-2 -2l-29 -151l-87 -409h-67z" />
    <glyph glyph-name="O" unicode="O" 
d="M444 676q39 0 66 -15t42 -36.5t21 -56.5t6.5 -61.5t-5 -67t-8.5 -58t-10 -47.5q-6 -27 -9 -40t-12.5 -48.5t-19 -57.5t-24.5 -56t-33.5 -55.5t-42 -43t-53.5 -32t-64 -10.5q-44 0 -73.5 18t-42 48.5t-17.5 65.5t-1 75t9 70.5t11 57.5q1 5 2 8q72 342 258 342zM430 613
q-27 0 -50.5 -12t-41 -37.5t-29.5 -47t-23 -60.5t-15.5 -57t-12.5 -56q-1 -3 -1.5 -5t-0.5 -4q-32 -135 -22 -207.5t77 -72.5q28 0 51 11.5t40.5 36.5t29.5 47t23.5 62t16.5 60.5t14 62.5q31 143 26 196q-8 83 -82 83z" />
    <glyph glyph-name="P" unicode="P" 
d="M292 297l-63 -297h-67l142 667h145q89 0 126.5 -46t19.5 -131q-19 -90 -75.5 -141.5t-127.5 -51.5h-100zM358 607l-53 -250l94 1q47 1 80 35t46 97q26 117 -90 117h-77z" />
    <glyph glyph-name="Q" unicode="Q" 
d="M452 81l37 -58l-60 -42l-29 47q-50 -37 -102 -37q-78 0 -113.5 83.5t1.5 258.5q35 168 105.5 255.5t152.5 87.5q78 0 114 -83.5t-2 -259.5q-34 -162 -104 -252zM369 76l-63 101l60 43l52 -83q42 77 67 194q59 282 -56 282q-114 0 -174 -285q-8 -38 -12.5 -75t-5.5 -87
t16.5 -81t52.5 -31q37 0 63 22z" />
    <glyph glyph-name="R" unicode="R" 
d="M358 607l-53 -250h98q94 0 122 133q26 117 -85 117h-82zM162 0l142 667h180q56 0 92.5 -47t18.5 -130q-14 -66 -53 -117t-102 -71l77 -286l-66 -29l-84 310h-75l-63 -297h-67z" />
    <glyph glyph-name="S" unicode="S" 
d="M440 173q3 16 4 30t-3 26.5t-6 21.5t-12 19.5t-14.5 16t-19 16t-19.5 13.5t-23 15q-21 14 -32 22t-25.5 21t-21 25t-12 28t-5 35.5t5.5 43.5q15 70 68.5 120t122.5 50q125 0 125 -151l-68 -10q0 98 -71 98q-44 0 -72 -30.5t-38 -76.5q-9 -42 5.5 -65t81.5 -69
q21 -14 33.5 -24t28 -25t22 -27.5t14 -31.5t5 -38t-5.5 -47q-17 -82 -72 -135t-136 -53q-153 0 -132 184l69 9q-3 -38 -1 -66.5t21.5 -46t57.5 -17.5q45 0 79 30.5t46 88.5z" />
    <glyph glyph-name="T" unicode="T" 
d="M268 0l129 607h-144l13 60h352l-13 -60h-141l-129 -607h-67z" />
    <glyph glyph-name="U" unicode="U" 
d="M279 667h67l-103 -485q-6 -34 -7 -62.5t17.5 -47t57.5 -18.5q57 0 84.5 35t40.5 93l103 485h67l-108 -505q-16 -78 -71 -124.5t-129 -46.5q-75 0 -109 46.5t-18 121.5z" />
    <glyph glyph-name="V" unicode="V" 
d="M339 181l244 499l65 -14l-343 -679h-16l-53 679l71 14l30 -499h2z" />
    <glyph glyph-name="W" unicode="W" 
d="M586 680l64 -13l-212 -680h-29l-25 403h-2l-197 -403h-29l78 680l70 13l-75 -501h2l172 351h20l22 -351h2z" />
    <glyph glyph-name="X" unicode="X" 
d="M363 292l-213 -305l-54 28l248 348l-82 286l69 31l61 -249l167 249l55 -31l-204 -286l100 -348l-66 -28z" />
    <glyph glyph-name="Y" unicode="Y" 
d="M372 341l217 339l56 -25l-256 -392l-56 -263h-67l56 263l-89 392l68 25z" />
    <glyph glyph-name="Z" unicode="Z" 
d="M104 0l412 607h-254l13 60h355l-411 -607h290l-13 -60h-392z" />
    <glyph glyph-name="bracketleft" unicode="[" 
d="M322 676h270l-13 -60h-203l-126 -594h203l-13 -60h-270z" />
    <glyph glyph-name="backslash" unicode="\" 
d="M425 -27l-296 774h46l296 -774h-46z" />
    <glyph glyph-name="bracketright" unicode="]" 
d="M566 676l-152 -714h-270l13 60h203l126 594h-203l13 60h270z" />
    <glyph glyph-name="asciicircum" unicode="^" 
d="M228 357h-50l164 323h52l161 -323h-50l-137 275z" />
    <glyph glyph-name="underscore" unicode="_" 
d="M600 -108h-600v36h600v-36z" />
    <glyph glyph-name="grave" unicode="`" 
d="M384 695l155 -101l-35 -44l-170 82z" />
    <glyph glyph-name="a" unicode="a" 
d="M423 142h-185l-82 -155l-61 24l273 510h86l55 -510l-71 -24zM417 202l-23 241l-125 -241h148z" />
    <glyph glyph-name="b" unicode="b" 
d="M256 60h78q114 0 132 84q9 41 -11.5 67.5t-66.5 26.5h-94zM306 298h75q42 0 69.5 23.5t35.5 60.5q17 79 -74 79h-71zM334 0h-212l13 60h54l85 401h-54l13 60h164q189 0 159 -139q-15 -74 -82 -107q40 -13 56 -47t7 -79q-15 -71 -68 -110t-135 -39z" />
    <glyph glyph-name="c" unicode="c" 
d="M461 138l47 -38q-92 -109 -196 -109q-55 0 -90.5 24t-48 62t-15 86.5t10.5 96.5q30 141 103 205.5t149 64.5q58 0 90.5 -28t50.5 -83l-68 -31q-24 79 -86 79q-37 0 -67.5 -20t-50 -53.5t-32 -66t-19.5 -66.5q-7 -35 -9 -67t3 -66t27 -54t60 -20q42 0 73.5 21t67.5 63z
" />
    <glyph glyph-name="d" unicode="d" 
d="M217 461l13 60h174q114 0 152.5 -56.5t8.5 -197.5q-11 -54 -23.5 -91t-33.5 -72.5t-48.5 -57t-69.5 -34t-97 -12.5h-174l13 60h54l85 401h-54zM338 461l-85 -401h71q67 0 106 45t63 155q19 79 11.5 123.5t-30.5 61t-67 16.5h-69z" />
    <glyph glyph-name="e" unicode="e" 
d="M157 0l111 521h325l-13 -60h-258l-33 -156h213l-13 -60h-213l-39 -185h258l-13 -60h-325z" />
    <glyph glyph-name="f" unicode="f" 
d="M176 0l111 521h328l-13 -60h-261l-33 -156h219l-13 -60h-219l-52 -245h-67z" />
    <glyph glyph-name="g" unicode="g" 
d="M535 278l-49 -230q-84 -57 -172 -57q-55 0 -90 23.5t-48 64t-13 85.5t11 97q24 110 87.5 189.5t165.5 79.5q51 0 89 -27t56 -73l-64 -37q-30 74 -99 74q-36 0 -66 -20.5t-49 -54.5t-30.5 -66t-19.5 -67q-7 -44 -10.5 -89.5t18.5 -80.5t71 -35q53 0 103 27l29 137h-125
l13 60h192z" />
    <glyph glyph-name="h" unicode="h" 
d="M130 0l111 521h67l-46 -216h206l46 216h67l-111 -521h-67l52 245h-206l-52 -245h-67z" />
    <glyph glyph-name="i" unicode="i" 
d="M193 0l13 60h73l85 401h-73l13 60h214l-13 -60h-74l-85 -401h74l-13 -60h-214z" />
    <glyph glyph-name="j" unicode="j" 
d="M150 194h67q-18 -76 -3 -108t67 -32q50 0 82 28t42 76l77 363h67l-80 -376q-13 -62 -66.5 -108t-134.5 -46q-84 0 -112 49t-6 154z" />
    <glyph glyph-name="k" unicode="k" 
d="M340 521l-47 -222h25l229 235l42 -40l-220 -219l151 -245l-60 -43l-156 257h-23l-52 -244h-67l111 521h67z" />
    <glyph glyph-name="l" unicode="l" 
d="M170 0l111 521h67l-98 -461h273l-13 -60h-340z" />
    <glyph glyph-name="m" unicode="m" 
d="M331 147l-58 275h-2l-103 -422h-71l132 521h88l46 -226l142 226h88l-90 -521h-71l77 422h-2z" />
    <glyph glyph-name="n" unicode="n" 
d="M126 0l111 521h83l108 -439l3 2l23 135l64 302h67l-111 -521h-83l-109 439l-2 -2l-23 -136l-64 -301h-67z" />
    <glyph glyph-name="o" unicode="o" 
d="M413 530q34 0 61.5 -12.5t50 -43.5t26 -83t-10.5 -131q-5 -23 -11 -45t-25.5 -66.5t-44 -76t-67.5 -56.5t-94 -25q-34 0 -61.5 12.5t-50.5 43.5t-26.5 83t10.5 130q30 142 98.5 206t144.5 64zM399 467q-113 0 -159 -207q-43 -206 71 -206q36 0 65 20.5t47 55t29 65.5
t18 65q8 34 10.5 65.5t-1.5 66t-24 55t-56 20.5z" />
    <glyph glyph-name="p" unicode="p" 
d="M277 224l-48 -224h-67l111 521h162q85 0 118 -40t20 -102q-17 -77 -70 -116t-114 -39h-112zM289 284h92q100 0 120 90q10 49 -12.5 68t-69.5 19h-92z" />
    <glyph glyph-name="q" unicode="q" 
d="M456 70l47 -54l-51 -45l-47 53q-51 -33 -107 -33q-34 0 -61.5 12.5t-50.5 43.5t-26.5 83t10.5 130q29 139 96.5 204.5t146.5 65.5q34 0 61.5 -12.5t50 -43.5t26 -83t-10.5 -131q-27 -125 -84 -190zM366 68l-70 79l51 46l68 -77q38 60 55 144q8 34 10.5 65.5t-1.5 66
t-24 55t-56 20.5q-113 0 -159 -207q-43 -206 71 -206q29 0 55 14z" />
    <glyph glyph-name="r" unicode="r" 
d="M276 283h88q50 0 84.5 26t44.5 70q8 37 -10 59.5t-61 22.5h-108zM149 0l111 521h177q70 0 105.5 -35t20.5 -107q-11 -49 -49 -90.5t-88 -55.5l83 -211l-66 -35l-83 236h-97l-47 -223h-67z" />
    <glyph glyph-name="s" unicode="s" 
d="M162 146l64 19q-2 -111 90 -111q43 0 75.5 23t41.5 65q2 10 2.5 19.5t-2.5 17t-5 13.5t-9 12t-10.5 9.5t-13.5 8.5l-14 7t-16 7.5t-15 6.5q-5 2 -20.5 9t-21 9.5t-18 9.5t-17.5 10.5t-14.5 11.5t-13 14.5t-8.5 16t-6 19.5t-0.5 23t3.5 27q13 63 65 100t117 37
q125 0 131 -131l-68 -19q-2 87 -78 87q-35 0 -63.5 -18t-35.5 -51q-5 -23 1.5 -39t17.5 -24t33 -18l101 -49q64 -41 46 -122q-15 -73 -69.5 -114t-128.5 -41q-71 0 -107.5 42t-33.5 113z" />
    <glyph glyph-name="t" unicode="t" 
d="M268 0l98 461h-144l13 60h352l-13 -60h-141l-98 -461h-67z" />
    <glyph glyph-name="u" unicode="u" 
d="M248 521h67l-76 -355q-12 -59 2.5 -85.5t64.5 -26.5q60 0 86.5 26t39.5 86l76 355h67l-83 -387q-13 -58 -63.5 -100.5t-130.5 -42.5t-112.5 42.5t-19.5 104.5z" />
    <glyph glyph-name="v" unicode="v" 
d="M332 152l224 382l58 -24l-311 -523h-12l-89 523l70 24z" />
    <glyph glyph-name="w" unicode="w" 
d="M205 526l71 8l-38 -366h2l141 256h18l33 -256h2l119 366l66 -8l-190 -539h-23l-41 321l-177 -321h-23z" />
    <glyph glyph-name="x" unicode="x" 
d="M346 217l-188 -230l-53 34l216 255l-100 223l69 35l81 -198l167 198l53 -35l-194 -223l106 -255l-67 -34z" />
    <glyph glyph-name="y" unicode="y" 
d="M357 266l196 268l55 -33l-232 -300l-43 -201h-67l43 201l-105 300l71 33z" />
    <glyph glyph-name="z" unicode="z" 
d="M104 0l371 461h-244l13 60h355l-369 -461h279l-13 -60h-392z" />
    <glyph glyph-name="braceleft" unicode="{" 
d="M272 73l28 132q5 23 5 37.5t-2.5 23t-12 14.5t-17.5 8.5t-26 7t-31 8.5q15 5 39.5 11.5t33.5 9.5t22 12.5t19 25t12 41.5l28 133q16 75 56.5 107t122.5 32h56l-6 -25h-24q-70 0 -96.5 -21.5t-38.5 -78.5l-30 -140q-7 -29 -11.5 -43.5t-18.5 -33t-38 -30.5
q27 -16 30 -44.5t-7 -60.5l-29 -140q-12 -57 6.5 -79t86.5 -22h23l-5 -25h-33q-101 0 -130 30.5t-12 109.5z" />
    <glyph glyph-name="bar" unicode="|" 
d="M346 -288v1080h44v-1080h-44z" />
    <glyph glyph-name="braceright" unicode="}" 
d="M458 536l-28 -132q-5 -23 -5 -37.5t2.5 -23t12 -14.5t17.5 -8.5t26 -7t31 -8.5q-15 -5 -39.5 -11.5t-33.5 -9.5t-22 -12.5t-19 -25t-12 -41.5l-29 -133q-17 -76 -56.5 -107.5t-121.5 -31.5h-56l5 25h24q70 0 96.5 21.5t38.5 78.5l30 140q6 28 11 43t19.5 33.5t38.5 30.5
q-27 16 -30.5 44.5t6.5 60.5l30 140q12 57 -7 79t-87 22h-23l6 25h33q101 0 130 -30.5t12 -109.5z" />
    <glyph glyph-name="asciitilde" unicode="~" 
d="M606 441l32 -23q-25 -47 -64.5 -80.5t-85.5 -33.5q-30 0 -122.5 37.5t-117.5 37.5q-27 0 -50.5 -16t-34.5 -30.5t-29 -45.5q-3 -5 -5 -8l-31 23q68 121 145 121q44 0 131.5 -37.5t112.5 -37.5q36 0 68.5 28t50.5 65z" />
    <glyph glyph-name="uni00A0" unicode="&#xa0;" 
 />
    <glyph glyph-name="exclamdown" unicode="&#xa1;" 
d="M359 519l32 148h92l-32 -148h-92zM424 460l-78 -460h-102l116 460h64z" />
    <glyph glyph-name="cent" unicode="&#xa2;" 
d="M354 68l-16 -77h-67l17 79q-56 12 -84.5 55.5t-28.5 97.5t10 113q13 62 37.5 114t71 96.5t107.5 56.5l16 73h67l-16 -72q41 -5 69.5 -35.5t40.5 -72.5l-67 -32q-19 59 -57 74l-86 -405q52 12 109 81l47 -38q-81 -98 -170 -108zM302 136l85 401q-96 -34 -131 -200
q-36 -169 46 -201z" />
    <glyph glyph-name="sterling" unicode="&#xa3;" 
d="M614 560l-66 -22q-20 78 -94 78q-48 0 -84 -29.5t-46 -78.5q-7 -35 -2 -104h184l-13 -60h-166q0 -7 1.5 -29t2 -33t-0.5 -29t-4 -32q-6 -25 -19 -51t-23.5 -40.5t-35.5 -45.5q35 8 68 8q25 0 65 -19q32 -20 45 -20q25 0 72 36l31 -44q-23 -18 -37.5 -27.5t-35.5 -18
t-42 -8.5q-27 0 -61 19q-38 19 -67 19q-43 0 -121 -38l-26 47q62 75 86 112t30 66q9 40 4 128h-106l13 60h89q-7 80 0 111q15 69 76.5 115t131.5 46q60 0 100.5 -31t50.5 -85z" />
    <glyph glyph-name="currency" unicode="&#xa4;" 
d="M190 506l-109 107l33 32l108 -107q64 52 148 52t148 -52l108 107l33 -32l-109 -107q50 -68 50 -146t-50 -146l109 -107l-33 -32l-108 107q-64 -52 -148 -52t-148 52l-108 -107l-33 32l109 107q-50 68 -50 146t50 146zM370 169q81 0 136 55t55 136t-55 136.5t-136 55.5
t-136 -55.5t-55 -136.5t55 -136t136 -55z" />
    <glyph glyph-name="yen" unicode="&#xa5;" 
d="M428 327h122l-13 -60h-147l-57 -267h-67l57 267h-146l13 60h122l-79 328l68 25l71 -339l217 339l56 -25z" />
    <glyph glyph-name="brokenbar" unicode="&#xa6;" 
d="M346 792h44v-360h-44v360zM346 72h44v-360h-44v360z" />
    <glyph glyph-name="section" unicode="&#xa7;" 
d="M406 394l-64 36q-37 -30 -45 -67q-7 -34 28 -55l91 -54q39 26 47 65q4 18 -6.5 34.5t-20 23t-30.5 17.5zM364 202l-43 25q-57 33 -73 49q-32 34 -21 85q13 62 71 97q-34 36 -22 91q11 56 64 91.5t111 35.5q49 0 84 -28.5t44 -74.5l-65 -26q-14 69 -78 69
q-33 0 -58.5 -18.5t-32.5 -50.5q1 -11 -1 -17t4.5 -14.5t8.5 -12t11.5 -9.5t13 -8.5t13.5 -7.5t13 -7l39 -22q26 -14 37 -22t28.5 -23.5t22 -34.5t-0.5 -43q-13 -61 -75 -101q46 -41 34 -98q-13 -62 -68 -99t-119 -37q-62 0 -102 35.5t-44 95.5l72 23q4 -42 27 -68t66 -26
q34 0 62 18.5t35 51.5q1 7 1 13.5v11.5t-3 10t-4.5 8.5t-7 8t-7 6.5t-9 6.5t-9 5.5t-10 6t-9.5 5z" />
    <glyph glyph-name="dieresis" unicode="&#xa8;" 
d="M353 680q23 0 31 -19.5t3 -43.5t-21.5 -43.5t-39.5 -19.5t-31.5 19.5t-3.5 43.5t22 43.5t40 19.5zM537 680q23 0 31 -19.5t3 -43.5t-21.5 -43.5t-39.5 -19.5t-31.5 19.5t-3.5 43.5t22 43.5t40 19.5z" />
    <glyph glyph-name="copyright" unicode="&#xa9;" 
d="M445 676q124 0 188.5 -99.5t34.5 -242.5t-137.5 -243t-231.5 -100t-189.5 100t-35.5 243q30 142 138.5 242t232.5 100zM434 626q-97 0 -189.5 -80.5t-120.5 -211.5q-25 -119 30.5 -206t155.5 -87q89 0 185 83t123 210q25 116 -29.5 204t-154.5 88zM457 272h50
q-19 -59 -65.5 -96.5t-98.5 -37.5q-72 0 -106 57t-16 142q18 86 74.5 141.5t130.5 55.5q54 0 83.5 -34.5t25.5 -94.5h-50q4 79 -69 79q-56 0 -93.5 -39.5t-51.5 -106.5q-13 -64 7.5 -107t75.5 -43q76 0 103 84z" />
    <glyph glyph-name="ordfeminine" unicode="&#xaa;" 
d="M442 428h-102l-51 -90l-59 20l177 309h70l45 -309l-67 -20zM436 483l-13 97l-53 -97h66zM190 236l12 55h320l-12 -55h-320z" />
    <glyph glyph-name="guillemotleft" unicode="&#xab;" 
d="M414 570l37 -49l-246 -191l164 -192l-57 -50l-203 242zM638 570l37 -49l-246 -191l164 -192l-57 -50l-203 242z" />
    <glyph glyph-name="logicalnot" unicode="&#xac;" 
d="M590 173v232h-488v44h532v-276h-44z" />
    <glyph glyph-name="uni00AD" unicode="&#xad;" 
d="M238 229l13 63h222l-13 -63h-222z" />
    <glyph glyph-name="registered" unicode="&#xae;" 
d="M299 -9q-125 0 -192 99.5t-36 241.5q30 141 139 240.5t234 99.5q124 0 190.5 -99.5t36.5 -240.5q-31 -142 -139.5 -241.5t-232.5 -99.5zM310 41q99 0 192 83.5t119 207.5q26 123 -34.5 206.5t-153.5 83.5q-96 0 -191 -83t-121 -207q-26 -119 30 -205t159 -86zM416 317
l64 -176h-59l-58 176h-56l-37 -176h-50l81 381h145q118 0 96 -101q-20 -100 -126 -104zM340 472l-22 -105h91q72 0 84 56q7 31 -10.5 40t-56.5 9h-86z" />
    <glyph glyph-name="macron" unicode="&#xaf;" 
d="M569 586h-287l12 60h287z" />
    <glyph glyph-name="degree" unicode="&#xb0;" 
d="M175 549q0 80 56.5 136.5t136.5 56.5t136.5 -56.5t56.5 -136.5t-56.5 -136.5t-136.5 -56.5t-136.5 56.5t-56.5 136.5zM217 549q0 -62 44.5 -106.5t106.5 -44.5t106.5 44.5t44.5 106.5t-44.5 106.5t-106.5 44.5t-106.5 -44.5t-44.5 -106.5z" />
    <glyph glyph-name="plusminus" unicode="&#xb1;" 
d="M634 429v-44h-244v-244h-44v244h-244v44h244v244h44v-244h244zM634 91v-44h-532v44h532z" />
    <glyph glyph-name="twosuperior" unicode="&#xb2;" 
d="M260 332l8 42l165 152q2 1 5 4q33 31 38 53q4 20 -6.5 31.5t-30.5 11.5q-53 0 -75 -65l-55 7q17 51 53 79.5t87 28.5q45 0 70.5 -23.5t16.5 -67.5q-8 -38 -64 -90l-124 -113h144l-10 -50h-222z" />
    <glyph glyph-name="threesuperior" unicode="&#xb3;" 
d="M552 676l-9 -42l-103 -79q37 -4 59 -28t14 -61q-4 -19 -17.5 -40.5t-40.5 -45.5t-77 -38t-115 -10l10 50q162 -2 180 83q5 25 -13.5 35.5t-46.5 10.5q-17 0 -55 -6l9 39l109 82h-136l11 50h221z" />
    <glyph glyph-name="acute" unicode="&#xb4;" 
d="M525 695l22 -63l-204 -82l-17 44z" />
    <glyph glyph-name="mu" unicode="&#xb5;" 
d="M402 0l9 44q-48 -53 -111 -53q-64 0 -92 49l-54 -251h-67l156 732h67l-73 -344q-6 -38 -1.5 -62t19 -37.5t28 -18.5t25.5 -5q52 0 88.5 44.5t47.5 99.5l69 323h67l-111 -521h-67z" />
    <glyph glyph-name="paragraph" unicode="&#xb6;" 
d="M264 -67l75 356q-92 -7 -145.5 47t-34.5 145q42 195 282 195h246l-13 -60h-46l-145 -683h-67l145 683h-85l-145 -683h-67z" />
    <glyph glyph-name="periodcentered" unicode="&#xb7;" 
d="M320 360q0 21 14.5 35.5t35.5 14.5t35.5 -14.5t14.5 -35.5t-14.5 -35.5t-35.5 -14.5t-35.5 14.5t-14.5 35.5z" />
    <glyph glyph-name="cedilla" unicode="&#xb8;" 
d="M349 13l-30 -55q34 -2 53 -20t12 -51q-7 -34 -40.5 -55.5t-68.5 -21.5q-38 0 -96 29l31 51q36 -20 69 -20q31 0 36 20q2 9 -3 15.5t-16.5 9.5t-20.5 4.5t-23 2t-16 0.5l53 91h60z" />
    <glyph glyph-name="onesuperior" unicode="&#xb9;" 
d="M362 382l48 227l-66 -21l-8 45l150 47l-64 -298h58l-10 -50h-192l10 50h74z" />
    <glyph glyph-name="ordmasculine" unicode="&#xba;" 
d="M190 236l12 55h320l-12 -55h-320zM444 676q66 0 88 -48t7 -117q-14 -68 -56.5 -116t-108.5 -48t-87 47.5t-7 116.5q15 70 56.5 117.5t107.5 47.5zM432 621q-61 0 -85 -110q-23 -109 38 -109q64 0 87 109q23 110 -40 110z" />
    <glyph glyph-name="guillemotright" unicode="&#xbb;" 
d="M204 570l203 -240l-305 -242l-37 50l246 192l-164 191zM428 570l203 -240l-305 -242l-37 50l246 192l-164 191z" />
    <glyph glyph-name="onequarter" unicode="&#xbc;" 
d="M493 78h-143l114 267l55 -10l-90 -207h74l35 162h60l-35 -162h28l-10 -50h-28l-17 -78h-60zM197 382l48 227l-66 -21l-8 45l150 47l-64 -298h58l-10 -50h-192l10 50h74zM605 680l46 -29l-518 -664l-47 26z" />
    <glyph glyph-name="onehalf" unicode="&#xbd;" 
d="M204 382l48 227l-66 -21l-8 45l150 47l-64 -298h58l-10 -50h-192l10 50h74zM609 680l46 -29l-518 -664l-47 26zM334 0l9 42l164 152q3 2 9.5 8.5t9.5 9t8 8t7.5 9.5t5 10t3.5 12q4 20 -6.5 31.5t-30.5 11.5q-54 0 -74 -65l-56 7q17 51 53 79.5t87 28.5q45 0 71 -24
t17 -67q-9 -40 -64 -90l-124 -113h144l-11 -50h-222z" />
    <glyph glyph-name="threequarters" unicode="&#xbe;" 
d="M494 78h-143l114 267l55 -10l-90 -207h74l35 162h60l-35 -162h28l-10 -50h-28l-17 -78h-60zM606 680l46 -29l-518 -664l-47 26zM401 676l-9 -42l-103 -79q37 -4 59 -28t14 -61q-4 -19 -17.5 -40t-40.5 -45.5t-77 -38t-115 -9.5l10 50q162 -2 180 82q5 25 -13.5 35.5
t-46.5 10.5q-17 0 -55 -6l9 39l109 82h-136l11 50h221z" />
    <glyph glyph-name="questiondown" unicode="&#xbf;" 
d="M364 447h69l-4 -17q-13 -55 -28 -77.5t-64 -58.5q-36 -26 -51.5 -38t-36.5 -39t-27 -55q-10 -48 10.5 -78t67.5 -30q103 0 157 138l62 -17q-76 -184 -230 -184q-78 0 -115.5 46t-21.5 123q11 53 44 91t91 80q41 30 53.5 45.5t20.5 56.5zM367 519l32 148h92l-32 -148h-92z
" />
    <glyph glyph-name="Agrave" unicode="&#xc0;" 
d="M435 206h-182l-99 -219l-62 18l310 662h80l28 -662l-70 -18zM432 266l-8 312h-2l-140 -312h150zM404 841l155 -101l-35 -44l-170 82z" />
    <glyph glyph-name="Aacute" unicode="&#xc1;" 
d="M435 206h-182l-99 -219l-62 18l310 662h80l28 -662l-70 -18zM432 266l-8 312h-2l-140 -312h150zM545 841l22 -63l-204 -82l-17 44z" />
    <glyph glyph-name="Acircumflex" unicode="&#xc2;" 
d="M435 206h-182l-99 -219l-62 18l310 662h80l28 -662l-70 -18zM432 266l-8 312h-2l-140 -312h150zM450 759l-140 -62l-16 36l172 102l130 -102l-31 -36z" />
    <glyph glyph-name="Atilde" unicode="&#xc3;" 
d="M435 206h-182l-99 -219l-62 18l310 662h80l28 -662l-70 -18zM432 266l-8 312h-2l-140 -312h150zM568 826l47 -16q-12 -23 -20 -36.5t-22 -32t-31.5 -27.5t-38.5 -9q-32 0 -66 31q-26 26 -43 26q-7 0 -14 -3.5t-12 -7.5t-11 -12t-9 -12.5t-8.5 -14.5t-6.5 -12l-45 19
q14 23 23 36.5t24.5 31.5t33 26.5t38.5 8.5q27 0 59 -30q31 -28 46 -28q8 0 15 4t14 13t10.5 14t9.5 17.5t7 13.5z" />
    <glyph glyph-name="Adieresis" unicode="&#xc4;" 
d="M435 206h-182l-99 -219l-62 18l310 662h80l28 -662l-70 -18zM432 266l-8 312h-2l-140 -312h150zM373 826q23 0 31 -19.5t3 -43.5t-21.5 -43.5t-39.5 -19.5t-31.5 19.5t-3.5 43.5t22 43.5t40 19.5zM557 826q23 0 31 -19.5t3 -43.5t-21.5 -43.5t-39.5 -19.5t-31.5 19.5
t-3.5 43.5t22 43.5t40 19.5z" />
    <glyph glyph-name="Aring" unicode="&#xc5;" 
d="M435 206h-182l-99 -219l-62 18l310 662h80l28 -662l-70 -18zM432 266l-8 312h-2l-140 -312h150zM475 847q36 0 56 -25.5t12 -60.5q-8 -36 -38.5 -61.5t-66.5 -25.5t-56 25.5t-13 61.5q8 35 39 60.5t67 25.5zM466 807q-19 0 -36 -13.5t-21 -32.5t6.5 -33t30.5 -14
q19 0 35.5 13.5t21.5 33.5q4 19 -7 32.5t-30 13.5z" />
    <glyph glyph-name="AE" unicode="&#xc6;" 
d="M341 266l72 341h-27l-152 -341h107zM284 0l44 206h-120l-100 -219l-64 18l309 662h297l-13 -60h-157l-47 -220h145l-12 -60h-145l-57 -267h157l-13 -60h-224z" />
    <glyph glyph-name="Ccedilla" unicode="&#xc7;" 
d="M461 138l47 -38q-77 -94 -170 -107l-19 -35q34 -2 53 -20t12 -51q-7 -34 -40.5 -55.5t-68.5 -21.5q-38 0 -96 29l31 51q36 -20 69 -20q31 0 36 20q2 9 -3 15.5t-16.5 9.5t-20.5 4.5t-23 2t-16 0.5l42 72q-39 7 -64.5 33.5t-35.5 61t-11 80t4 84t14 80.5q10 46 22.5 87.5
t35.5 90t51.5 83.5t71 58.5t92.5 23.5q103 0 140 -108l-64 -34q-24 79 -90 79q-129 0 -189 -280q-58 -279 70 -279q68 0 136 84z" />
    <glyph glyph-name="Egrave" unicode="&#xc8;" 
d="M157 0l142 667h325l-13 -60h-258l-47 -220h213l-12 -60h-213l-57 -267h258l-13 -60h-325zM414 841l155 -101l-35 -44l-170 82z" />
    <glyph glyph-name="Eacute" unicode="&#xc9;" 
d="M157 0l142 667h325l-13 -60h-258l-47 -220h213l-12 -60h-213l-57 -267h258l-13 -60h-325zM555 841l22 -63l-204 -82l-17 44z" />
    <glyph glyph-name="Ecircumflex" unicode="&#xca;" 
d="M157 0l142 667h325l-13 -60h-258l-47 -220h213l-12 -60h-213l-57 -267h258l-13 -60h-325zM460 759l-140 -62l-16 36l172 102l130 -102l-31 -36z" />
    <glyph glyph-name="Edieresis" unicode="&#xcb;" 
d="M157 0l142 667h325l-13 -60h-258l-47 -220h213l-12 -60h-213l-57 -267h258l-13 -60h-325zM383 826q23 0 31 -19.5t3 -43.5t-21.5 -43.5t-39.5 -19.5t-31.5 19.5t-3.5 43.5t22 43.5t40 19.5zM567 826q23 0 31 -19.5t3 -43.5t-21.5 -43.5t-39.5 -19.5t-31.5 19.5t-3.5 43.5
t22 43.5t40 19.5z" />
    <glyph glyph-name="Igrave" unicode="&#xcc;" 
d="M279 60l116 547h-90l13 60h248l-13 -60h-91l-116 -547h91l-13 -60h-248l13 60h90zM404 841l155 -101l-35 -44l-170 82z" />
    <glyph glyph-name="Iacute" unicode="&#xcd;" 
d="M279 60l116 547h-90l13 60h248l-13 -60h-91l-116 -547h91l-13 -60h-248l13 60h90zM545 841l22 -63l-204 -82l-17 44z" />
    <glyph glyph-name="Icircumflex" unicode="&#xce;" 
d="M279 60l116 547h-90l13 60h248l-13 -60h-91l-116 -547h91l-13 -60h-248l13 60h90zM450 759l-140 -62l-16 36l172 102l130 -102l-31 -36z" />
    <glyph glyph-name="Idieresis" unicode="&#xcf;" 
d="M279 60l116 547h-90l13 60h248l-13 -60h-91l-116 -547h91l-13 -60h-248l13 60h90zM373 826q23 0 31 -19.5t3 -43.5t-21.5 -43.5t-39.5 -19.5t-31.5 19.5t-3.5 43.5t22 43.5t40 19.5zM557 826q23 0 31 -19.5t3 -43.5t-21.5 -43.5t-39.5 -19.5t-31.5 19.5t-3.5 43.5
t22 43.5t40 19.5z" />
    <glyph glyph-name="Eth" unicode="&#xd0;" 
d="M302 607h-54l13 60h176q43 0 72.5 -8.5t52 -30t31.5 -59t6 -96.5t-20 -140q-8 -38 -14.5 -65t-19 -64.5t-26.5 -63.5t-35.5 -54.5t-47 -45.5t-61.5 -28.5t-78 -11.5h-178l13 60h54l51 243h-54l13 60h54zM369 607l-52 -244h79l-13 -60h-79l-51 -243h55q28 0 47 4
t42.5 19.5t41 44.5t36 80t34.5 125q16 73 19 125.5t-2.5 81t-20.5 44t-29.5 19.5t-35.5 4h-71z" />
    <glyph glyph-name="Ntilde" unicode="&#xd1;" 
d="M126 0l142 667h84l79 -561l2 2l29 149l87 410h67l-142 -667h-84l-79 562l-2 -2l-29 -151l-87 -409h-67zM568 826l47 -16q-12 -23 -20 -36.5t-22 -32t-31.5 -27.5t-38.5 -9q-32 0 -66 31q-26 26 -43 26q-7 0 -14 -3.5t-12 -7.5t-11 -12t-9 -12.5t-8.5 -14.5t-6.5 -12
l-45 19q14 23 23 36.5t24.5 31.5t33 26.5t38.5 8.5q27 0 59 -30q31 -28 46 -28q8 0 15 4t14 13t10.5 14t9.5 17.5t7 13.5z" />
    <glyph glyph-name="Ograve" unicode="&#xd2;" 
d="M444 676q39 0 66 -15t42 -36.5t21 -56.5t6.5 -61.5t-5 -67t-8.5 -58t-10 -47.5q-6 -27 -9 -40t-12.5 -48.5t-19 -57.5t-24.5 -56t-33.5 -55.5t-42 -43t-53.5 -32t-64 -10.5q-44 0 -73.5 18t-42 48.5t-17.5 65.5t-1 75t9 70.5t11 57.5q1 5 2 8q72 342 258 342zM430 613
q-27 0 -50.5 -12t-41 -37.5t-29.5 -47t-23 -60.5t-15.5 -57t-12.5 -56q-1 -3 -1.5 -5t-0.5 -4q-32 -135 -22 -207.5t77 -72.5q28 0 51 11.5t40.5 36.5t29.5 47t23.5 62t16.5 60.5t14 62.5q31 143 26 196q-8 83 -82 83zM404 841l155 -101l-35 -44l-170 82z" />
    <glyph glyph-name="Oacute" unicode="&#xd3;" 
d="M444 676q39 0 66 -15t42 -36.5t21 -56.5t6.5 -61.5t-5 -67t-8.5 -58t-10 -47.5q-6 -27 -9 -40t-12.5 -48.5t-19 -57.5t-24.5 -56t-33.5 -55.5t-42 -43t-53.5 -32t-64 -10.5q-44 0 -73.5 18t-42 48.5t-17.5 65.5t-1 75t9 70.5t11 57.5q1 5 2 8q72 342 258 342zM430 613
q-27 0 -50.5 -12t-41 -37.5t-29.5 -47t-23 -60.5t-15.5 -57t-12.5 -56q-1 -3 -1.5 -5t-0.5 -4q-32 -135 -22 -207.5t77 -72.5q28 0 51 11.5t40.5 36.5t29.5 47t23.5 62t16.5 60.5t14 62.5q31 143 26 196q-8 83 -82 83zM545 841l22 -63l-204 -82l-17 44z" />
    <glyph glyph-name="Ocircumflex" unicode="&#xd4;" 
d="M444 676q39 0 66 -15t42 -36.5t21 -56.5t6.5 -61.5t-5 -67t-8.5 -58t-10 -47.5q-6 -27 -9 -40t-12.5 -48.5t-19 -57.5t-24.5 -56t-33.5 -55.5t-42 -43t-53.5 -32t-64 -10.5q-44 0 -73.5 18t-42 48.5t-17.5 65.5t-1 75t9 70.5t11 57.5q1 5 2 8q72 342 258 342zM430 613
q-27 0 -50.5 -12t-41 -37.5t-29.5 -47t-23 -60.5t-15.5 -57t-12.5 -56q-1 -3 -1.5 -5t-0.5 -4q-32 -135 -22 -207.5t77 -72.5q28 0 51 11.5t40.5 36.5t29.5 47t23.5 62t16.5 60.5t14 62.5q31 143 26 196q-8 83 -82 83zM450 759l-140 -62l-16 36l172 102l130 -102l-31 -36z
" />
    <glyph glyph-name="Otilde" unicode="&#xd5;" 
d="M444 676q39 0 66 -15t42 -36.5t21 -56.5t6.5 -61.5t-5 -67t-8.5 -58t-10 -47.5q-6 -27 -9 -40t-12.5 -48.5t-19 -57.5t-24.5 -56t-33.5 -55.5t-42 -43t-53.5 -32t-64 -10.5q-44 0 -73.5 18t-42 48.5t-17.5 65.5t-1 75t9 70.5t11 57.5q1 5 2 8q72 342 258 342zM430 613
q-27 0 -50.5 -12t-41 -37.5t-29.5 -47t-23 -60.5t-15.5 -57t-12.5 -56q-1 -3 -1.5 -5t-0.5 -4q-32 -135 -22 -207.5t77 -72.5q28 0 51 11.5t40.5 36.5t29.5 47t23.5 62t16.5 60.5t14 62.5q31 143 26 196q-8 83 -82 83zM568 826l47 -16q-12 -23 -20 -36.5t-22 -32
t-31.5 -27.5t-38.5 -9q-32 0 -66 31q-26 26 -43 26q-7 0 -14 -3.5t-12 -7.5t-11 -12t-9 -12.5t-8.5 -14.5t-6.5 -12l-45 19q14 23 23 36.5t24.5 31.5t33 26.5t38.5 8.5q27 0 59 -30q31 -28 46 -28q8 0 15 4t14 13t10.5 14t9.5 17.5t7 13.5z" />
    <glyph glyph-name="Odieresis" unicode="&#xd6;" 
d="M444 676q39 0 66 -15t42 -36.5t21 -56.5t6.5 -61.5t-5 -67t-8.5 -58t-10 -47.5q-6 -27 -9 -40t-12.5 -48.5t-19 -57.5t-24.5 -56t-33.5 -55.5t-42 -43t-53.5 -32t-64 -10.5q-44 0 -73.5 18t-42 48.5t-17.5 65.5t-1 75t9 70.5t11 57.5q1 5 2 8q72 342 258 342zM430 613
q-27 0 -50.5 -12t-41 -37.5t-29.5 -47t-23 -60.5t-15.5 -57t-12.5 -56q-1 -3 -1.5 -5t-0.5 -4q-32 -135 -22 -207.5t77 -72.5q28 0 51 11.5t40.5 36.5t29.5 47t23.5 62t16.5 60.5t14 62.5q31 143 26 196q-8 83 -82 83zM373 826q23 0 31 -19.5t3 -43.5t-21.5 -43.5
t-39.5 -19.5t-31.5 19.5t-3.5 43.5t22 43.5t40 19.5zM557 826q23 0 31 -19.5t3 -43.5t-21.5 -43.5t-39.5 -19.5t-31.5 19.5t-3.5 43.5t22 43.5t40 19.5z" />
    <glyph glyph-name="multiply" unicode="&#xd7;" 
d="M634 126l-31 -32l-235 235l-235 -235l-31 32l235 234l-235 235l31 31l235 -235l235 235l31 -31l-235 -235z" />
    <glyph glyph-name="Oslash" unicode="&#xd8;" 
d="M242 212l268 353q-17 48 -73 48q-25 0 -45 -9t-43 -34.5t-44 -81.5t-39 -142q-20 -91 -24 -134zM516 487l-275 -363v-2q13 -68 77 -68q18 0 31 3t33.5 18t37 42t36 79.5t34.5 125.5q18 81 27 163l1 2h-2zM190 56l-46 -59l-45 26l73 97q-7 81 21 214q8 35 11 49t15.5 57.5
t24 68t33 61t44.5 56t57 35t73 15.5q68 0 105 -50l44 58l47 -27l-67 -88q15 -85 -17 -235q-8 -38 -16 -66.5t-22.5 -73t-34 -76.5t-45 -63t-62 -47.5t-78.5 -16.5q-37 0 -68 18t-47 47z" />
    <glyph glyph-name="Ugrave" unicode="&#xd9;" 
d="M279 667h67l-103 -485q-6 -34 -7 -62.5t17.5 -47t57.5 -18.5q57 0 84.5 35t40.5 93l103 485h67l-108 -505q-16 -78 -71 -124.5t-129 -46.5q-75 0 -109 46.5t-18 121.5zM404 841l155 -101l-35 -44l-170 82z" />
    <glyph glyph-name="Uacute" unicode="&#xda;" 
d="M279 667h67l-103 -485q-6 -34 -7 -62.5t17.5 -47t57.5 -18.5q57 0 84.5 35t40.5 93l103 485h67l-108 -505q-16 -78 -71 -124.5t-129 -46.5q-75 0 -109 46.5t-18 121.5zM545 841l22 -63l-204 -82l-17 44z" />
    <glyph glyph-name="Ucircumflex" unicode="&#xdb;" 
d="M279 667h67l-103 -485q-6 -34 -7 -62.5t17.5 -47t57.5 -18.5q57 0 84.5 35t40.5 93l103 485h67l-108 -505q-16 -78 -71 -124.5t-129 -46.5q-75 0 -109 46.5t-18 121.5zM450 759l-140 -62l-16 36l172 102l130 -102l-31 -36z" />
    <glyph glyph-name="Udieresis" unicode="&#xdc;" 
d="M279 667h67l-103 -485q-6 -34 -7 -62.5t17.5 -47t57.5 -18.5q57 0 84.5 35t40.5 93l103 485h67l-108 -505q-16 -78 -71 -124.5t-129 -46.5q-75 0 -109 46.5t-18 121.5zM373 826q23 0 31 -19.5t3 -43.5t-21.5 -43.5t-39.5 -19.5t-31.5 19.5t-3.5 43.5t22 43.5t40 19.5z
M557 826q23 0 31 -19.5t3 -43.5t-21.5 -43.5t-39.5 -19.5t-31.5 19.5t-3.5 43.5t22 43.5t40 19.5z" />
    <glyph glyph-name="Yacute" unicode="&#xdd;" 
d="M372 341l217 339l56 -25l-256 -392l-56 -263h-67l56 263l-89 392l68 25zM545 841l22 -63l-204 -82l-17 44z" />
    <glyph glyph-name="Thorn" unicode="&#xde;" 
d="M261 149l-32 -149h-67l142 667h67l-32 -148h78q89 0 127 -46t20 -131q-20 -91 -76 -142t-127 -51h-100zM327 459l-54 -250h94q47 0 80.5 35t46.5 98q24 117 -90 117h-77z" />
    <glyph glyph-name="germandbls" unicode="&#xdf;" 
d="M330 248l12 60q33 4 55 28.5t29 58.5q15 72 -49 72q-42 0 -59 -24.5t-26 -70.5l-79 -372h-67l89 419q8 37 52.5 74t110.5 37q58 0 85 -35.5t14 -92.5q-17 -80 -78 -111q43 -12 60 -51.5t7 -88.5q-16 -76 -65.5 -113.5t-101.5 -37.5h-61l13 60h46q80 0 98 88
q11 51 -11 76.5t-74 23.5z" />
    <glyph glyph-name="agrave" unicode="&#xe0;" 
d="M423 142h-185l-82 -155l-61 24l273 510h86l55 -510l-71 -24zM417 202l-23 241l-125 -241h148zM384 715l155 -101l-35 -44l-170 82z" />
    <glyph glyph-name="aacute" unicode="&#xe1;" 
d="M423 142h-185l-82 -155l-61 24l273 510h86l55 -510l-71 -24zM417 202l-23 241l-125 -241h148zM525 715l22 -63l-204 -82l-17 44z" />
    <glyph glyph-name="acircumflex" unicode="&#xe2;" 
d="M423 142h-185l-82 -155l-61 24l273 510h86l55 -510l-71 -24zM417 202l-23 241l-125 -241h148zM430 633l-140 -62l-16 36l172 102l130 -102l-31 -36z" />
    <glyph glyph-name="atilde" unicode="&#xe3;" 
d="M423 142h-185l-82 -155l-61 24l273 510h86l55 -510l-71 -24zM417 202l-23 241l-125 -241h148zM548 700l47 -16q-12 -23 -20 -36.5t-22 -32t-31.5 -27.5t-38.5 -9q-32 0 -66 31q-26 26 -43 26q-7 0 -14 -3.5t-12 -7.5t-11 -12t-9 -12.5t-8.5 -14.5t-6.5 -12l-45 19
q14 23 23 36.5t24.5 31.5t33 26.5t38.5 8.5q27 0 59 -30q31 -28 46 -28q8 0 15 4t14 13t10.5 14t9.5 17.5t7 13.5z" />
    <glyph glyph-name="adieresis" unicode="&#xe4;" 
d="M423 142h-185l-82 -155l-61 24l273 510h86l55 -510l-71 -24zM417 202l-23 241l-125 -241h148zM353 700q23 0 31 -19.5t3 -43.5t-21.5 -43.5t-39.5 -19.5t-31.5 19.5t-3.5 43.5t22 43.5t40 19.5zM537 700q23 0 31 -19.5t3 -43.5t-21.5 -43.5t-39.5 -19.5t-31.5 19.5
t-3.5 43.5t22 43.5t40 19.5z" />
    <glyph glyph-name="aring" unicode="&#xe5;" 
d="M423 142h-185l-82 -155l-61 24l273 510h86l55 -510l-71 -24zM417 202l-23 241l-125 -241h148zM445 701q36 0 56 -25.5t12 -60.5q-8 -36 -38.5 -61.5t-66.5 -25.5t-56 25.5t-13 61.5q8 35 39 60.5t67 25.5zM436 661q-19 0 -36 -13.5t-21 -32.5t6.5 -33t30.5 -14
q19 0 35.5 13.5t21.5 33.5q4 19 -7 32.5t-30 13.5z" />
    <glyph glyph-name="ae" unicode="&#xe6;" 
d="M334 202l55 259h-42l-131 -259h118zM291 0l30 142h-137l-81 -155l-61 24l273 510h332l-13 -60h-178l-33 -156h145l-13 -60h-145l-39 -185h178l-13 -60h-245z" />
    <glyph glyph-name="ccedilla" unicode="&#xe7;" 
d="M461 138l47 -38q-82 -97 -170 -107l-19 -35q34 -2 53 -20t12 -51q-7 -34 -40.5 -55.5t-68.5 -21.5q-38 0 -96 29l31 51q36 -20 69 -20q31 0 36 20q2 9 -3 15.5t-16.5 9.5t-20.5 4.5t-23 2t-16 0.5l42 72q-57 9 -87.5 51t-31.5 97.5t10 117.5q30 141 103 205.5t149 64.5
q58 0 90.5 -28t50.5 -83l-68 -31q-24 79 -86 79q-37 0 -67.5 -20t-50 -53.5t-32 -66t-19.5 -66.5q-7 -35 -9 -67t3 -66t27 -54t60 -20q42 0 73.5 21t67.5 63z" />
    <glyph glyph-name="egrave" unicode="&#xe8;" 
d="M157 0l111 521h325l-13 -60h-258l-33 -156h213l-13 -60h-213l-39 -185h258l-13 -60h-325zM384 715l155 -101l-35 -44l-170 82z" />
    <glyph glyph-name="eacute" unicode="&#xe9;" 
d="M157 0l111 521h325l-13 -60h-258l-33 -156h213l-13 -60h-213l-39 -185h258l-13 -60h-325zM525 715l22 -63l-204 -82l-17 44z" />
    <glyph glyph-name="ecircumflex" unicode="&#xea;" 
d="M157 0l111 521h325l-13 -60h-258l-33 -156h213l-13 -60h-213l-39 -185h258l-13 -60h-325zM430 633l-140 -62l-16 36l172 102l130 -102l-31 -36z" />
    <glyph glyph-name="edieresis" unicode="&#xeb;" 
d="M157 0l111 521h325l-13 -60h-258l-33 -156h213l-13 -60h-213l-39 -185h258l-13 -60h-325zM353 700q23 0 31 -19.5t3 -43.5t-21.5 -43.5t-39.5 -19.5t-31.5 19.5t-3.5 43.5t22 43.5t40 19.5zM537 700q23 0 31 -19.5t3 -43.5t-21.5 -43.5t-39.5 -19.5t-31.5 19.5t-3.5 43.5
t22 43.5t40 19.5z" />
    <glyph glyph-name="igrave" unicode="&#xec;" 
d="M193 0l13 60h73l85 401h-73l13 60h214l-13 -60h-74l-85 -401h74l-13 -60h-214zM384 715l155 -101l-35 -44l-170 82z" />
    <glyph glyph-name="iacute" unicode="&#xed;" 
d="M193 0l13 60h73l85 401h-73l13 60h214l-13 -60h-74l-85 -401h74l-13 -60h-214zM525 715l22 -63l-204 -82l-17 44z" />
    <glyph glyph-name="icircumflex" unicode="&#xee;" 
d="M193 0l13 60h73l85 401h-73l13 60h214l-13 -60h-74l-85 -401h74l-13 -60h-214zM430 633l-140 -62l-16 36l172 102l130 -102l-31 -36z" />
    <glyph glyph-name="idieresis" unicode="&#xef;" 
d="M193 0l13 60h73l85 401h-73l13 60h214l-13 -60h-74l-85 -401h74l-13 -60h-214zM353 700q23 0 31 -19.5t3 -43.5t-21.5 -43.5t-39.5 -19.5t-31.5 19.5t-3.5 43.5t22 43.5t40 19.5zM537 700q23 0 31 -19.5t3 -43.5t-21.5 -43.5t-39.5 -19.5t-31.5 19.5t-3.5 43.5t22 43.5
t40 19.5z" />
    <glyph glyph-name="eth" unicode="&#xf0;" 
d="M235 290l36 171h-54l13 60h174q114 0 152.5 -56.5t8.5 -197.5q-11 -54 -23.5 -91t-33.5 -72.5t-48.5 -57t-69.5 -34t-97 -12.5h-174l13 60h54l36 170h-54l13 60h54zM302 290h79l-13 -60h-79l-36 -170h71q67 0 106 45t63 155q19 79 11.5 123.5t-30.5 61t-67 16.5h-69z" />
    <glyph glyph-name="ntilde" unicode="&#xf1;" 
d="M126 0l111 521h83l108 -439l3 2l23 135l64 302h67l-111 -521h-83l-109 439l-2 -2l-23 -136l-64 -301h-67zM548 700l47 -16q-12 -23 -20 -36.5t-22 -32t-31.5 -27.5t-38.5 -9q-32 0 -66 31q-26 26 -43 26q-7 0 -14 -3.5t-12 -7.5t-11 -12t-9 -12.5t-8.5 -14.5t-6.5 -12
l-45 19q14 23 23 36.5t24.5 31.5t33 26.5t38.5 8.5q27 0 59 -30q31 -28 46 -28q8 0 15 4t14 13t10.5 14t9.5 17.5t7 13.5z" />
    <glyph glyph-name="ograve" unicode="&#xf2;" 
d="M413 530q34 0 61.5 -12.5t50 -43.5t26 -83t-10.5 -131q-5 -23 -11 -45t-25.5 -66.5t-44 -76t-67.5 -56.5t-94 -25q-34 0 -61.5 12.5t-50.5 43.5t-26.5 83t10.5 130q30 142 98.5 206t144.5 64zM399 467q-113 0 -159 -207q-43 -206 71 -206q36 0 65 20.5t47 55t29 65.5
t18 65q8 34 10.5 65.5t-1.5 66t-24 55t-56 20.5zM384 715l155 -101l-35 -44l-170 82z" />
    <glyph glyph-name="oacute" unicode="&#xf3;" 
d="M413 530q34 0 61.5 -12.5t50 -43.5t26 -83t-10.5 -131q-5 -23 -11 -45t-25.5 -66.5t-44 -76t-67.5 -56.5t-94 -25q-34 0 -61.5 12.5t-50.5 43.5t-26.5 83t10.5 130q30 142 98.5 206t144.5 64zM399 467q-113 0 -159 -207q-43 -206 71 -206q36 0 65 20.5t47 55t29 65.5
t18 65q8 34 10.5 65.5t-1.5 66t-24 55t-56 20.5zM525 715l22 -63l-204 -82l-17 44z" />
    <glyph glyph-name="ocircumflex" unicode="&#xf4;" 
d="M413 530q34 0 61.5 -12.5t50 -43.5t26 -83t-10.5 -131q-5 -23 -11 -45t-25.5 -66.5t-44 -76t-67.5 -56.5t-94 -25q-34 0 -61.5 12.5t-50.5 43.5t-26.5 83t10.5 130q30 142 98.5 206t144.5 64zM399 467q-113 0 -159 -207q-43 -206 71 -206q36 0 65 20.5t47 55t29 65.5
t18 65q8 34 10.5 65.5t-1.5 66t-24 55t-56 20.5zM430 633l-140 -62l-16 36l172 102l130 -102l-31 -36z" />
    <glyph glyph-name="otilde" unicode="&#xf5;" 
d="M413 530q34 0 61.5 -12.5t50 -43.5t26 -83t-10.5 -131q-5 -23 -11 -45t-25.5 -66.5t-44 -76t-67.5 -56.5t-94 -25q-34 0 -61.5 12.5t-50.5 43.5t-26.5 83t10.5 130q30 142 98.5 206t144.5 64zM399 467q-113 0 -159 -207q-43 -206 71 -206q36 0 65 20.5t47 55t29 65.5
t18 65q8 34 10.5 65.5t-1.5 66t-24 55t-56 20.5zM548 700l47 -16q-12 -23 -20 -36.5t-22 -32t-31.5 -27.5t-38.5 -9q-32 0 -66 31q-26 26 -43 26q-7 0 -14 -3.5t-12 -7.5t-11 -12t-9 -12.5t-8.5 -14.5t-6.5 -12l-45 19q14 23 23 36.5t24.5 31.5t33 26.5t38.5 8.5
q27 0 59 -30q31 -28 46 -28q8 0 15 4t14 13t10.5 14t9.5 17.5t7 13.5z" />
    <glyph glyph-name="odieresis" unicode="&#xf6;" 
d="M413 530q34 0 61.5 -12.5t50 -43.5t26 -83t-10.5 -131q-5 -23 -11 -45t-25.5 -66.5t-44 -76t-67.5 -56.5t-94 -25q-34 0 -61.5 12.5t-50.5 43.5t-26.5 83t10.5 130q30 142 98.5 206t144.5 64zM399 467q-113 0 -159 -207q-43 -206 71 -206q36 0 65 20.5t47 55t29 65.5
t18 65q8 34 10.5 65.5t-1.5 66t-24 55t-56 20.5zM353 700q23 0 31 -19.5t3 -43.5t-21.5 -43.5t-39.5 -19.5t-31.5 19.5t-3.5 43.5t22 43.5t40 19.5zM537 700q23 0 31 -19.5t3 -43.5t-21.5 -43.5t-39.5 -19.5t-31.5 19.5t-3.5 43.5t22 43.5t40 19.5z" />
    <glyph glyph-name="divide" unicode="&#xf7;" 
d="M634 382v-44h-532v44h532zM411 205q0 -18 -12.5 -30.5t-30.5 -12.5t-30.5 12.5t-12.5 30.5t12.5 30.5t30.5 12.5t30.5 -12.5t12.5 -30.5zM411 515q0 -18 -12.5 -30.5t-30.5 -12.5t-30.5 12.5t-12.5 30.5t12.5 30.5t30.5 12.5t30.5 -12.5t12.5 -30.5z" />
    <glyph glyph-name="oslash" unicode="&#xf8;" 
d="M230 141l229 301q-19 25 -60 25q-36 0 -65 -20.5t-47 -55t-29 -65.5t-18 -66q-14 -64 -10 -119zM480 383l-230 -303q23 -26 61 -26q36 0 65 20.5t47 55t29 65.5t18 65q15 71 10 123zM502 500l29 38l44 -28l-40 -55q31 -70 5 -195q-30 -138 -97 -203.5t-145 -65.5
q-58 0 -91 32l-29 -39l-46 27l43 57q-31 67 -5 192q30 139 97 204.5t146 65.5q56 0 89 -30z" />
    <glyph glyph-name="ugrave" unicode="&#xf9;" 
d="M248 521h67l-76 -355q-12 -59 2.5 -85.5t64.5 -26.5q60 0 86.5 26t39.5 86l76 355h67l-83 -387q-13 -58 -63.5 -100.5t-130.5 -42.5t-112.5 42.5t-19.5 104.5zM384 715l155 -101l-35 -44l-170 82z" />
    <glyph glyph-name="uacute" unicode="&#xfa;" 
d="M248 521h67l-76 -355q-12 -59 2.5 -85.5t64.5 -26.5q60 0 86.5 26t39.5 86l76 355h67l-83 -387q-13 -58 -63.5 -100.5t-130.5 -42.5t-112.5 42.5t-19.5 104.5zM525 715l22 -63l-204 -82l-17 44z" />
    <glyph glyph-name="ucircumflex" unicode="&#xfb;" 
d="M248 521h67l-76 -355q-12 -59 2.5 -85.5t64.5 -26.5q60 0 86.5 26t39.5 86l76 355h67l-83 -387q-13 -58 -63.5 -100.5t-130.5 -42.5t-112.5 42.5t-19.5 104.5zM430 633l-140 -62l-16 36l172 102l130 -102l-31 -36z" />
    <glyph glyph-name="udieresis" unicode="&#xfc;" 
d="M248 521h67l-76 -355q-12 -59 2.5 -85.5t64.5 -26.5q60 0 86.5 26t39.5 86l76 355h67l-83 -387q-13 -58 -63.5 -100.5t-130.5 -42.5t-112.5 42.5t-19.5 104.5zM353 700q23 0 31 -19.5t3 -43.5t-21.5 -43.5t-39.5 -19.5t-31.5 19.5t-3.5 43.5t22 43.5t40 19.5zM537 700
q23 0 31 -19.5t3 -43.5t-21.5 -43.5t-39.5 -19.5t-31.5 19.5t-3.5 43.5t22 43.5t40 19.5z" />
    <glyph glyph-name="yacute" unicode="&#xfd;" 
d="M357 266l196 268l55 -33l-232 -300l-43 -201h-67l43 201l-105 300l71 33zM525 715l22 -63l-204 -82l-17 44z" />
    <glyph glyph-name="thorn" unicode="&#xfe;" 
d="M253 112l-24 -112h-67l111 521h67l-24 -112h95q85 0 118 -40t20 -102q-17 -77 -70 -116t-114 -39h-112zM266 172h92q100 0 120 90q10 49 -13 68t-70 19h-92z" />
    <glyph glyph-name="ydieresis" unicode="&#xff;" 
d="M357 266l196 268l55 -33l-232 -300l-43 -201h-67l43 201l-105 300l71 33zM353 700q23 0 31 -19.5t3 -43.5t-21.5 -43.5t-39.5 -19.5t-31.5 19.5t-3.5 43.5t22 43.5t40 19.5zM537 700q23 0 31 -19.5t3 -43.5t-21.5 -43.5t-39.5 -19.5t-31.5 19.5t-3.5 43.5t22 43.5
t40 19.5z" />
    <glyph glyph-name="dcroat" unicode="&#x111;" 
d="M271 461h-54l13 60h174q114 0 152.5 -56.5t8.5 -197.5q-11 -54 -23.5 -91t-33.5 -72.5t-48.5 -57t-69.5 -34t-97 -12.5h-174l13 60h54l36 171h-54l13 60h54zM407 461h-69l-36 -170h79l-13 -60h-79l-36 -171h71q67 0 106 45t63 155q19 79 11.5 123.5t-30.5 61t-67 16.5z
" />
    <glyph glyph-name="Hbar" unicode="&#x126;" 
d="M485 387l24 110h-206l-24 -110h206zM315 557h206l24 110h67l-24 -110h65l-12 -60h-65l-106 -497h-67l70 327h-206l-70 -327h-67l106 497h-65l12 60h65l24 110h67z" />
    <glyph glyph-name="hbar" unicode="&#x127;" 
d="M484 382h-206l-16 -77h206zM455 245h-206l-52 -245h-67l81 382h-70l13 60h70l17 79h67l-17 -79h206l17 79h67l-17 -79h70l-13 -60h-70l-81 -382h-67z" />
    <glyph glyph-name="dotlessi" unicode="&#x131;" 
d="M193 0l13 60h73l85 401h-73l13 60h214l-13 -60h-74l-85 -401h74l-13 -60h-214z" />
    <glyph glyph-name="IJ" unicode="&#x132;" 
d="M26 0l13 60h74l116 547h-74l13 60h215l-13 -60h-74l-116 -547h74l-13 -60h-215zM300 242h67q-26 -111 -15 -149.5t56 -38.5q28 0 49 14.5t34 42t19 47t12 49.5l98 460h67l-101 -473q-44 -203 -189 -203q-38 0 -61 8.5t-39 34t-15 77t18 131.5z" />
    <glyph glyph-name="ij" unicode="&#x133;" 
d="M23 0l13 60h63l85 401h-63l13 60h194l-13 -60h-64l-85 -401h64l-13 -60h-194zM290 242h67l-12 -60q-26 -128 53 -128q82 0 111 137l70 330h67l-71 -335q-42 -195 -188 -195q-148 0 -112 178z" />
    <glyph glyph-name="kgreenlandic" unicode="&#x138;" 
d="M340 521l-47 -222h25l162 167q44 46 81 56q30 8 80 8l-12 -55q-39 2 -64 -9q-16 -7 -51 -42l-145 -149l151 -245l-60 -43l-156 257h-23l-52 -244h-67l111 521h67z" />
    <glyph glyph-name="Ldot" unicode="&#x13f;" 
d="M169 0l142 667h67l-129 -607h274l-13 -60h-341zM519 304l27 128h82l-27 -128h-82z" />
    <glyph glyph-name="ldot" unicode="&#x140;" 
d="M170 0l111 521h67l-98 -461h273l-13 -60h-340zM508 228l27 123h82l-27 -123h-82z" />
    <glyph glyph-name="Lslash" unicode="&#x141;" 
d="M248 304l-108 -37l14 66l108 38l63 296h67l-58 -271l107 38l-14 -67l-107 -38l-57 -269h274l-13 -60h-341z" />
    <glyph glyph-name="lslash" unicode="&#x142;" 
d="M348 521l-39 -183l187 65l-15 -67l-186 -65l-45 -211h273l-13 -60h-340l52 246l-94 -33l15 67l94 33l44 208h67z" />
    <glyph glyph-name="napostrophe" unicode="&#x149;" 
d="M231 667h92l-10 -45q-11 -49 -51.5 -93t-93.5 -69l-12 55q49 28 62 91zM212 0l111 521h83l108 -439l3 2l23 135l64 302h67l-111 -521h-83l-109 439l-2 -2l-23 -136l-64 -301h-67z" />
    <glyph glyph-name="Eng" unicode="&#x14a;" 
d="M299 500l-106 -500h-67l142 667h67l-9 -40q51 49 126 49q35 0 60.5 -7.5t41 -18.5t24 -30t11.5 -36.5t1 -44t-5 -45t-9 -47.5l-69 -324q-8 -36 -13.5 -56.5t-22 -52.5t-38 -50t-61 -33t-92.5 -18l13 63q73 3 100.5 30t46.5 117l69 324q21 106 4.5 136t-85.5 30
q-90 0 -129 -113z" />
    <glyph glyph-name="eng" unicode="&#x14b;" 
d="M304 521l-8 -38q56 47 125 47q40 0 67.5 -12.5t40.5 -37.5t19 -51t2.5 -64.5t-8 -66t-12.5 -66.5q-6 -30 -8.5 -41.5t-10.5 -42.5t-14 -46t-18 -42.5t-23.5 -42t-29.5 -33.5t-38 -28.5t-47 -16.5t-57 -7l12 60q33 0 53 6.5t41.5 30.5t39 73t34.5 131q22 94 16.5 146.5
t-25 71.5t-57.5 19q-40 0 -78 -25.5t-46 -64.5l-81 -380h-67l111 521h67z" />
    <glyph glyph-name="OE" unicode="&#x152;" 
d="M457 667h216l-13 -60h-154l-47 -220h142l-12 -60h-142l-57 -267h154l-13 -60h-220q-8 -3 -26 -7q-18 -2 -27 -2q-32 0 -56.5 10t-40 24.5t-25 39.5t-14.5 45t-4.5 52t1.5 50.5t6.5 50t7.5 40.5t7 32q71 341 259 341q41 0 58 -9zM326 73l111 524q-15 16 -52 16
q-27 0 -47.5 -9.5t-43.5 -36.5t-44 -85t-40 -147q-11 -50 -16.5 -85.5t-7 -75t5.5 -64t25.5 -40.5t48.5 -16q32 0 60 19z" />
    <glyph glyph-name="oe" unicode="&#x153;" 
d="M414 521h238l-13 -60h-178l-33 -156h146l-13 -60h-146l-39 -185h178l-13 -60h-238q-9 -3 -27 -7q-18 -2 -27 -2q-54 0 -88 24t-45.5 65t-11.5 85t11 95q31 143 99.5 206.5t143.5 63.5q34 0 56 -9zM310 68l82 385q-20 14 -48 14q-113 0 -159 -207q-43 -206 71 -206
q29 0 54 14z" />
    <glyph glyph-name="Scaron" unicode="&#x160;" 
d="M440 173q3 16 4 30t-3 26.5t-6 21.5t-12 19.5t-14.5 16t-19 16t-19.5 13.5t-23 15q-21 14 -32 22t-25.5 21t-21 25t-12 28t-5 35.5t5.5 43.5q15 70 68.5 120t122.5 50q125 0 125 -151l-68 -10q0 98 -71 98q-44 0 -72 -30.5t-38 -76.5q-9 -42 5.5 -65t81.5 -69
q21 -14 33.5 -24t28 -25t22 -27.5t14 -31.5t5 -38t-5.5 -47q-17 -82 -72 -135t-136 -53q-153 0 -132 184l69 9q-3 -38 -1 -66.5t21.5 -46t57.5 -17.5q45 0 79 30.5t46 88.5zM339 833l114 -62l141 62l15 -36l-172 -102l-130 102z" />
    <glyph glyph-name="scaron" unicode="&#x161;" 
d="M162 146l64 19q-2 -111 90 -111q43 0 75.5 23t41.5 65q2 10 2.5 19.5t-2.5 17t-5 13.5t-9 12t-10.5 9.5t-13.5 8.5l-14 7t-16 7.5t-15 6.5q-5 2 -20.5 9t-21 9.5t-18 9.5t-17.5 10.5t-14.5 11.5t-13 14.5t-8.5 16t-6 19.5t-0.5 23t3.5 27q13 63 65 100t117 37
q125 0 131 -131l-68 -19q-2 87 -78 87q-35 0 -63.5 -18t-35.5 -51q-5 -23 1.5 -39t17.5 -24t33 -18l101 -49q64 -41 46 -122q-15 -73 -69.5 -114t-128.5 -41q-71 0 -107.5 42t-33.5 113zM319 707l114 -62l141 62l15 -36l-172 -102l-130 102z" />
    <glyph glyph-name="Tbar" unicode="&#x166;" 
d="M605 607h-141l-48 -224h118l-12 -60h-118l-69 -323h-67l69 323h-118l12 60h118l48 224h-144l13 60h352z" />
    <glyph glyph-name="tbar" unicode="&#x167;" 
d="M574 461h-141l-31 -147h100l-13 -60h-100l-54 -254h-67l54 254h-100l13 60h100l31 147h-144l13 60h352z" />
    <glyph glyph-name="Ydieresis" unicode="&#x178;" 
d="M372 341l217 339l56 -25l-256 -392l-56 -263h-67l56 263l-89 392l68 25zM373 826q23 0 31 -19.5t3 -43.5t-21.5 -43.5t-39.5 -19.5t-31.5 19.5t-3.5 43.5t22 43.5t40 19.5zM557 826q23 0 31 -19.5t3 -43.5t-21.5 -43.5t-39.5 -19.5t-31.5 19.5t-3.5 43.5t22 43.5t40 19.5
z" />
    <glyph glyph-name="Zcaron" unicode="&#x17d;" 
d="M104 0l412 607h-254l13 60h355l-411 -607h290l-13 -60h-392zM339 833l114 -62l141 62l15 -36l-172 -102l-130 102z" />
    <glyph glyph-name="zcaron" unicode="&#x17e;" 
d="M104 0l371 461h-244l13 60h355l-369 -461h279l-13 -60h-392zM319 707l114 -62l141 62l15 -36l-172 -102l-130 102z" />
    <glyph glyph-name="florin" unicode="&#x192;" 
d="M466 494l-35 -103h96l-13 -60h-103l-97 -292l-4 -11q-3 -10 -5 -16.5t-7.5 -20.5t-11 -23.5t-14.5 -23.5t-18.5 -24t-23 -21t-27.5 -17.5t-32.5 -11t-38.5 -4.5h-51l12 60h43q25 0 43.5 8.5t31.5 28t20 36.5t18 49l94 283h-107l13 60h114l38 112q22 67 46 100
q52 73 137 73h51l-13 -60h-43q-25 0 -43.5 -8.5t-31.5 -28t-20 -36.5t-18 -49z" />
    <glyph glyph-name="circumflex" unicode="&#x2c6;" 
d="M430 613l-140 -62l-16 36l172 102l130 -102l-31 -36z" />
    <glyph glyph-name="caron" unicode="&#x2c7;" 
d="M319 687l114 -62l141 62l15 -36l-172 -102l-130 102z" />
    <glyph glyph-name="uni02C9" unicode="&#x2c9;" 
d="M569 586h-287l12 60h287z" />
    <glyph glyph-name="breve" unicode="&#x2d8;" 
d="M537 682h60q-14 -61 -60.5 -92.5t-110.5 -31.5q-72 0 -108.5 28.5t-24.5 95.5h60q-10 -39 12 -56.5t64 -17.5q93 0 108 74z" />
    <glyph glyph-name="dotaccent" unicode="&#x2d9;" 
d="M445 680q23 0 31 -19.5t3 -43.5t-21.5 -43.5t-39.5 -19.5t-31.5 19.5t-3.5 43.5t22 43.5t40 19.5z" />
    <glyph glyph-name="ring" unicode="&#x2da;" 
d="M445 681q36 0 56 -25.5t12 -60.5q-8 -36 -38.5 -61.5t-66.5 -25.5t-56 25.5t-13 61.5q8 35 39 60.5t67 25.5zM436 641q-19 0 -36 -13.5t-21 -32.5t6.5 -33t30.5 -14q19 0 35.5 13.5t21.5 33.5q4 19 -7 32.5t-30 13.5z" />
    <glyph glyph-name="ogonek" unicode="&#x2db;" 
d="M341 -96l-13 -59q-63 -22 -101 -22q-50 0 -80 23t-20 70q14 68 109 107h98q-3 -2 -44 -24.5t-64.5 -42t-27.5 -38.5q-9 -40 39 -40q49 0 104 26z" />
    <glyph glyph-name="tilde" unicode="&#x2dc;" 
d="M548 680l47 -16q-12 -23 -20 -36.5t-22 -32t-31.5 -27.5t-38.5 -9q-32 0 -66 31q-26 26 -43 26q-7 0 -14 -3.5t-12 -7.5t-11 -12t-9 -12.5t-8.5 -14.5t-6.5 -12l-45 19q14 23 23 36.5t24.5 31.5t33 26.5t38.5 8.5q27 0 59 -30q31 -28 46 -28q8 0 15 4t14 13t10.5 14
t9.5 17.5t7 13.5z" />
    <glyph glyph-name="hungarumlaut" unicode="&#x2dd;" 
d="M410 683l29 -58l-204 -82l-22 41zM615 683l29 -58l-204 -82l-22 41z" />
    <glyph glyph-name="Gamma" unicode="&#x393;" 
d="M302 667h333l-13 -60h-266l-129 -607h-67z" />
    <glyph glyph-name="Theta" unicode="&#x398;" 
d="M298 -9q-44 0 -83 21.5t-68.5 64t-38.5 107t8 149.5q18 84 57 152.5t86 108.5t95 61t90 21q97 0 156.5 -91.5t25.5 -251.5q-18 -83 -56.5 -150.5t-85.5 -108t-95 -62t-91 -21.5zM431 616q-69 0 -144 -73.5t-104 -209.5q-15 -82 -9 -136.5t32 -86.5t52.5 -45.5t52.5 -13.5
q28 0 62.5 16t71 48t68 89t46.5 129q14 80 7.5 134t-31 87t-51.5 47.5t-53 14.5zM259 369h237l-12 -60h-237z" />
    <glyph glyph-name="Phi" unicode="&#x3a6;" 
d="M411 680h66l-14 -62q54 0 93 -26t57 -66t24.5 -90.5t-6.5 -100.5q-15 -69 -53 -133t-101 -108.5t-134 -44.5l-14 -62h-66l13 62q-53 1 -92 26t-57.5 65t-24.5 90t7 101q15 69 53 133t101 109t134 45zM288 104l98 459q-53 0 -99 -39.5t-71.5 -90t-36.5 -102.5
q-9 -35 -6.5 -74.5t12 -73.5t36.5 -56.5t67 -22.5zM453 563l-98 -458q77 1 132.5 72.5t73.5 155.5q10 35 7.5 75.5t-12 74.5t-36.5 57t-67 23z" />
    <glyph glyph-name="uni03A9" unicode="&#x3a9;" 
d="M189 51v2q-53 46 -78 135t-6 188q24 123 108 208.5t217 85.5q121 0 188 -96.5t38 -243.5q-18 -89 -74.5 -162t-125.5 -115v-2h161l-10 -51h-254l7 38q80 40 146.5 116.5t85.5 173.5q23 124 -24 208t-151 84q-76 0 -151.5 -65.5t-100.5 -192.5q-21 -105 13.5 -196.5
t96.5 -127.5l-7 -38h-254l10 51h165z" />
    <glyph glyph-name="alpha" unicode="&#x3b1;" 
d="M353 470q-41 0 -88 -58t-69 -161q-20 -94 0.5 -147t66.5 -53q43 0 92.5 64t69.5 159q6 38 6.5 81.5t-20 79t-58.5 35.5zM495 375l84 163l60 -17l-142 -252l14 -269h-66l-2 154h-2q-76 -163 -194 -163q-28 0 -53 12t-48.5 41.5t-28 79.5t8.5 127q30 138 102 208.5
t137 70.5q64 0 95 -43t33 -112h2z" />
    <glyph glyph-name="delta" unicode="&#x3b4;" 
d="M477 223q14 65 -10 116.5t-86 51.5q-61 0 -106 -54t-59 -119q-13 -62 11 -114.5t82 -52.5q62 0 108 53.5t60 118.5zM346 607l158 -199q65 -82 44 -184q-20 -92 -91 -162.5t-161 -70.5q-86 0 -126.5 70t-22.5 158q23 108 86.5 164.5t148.5 67.5l-102 135l17 81h293
l-13 -60h-231z" />
    <glyph glyph-name="epsilon" unicode="&#x3b5;" 
d="M398 310l-13 -60q-65 2 -125 -33t-70 -80q-6 -31 25.5 -58.5t101.5 -27.5q88 0 171 75l38 -45q-98 -90 -224 -90q-93 0 -144 42.5t-37 109.5q11 51 58.5 87.5t119.5 52.5q-48 17 -73.5 47t-16.5 70q11 53 72.5 91.5t136.5 38.5q100 0 140 -45l-51 -41q-11 11 -42 18.5
t-56 7.5q-115 0 -130 -68q-8 -38 24 -64.5t95 -27.5z" />
    <glyph glyph-name="uni03BC" unicode="&#x3bc;" 
d="M402 0l9 44q-48 -53 -111 -53q-64 0 -92 49l-54 -251h-67l156 732h67l-73 -344q-6 -38 -1.5 -62t19 -37.5t28 -18.5t25.5 -5q52 0 88.5 44.5t47.5 99.5l69 323h67l-111 -521h-67z" />
    <glyph glyph-name="pi" unicode="&#x3c0;" 
d="M628 437h-80l-35 -291q-11 -99 -2 -146h-64q-13 26 0 137l36 300h-168q-18 -104 -58.5 -241t-75.5 -196h-64q37 71 76.5 202t56.5 235q-78 0 -117 -14l-6 41q49 26 141 26h374z" />
    <glyph glyph-name="sigma" unicode="&#x3c3;" 
d="M640 530l-14 -63l-147 11q37 -37 48 -99.5t-4 -123.5q-12 -58 -37.5 -105t-54 -76t-60.5 -48.5t-56.5 -27t-42.5 -7.5q-46 0 -80.5 25t-49.5 64t-20 87.5t7 94.5q12 54 41.5 108.5t71.5 93.5q32 31 71 46t66 17.5t76 2.5h185zM455 265q8 29 6 64.5t-9.5 66t-29 51
t-52.5 20.5q-32 0 -61.5 -20.5t-51 -52t-36.5 -65.5t-22 -65q-18 -85 6 -147.5t78 -62.5q18 0 41 11.5t48.5 34.5t48 66.5t34.5 98.5z" />
    <glyph glyph-name="tau" unicode="&#x3c4;" 
d="M603 521l-13 -60h-154l-98 -461h-67l98 461h-69q-61 0 -98 -12l12 56q54 16 90 16h299z" />
    <glyph glyph-name="uni03D5" unicode="&#x3d5;" 
d="M283 59l85 404q-90 -27 -128 -203q-36 -175 43 -201zM428 462l-85 -403q91 27 127 201q38 175 -42 202zM460 610l-17 -80q63 -11 93.5 -76.5t3.5 -193.5q-5 -23 -10.5 -42.5t-23 -62t-38.5 -72.5t-58.5 -58t-81.5 -34l-15 -71h-60l15 71q-63 11 -94 76t-4 193t85.5 193
t127.5 77l17 80h60z" />
    <glyph glyph-name="uni2010" unicode="&#x2010;" 
d="M238 229l13 63h222l-13 -63h-222z" />
    <glyph glyph-name="endash" unicode="&#x2013;" 
d="M127 229l13 63h444l-13 -63h-444z" />
    <glyph glyph-name="emdash" unicode="&#x2014;" 
d="M49 229l13 63h600l-13 -63h-600z" />
    <glyph glyph-name="underscoredbl" unicode="&#x2017;" 
d="M600 -108h-600v36h600v-36zM600 -216h-600v36h600v-36z" />
    <glyph glyph-name="quoteleft" unicode="&#x2018;" 
d="M408 469h-92l9 45q9 48 50.5 92.5t95.5 69.5l11 -55q-48 -27 -61 -91z" />
    <glyph glyph-name="quoteright" unicode="&#x2019;" 
d="M407 667h92l-10 -45q-11 -49 -51.5 -93t-93.5 -69l-12 55q49 28 62 91z" />
    <glyph glyph-name="quotesinglbase" unicode="&#x201a;" 
d="M296 148h92l-9 -45q-9 -48 -50.5 -92.5t-95.5 -69.5l-11 55q48 27 61 91z" />
    <glyph glyph-name="quotereversed" unicode="&#x201b;" 
d="M358 667h92l-13 -61q-13 -65 22 -91l-34 -55q-43 25 -65.5 69.5t-11.5 92.5z" />
    <glyph glyph-name="quotedblleft" unicode="&#x201c;" 
d="M521 469h-92l9 45q9 48 50.5 92.5t95.5 69.5l11 -55q-48 -27 -61 -91zM335 469h-92l9 45q9 48 50.5 92.5t95.5 69.5l11 -55q-48 -27 -61 -91z" />
    <glyph glyph-name="quotedblright" unicode="&#x201d;" 
d="M321 667h92l-10 -45q-11 -49 -51.5 -93t-93.5 -69l-12 55q49 28 62 91zM507 667h92l-10 -45q-11 -49 -51.5 -93t-93.5 -69l-12 55q49 28 62 91z" />
    <glyph glyph-name="quotedblbase" unicode="&#x201e;" 
d="M210 148h92l-9 -45q-9 -48 -50.5 -92.5t-95.5 -69.5l-11 55q48 27 61 91zM396 148h92l-9 -45q-9 -48 -50.5 -92.5t-95.5 -69.5l-11 55q48 27 61 91z" />
    <glyph glyph-name="dagger" unicode="&#x2020;" 
d="M336 347l21 76l-119 -6l15 73l118 -6l29 183h85l-49 -183l120 6l-15 -73l-117 6l-11 -76l-84 -347h-57z" />
    <glyph glyph-name="daggerdbl" unicode="&#x2021;" 
d="M360 439l-122 -6l15 72l118 -6l30 168h83l-42 -168l120 6l-15 -72l-120 6l-45 -211l123 6l-16 -73l-117 7l-30 -168h-83l42 168l-121 -7l16 73l119 -6z" />
    <glyph glyph-name="bullet" unicode="&#x2022;" 
d="M234 252q0 50 36.5 86.5t86.5 36.5t86.5 -36.5t36.5 -86.5q0 -51 -36 -87t-87 -36q-52 0 -87.5 35.5t-35.5 87.5z" />
    <glyph glyph-name="ellipsis" unicode="&#x2026;" 
d="M54 0l31 148h92l-31 -148h-92zM254 0l31 148h92l-31 -148h-92zM454 0l31 148h92l-31 -148h-92z" />
    <glyph glyph-name="perthousand" unicode="&#x2030;" 
d="M345 116q16 75 -28 75t-60 -75t28 -75t60 75zM507 676l28 -21l-477 -664l-46 32l417 580q-19 -8 -42 -8q-24 0 -45 9q3 -26 -3 -53q-11 -50 -44.5 -88t-80.5 -38q-48 0 -65 38t-6 88t44.5 87.5t80.5 37.5q26 0 49 -12q35 -19 77 -19q66 0 113 31zM285 551q16 75 -28 75
t-60 -75q-16 -76 28 -76t60 76zM399 116q-11 -50 -44 -87.5t-81 -37.5t-65 37.5t-6 87.5q10 50 43 87.5t81 37.5q47 0 64.5 -37.5t7.5 -87.5zM618 116q-11 -50 -44 -87.5t-81 -37.5t-65 37.5t-6 87.5q10 50 43 87.5t81 37.5q47 0 64.5 -37.5t7.5 -87.5zM564 116
q16 75 -28 75t-60 -75t28 -75t60 75z" />
    <glyph glyph-name="guilsinglleft" unicode="&#x2039;" 
d="M517 570l37 -49l-246 -191l164 -192l-57 -50l-203 242z" />
    <glyph glyph-name="guilsinglright" unicode="&#x203a;" 
d="M325 570l203 -240l-305 -242l-37 50l246 192l-164 191z" />
    <glyph glyph-name="exclamdbl" unicode="&#x203c;" 
d="M248 207h-64l80 460h102zM380 0l31 148h92l-31 -148h-92zM502 207h-64l80 460h102zM127 0l31 148h92l-31 -148h-92z" />
    <glyph glyph-name="uni203E" unicode="&#x203e;" 
d="M520 728h-300v36h300v-36z" />
    <glyph glyph-name="fraction" unicode="&#x2044;" 
d="M607 680l46 -29l-518 -664l-47 26z" />
    <glyph glyph-name="n.superior" unicode="&#x207f;" 
d="M256 328l72 339h64l59 -273l1 1l12 75l42 197h50l-72 -339h-64l-59 271h-2l-12 -75l-41 -196h-50z" />
    <glyph glyph-name="franc" unicode="&#x20a3;" 
d="M432 283h70q38 0 64.5 25.5t36.5 70.5q17 82 -48 82h-85zM312 0l111 521h147q55 0 81.5 -35t11.5 -107q-11 -49 -43 -90.5t-72 -55.5l56 -211l-59 -35l-55 236h-71l-47 -223h-60zM56 0l142 667h268l-13 -60h-201l-47 -220h159l-12 -60h-159l-70 -327h-67z" />
    <glyph glyph-name="peseta" unicode="&#x20a7;" 
d="M437 0l57 268h-77l12 55h213l-12 -55h-76l-57 -268h-60zM197 297l-63 -297h-67l142 667h145q89 0 126.5 -46t19.5 -131q-19 -90 -75.5 -141.5t-127.5 -51.5h-100zM263 607l-53 -250h94q46 0 79 35t47 98q26 117 -90 117h-77z" />
    <glyph glyph-name="Euro" unicode="&#x20ac;" 
d="M686 623l-16 -73q-51 60 -157 60q-90 0 -153.5 -51.5t-92.5 -132.5h329l-33 -56h-316q-2 -6 -9 -34q-1 -7 -3.5 -20t-3.5 -18h288l-34 -56h-257q-5 -89 38 -138t130 -49q101 0 182 61l-16 -75q-70 -49 -188 -49q-113 0 -169 63t-49 187h-76l33 56h49q0 12 6 38q5 23 9 34
h-70l33 56h54q42 111 123.5 180t202.5 69q112 0 166 -52z" />
    <glyph glyph-name="uni2113" unicode="&#x2113;" 
d="M538 150l28 -29q-97 -125 -224 -125q-81 0 -113 50t-21 124q2 8 2 11q-9 -6 -34 -22.5t-38 -24.5l-14 39q12 8 46.5 30.5t51.5 35.5l55 262q13 63 37 110t53 72t58 36.5t59 11.5q64 0 88 -44.5t9 -110.5q-18 -87 -93.5 -172.5t-205.5 -183.5l-5 -24q-15 -73 12.5 -110.5
t77.5 -37.5q48 0 93.5 30.5t77.5 71.5zM344 512l-49 -228q101 83 161 151.5t74 136.5q23 110 -57 110q-37 0 -74 -41.5t-55 -128.5z" />
    <glyph glyph-name="trademark" unicode="&#x2122;" 
d="M725 676l-60 -282h-40l51 242h-2l-147 -242h-26l-42 242h-2l-51 -242h-40l60 282h68l38 -199l127 199h66zM392 676l-9 -40h-94l-51 -242h-40l51 242h-95l9 40h229z" />
    <glyph glyph-name="Omega" unicode="&#x2126;" 
d="M189 51v2q-53 46 -78 135t-6 188q24 123 108 208.5t217 85.5q121 0 188 -96.5t38 -243.5q-18 -89 -74.5 -162t-125.5 -115v-2h161l-10 -51h-254l7 38q80 40 146.5 116.5t85.5 173.5q23 124 -24 208t-151 84q-76 0 -151.5 -65.5t-100.5 -192.5q-21 -105 13.5 -196.5
t96.5 -127.5l-7 -38h-254l10 51h165z" />
    <glyph glyph-name="estimated" unicode="&#x212e;" 
d="M672 258h-491q-4 0 -4 -3v-149q0 -8 7 -17q77 -80 185 -80q117 0 196 90h43q-41 -49 -104 -77t-135 -28q-126 0 -214.5 79t-88.5 192t88.5 193t214.5 80t214.5 -80t88.5 -193v-7zM561 277v150q0 11 -8 17q-78 78 -184 78q-107 0 -184 -80q-8 -8 -8 -18v-147q0 -5 4 -5
h376q4 0 4 5z" />
    <glyph glyph-name="oneeighth" unicode="&#x215b;" 
d="M536 172q56 -32 45 -85q-10 -44 -49.5 -70t-85.5 -26t-75 26t-19 70q12 55 82 85q-46 33 -36 76q9 41 44.5 66.5t77.5 25.5t67.5 -25.5t16.5 -66.5q-10 -44 -68 -76zM479 144q-4 -2 -13.5 -7t-14.5 -7.5t-13 -7.5t-12 -9.5t-8 -11.5t-6 -15q-4 -21 9 -33t36 -12
q22 0 41 12t23 33q4 7 0.5 15t-4 11.5t-7 9.5t-9.5 8t-11 7t-11 7zM490 199q3 1 13.5 7t14 8.5t10.5 8t10.5 11.5t5.5 14q4 19 -5 30.5t-29 11.5t-34 -11.5t-18 -30.5q1 -10 -1 -14t4.5 -11t8 -9t10 -7.5t10.5 -7.5zM199 382l48 227l-66 -21l-8 45l150 47l-64 -298h58
l-10 -50h-192l10 50h74zM604 680l46 -29l-518 -664l-47 26z" />
    <glyph glyph-name="threeeighths" unicode="&#x215c;" 
d="M546 172q56 -32 45 -85q-10 -44 -49.5 -70t-85.5 -26t-75 26t-19 70q12 55 82 85q-46 33 -36 76q9 41 44.5 66.5t77.5 25.5t67.5 -25.5t16.5 -66.5q-10 -44 -68 -76zM489 144q-4 -2 -13.5 -7t-14.5 -7.5t-13 -7.5t-12 -9.5t-8 -11.5t-6 -15q-4 -21 9 -33t36 -12
q22 0 41 12t23 33q4 7 0.5 15t-4 11.5t-7 9.5t-9.5 8t-11 7t-11 7zM500 199q3 1 13.5 7t14 8.5t10.5 8t10.5 11.5t5.5 14q4 19 -5 30.5t-29 11.5t-34 -11.5t-18 -30.5q1 -10 -1 -14t4.5 -11t8 -9t10 -7.5t10.5 -7.5zM607 680l46 -29l-518 -664l-47 26zM402 676l-9 -42
l-103 -79q37 -4 59 -28t14 -61q-4 -19 -17.5 -40t-40.5 -45.5t-77 -38t-115 -9.5l10 50q162 -2 180 82q5 25 -13.5 35.5t-46.5 10.5q-17 0 -55 -6l9 39l109 82h-136l11 50h221z" />
    <glyph glyph-name="fiveeighths" unicode="&#x215d;" 
d="M537 172q56 -32 45 -85q-10 -44 -49.5 -70t-85.5 -26t-75 26t-19 70q12 55 82 85q-46 33 -36 76q9 41 44.5 66.5t77.5 25.5t67.5 -25.5t16.5 -66.5q-10 -44 -68 -76zM480 144q-4 -2 -13.5 -7t-14.5 -7.5t-13 -7.5t-12 -9.5t-8 -11.5t-6 -15q-4 -21 9.5 -33t35.5 -12
t41 12t23 33q4 7 0.5 15t-4 11.5t-7 9.5t-9.5 8t-11 7t-11 7zM491 199q3 1 13.5 7t14 8.5t10.5 8t10.5 11.5t5.5 14q4 19 -5 30.5t-29 11.5t-34 -11.5t-18 -30.5q1 -10 -1 -14t4.5 -11t8 -9t10 -7.5t10.5 -7.5zM149 494l39 182h209l-11 -50h-149l-15 -73q25 7 44 7
q47 0 72.5 -26.5t15.5 -72.5q-10 -47 -66 -88.5t-130 -41.5h-52l11 50h34q56 0 96 22.5t48 61.5q4 22 -8.5 33.5t-34.5 11.5q-24 0 -61 -16h-42zM596 680l46 -29l-518 -664l-47 26z" />
    <glyph glyph-name="seveneighths" unicode="&#x215e;" 
d="M524 172q56 -32 45 -85q-10 -44 -49.5 -70t-85.5 -26t-75 26t-19 70q12 55 82 85q-46 33 -36 76q9 41 44.5 66.5t77.5 25.5t67.5 -25.5t16.5 -66.5q-10 -44 -68 -76zM467 144q-4 -2 -13.5 -7t-14.5 -7.5t-13 -7.5t-12 -9.5t-8 -11.5t-6 -15q-4 -21 9.5 -33t35.5 -12
t41 12t23 33q4 7 0.5 15t-4 11.5t-7 9.5t-9.5 8t-11 7t-11 7zM478 199q3 1 13.5 7t14 8.5t10.5 8t10.5 11.5t5.5 14q4 19 -5 30.5t-29 11.5t-34 -11.5t-18 -30.5q1 -10 -1 -14t4.5 -11t8 -9t10 -7.5t10.5 -7.5zM144 350l200 276h-143l11 50h228l-249 -346zM572 680l46 -29
l-518 -664l-47 26z" />
    <glyph glyph-name="uni2190" unicode="&#x2190;" 
d="M206 382h460v-44h-460q13 -20 31 -63t18 -60q0 -16 -14 -16q-8 0 -21 20q-56 83 -125 123q-21 10 -21 18t21 18q69 40 125 123q13 20 21 20q14 0 14 -16q0 -17 -18 -60t-31 -63z" />
    <glyph glyph-name="arrowup" unicode="&#x2191;" 
d="M392 524v-460h-44v460q-20 -13 -63 -31t-60 -18q-16 0 -16 14q0 8 20 21q83 56 123 125q10 21 18 21t18 -21q40 -69 123 -125q20 -13 20 -21q0 -14 -16 -14q-17 0 -60 18t-63 31z" />
    <glyph glyph-name="uni2192" unicode="&#x2192;" 
d="M74 382h460q-13 20 -31 63t-18 60q0 16 14 16q8 0 21 -20q56 -83 125 -123q21 -10 21 -18t-21 -18q-69 -40 -125 -123q-13 -20 -21 -20q-14 0 -14 16q0 17 18 60t31 63h-460v44z" />
    <glyph glyph-name="arrowdown" unicode="&#x2193;" 
d="M392 656v-460q20 13 63 31t60 18q16 0 16 -14q0 -8 -20 -21q-83 -56 -123 -125q-10 -21 -18 -21t-18 21q-40 69 -123 125q-20 13 -20 21q0 14 16 14q17 0 60 -18t63 -31v460h44z" />
    <glyph glyph-name="arrowboth" unicode="&#x2194;" 
d="M534 338h-328q13 -20 31 -63t18 -60q0 -16 -14 -16q-8 0 -21 20q-56 83 -125 123q-21 10 -21 18t21 18q69 40 125 123q13 20 21 20q14 0 14 -16q0 -17 -18 -60t-31 -63h328q-13 20 -31 63t-18 60q0 16 14 16q8 0 21 -20q56 -83 125 -123q21 -10 21 -18t-21 -18
q-69 -40 -125 -123q-13 -20 -21 -20q-14 0 -14 16q0 17 18 60t31 63z" />
    <glyph glyph-name="arrowupdn" unicode="&#x2195;" 
d="M348 196v328q-20 -13 -63 -31t-60 -18q-16 0 -16 14q0 8 20 21q83 56 123 125q10 21 18 21t18 -21q40 -69 123 -125q20 -13 20 -21q0 -14 -16 -14q-17 0 -60 18t-63 31v-328q20 13 63 31t60 18q16 0 16 -14q0 -8 -20 -21q-83 -56 -123 -125q-10 -21 -18 -21t-18 21
q-40 69 -123 125q-20 13 -20 21q0 14 16 14q17 0 60 -18t63 -31z" />
    <glyph glyph-name="arrowupdnbse" unicode="&#x21a8;" 
d="M348 261v328q-20 -13 -63 -31t-60 -18q-16 0 -16 14q0 8 20 21q83 56 123 125q10 21 18 21t18 -21q40 -69 123 -125q20 -13 20 -21q0 -14 -16 -14q-17 0 -60 18t-63 31v-328q20 13 63 31t60 18q16 0 16 -14q0 -8 -20 -21q-83 -56 -123 -125q-10 -21 -18 -21t-18 21
q-40 69 -123 125q-20 13 -20 21q0 14 16 14q17 0 60 -18t63 -31zM531 44v-44h-322v44h322z" />
    <glyph glyph-name="partialdiff" unicode="&#x2202;" 
d="M190 643l-25 43q71 54 174 54q109 0 186 -95t77 -264q0 -103 -29 -189t-92 -142t-151 -56q-97 0 -149.5 67.5t-52.5 152.5q0 105 65.5 171t157.5 66q69 0 118.5 -36t67.5 -71h1q2 14 2 48q0 134 -60.5 216t-145.5 82q-79 0 -144 -47zM335 45h1q76 0 128 70t64 168
q-15 41 -61 79.5t-106 38.5q-69 0 -119 -54t-50 -131q0 -73 40 -122t103 -49z" />
    <glyph glyph-name="Delta" unicode="&#x2206;" 
d="M15 0l10 46l381 633h75l111 -632l-10 -47h-567zM92 51h430l-66 383q-16 101 -26 181h-4q-19 -34 -95 -163z" />
    <glyph glyph-name="product" unicode="&#x220f;" 
d="M670 609h-82v-695h-63v695h-298v-695h-63v695h-82v55h588v-55z" />
    <glyph glyph-name="summation" unicode="&#x2211;" 
d="M269 607l185 -256l-191 -291h279v-60h-344v67l184 286l-184 248v66h341v-60h-270z" />
    <glyph glyph-name="minus" unicode="&#x2212;" 
d="M634 382v-44h-532v44h532z" />
    <glyph glyph-name="uni2215" unicode="&#x2215;" 
d="M607 680l46 -29l-518 -664l-47 26z" />
    <glyph glyph-name="uni2219" unicode="&#x2219;" 
d="M313 279l23 108h92l-23 -108h-92z" />
    <glyph glyph-name="radical" unicode="&#x221a;" 
d="M668 786l-236 -924h-60l-172 443l-79 -30l-15 39l134 52l144 -377q1 -4 17 -60h1q3 17 14 61l202 796h50z" />
    <glyph glyph-name="infinity" unicode="&#x221e;" 
d="M522 125q-45 0 -80.5 29t-77.5 88q-47 -63 -67 -81q-41 -36 -94 -36q-59 0 -100.5 43.5t-41.5 106.5q0 73 44.5 112.5t103.5 39.5q67 0 127 -75q6 -7 17 -22t15 -20q40 58 75.5 87.5t85.5 29.5q58 0 97 -42t39 -106v-1q0 -68 -41.5 -110.5t-101.5 -42.5zM525 385h-1
q-53 0 -105 -69q-5 -7 -14 -19.5t-14 -18.5q41 -58 70.5 -84t64.5 -26q44 0 68 32t24 75q0 51 -26.5 80.5t-66.5 29.5zM201 385q-38 0 -65.5 -28.5t-27.5 -82.5q0 -45 27.5 -75.5t73.5 -30.5h1q16 0 31 5.5t31 21.5l23 23t24.5 31t18.5 25q-23 34 -39.5 54t-43.5 38.5
t-54 18.5z" />
    <glyph glyph-name="intersection" unicode="&#x2229;" 
d="M660 0h-44v444q0 101 -75.5 176t-170.5 75t-170.5 -75t-75.5 -176v-444h-44v433q0 127 83.5 214t206.5 87t206.5 -87t83.5 -214v-433z" />
    <glyph glyph-name="integral" unicode="&#x222b;" 
d="M526 794l-12 -43q-15 11 -40 11q-35 0 -53 -21q-38 -41 -38 -171q0 -73 7.5 -238.5t7.5 -240.5q0 -128 -46 -190q-32 -46 -95 -46q-40 0 -67 18l13 44q29 -13 50 -13q30 0 49 21q39 46 39 167q0 77 -7.5 244t-7.5 240q0 147 54 198q36 35 90 35q31 0 56 -15z" />
    <glyph glyph-name="approxequal" unicode="&#x2248;" 
d="M590 493l27 -24q-53 -93 -133 -93q-28 0 -52 9t-63 29q-7 4 -11 6q-66 35 -101 35q-34 0 -58 -19.5t-50 -56.5l-28 24q53 93 143 93q18 0 37 -5t29.5 -10t29 -15.5t23.5 -12.5q5 -3 17.5 -9t17.5 -8.5t15 -7t17 -6t16.5 -3t19.5 -1.5q32 0 56 18t48 57zM590 342l27 -25
q-53 -92 -133 -92q-28 0 -52 9t-63 29q-7 4 -11 6q-64 35 -101 35q-34 0 -58 -19.5t-50 -57.5l-28 25q53 93 143 93q15 0 28.5 -2.5t28 -8.5t21.5 -9t23 -12t18 -10q5 -3 16.5 -9t17 -8.5t15.5 -7t17 -6.5t17.5 -3.5t20.5 -1.5q32 0 55 17.5t48 57.5z" />
    <glyph glyph-name="notequal" unicode="&#x2260;" 
d="M494 556l-58 -105h199v-44h-223l-52 -93h275v-44h-298l-66 -125l-34 17l57 108h-190v44h215l51 93h-266v44h289q13 24 36 65t31 57q17 -8 34 -17z" />
    <glyph glyph-name="equivalence" unicode="&#x2261;" 
d="M636 516v-44h-532v44h532zM636 382v-44h-532v44h532zM636 248v-44h-532v44h532z" />
    <glyph glyph-name="lessequal" unicode="&#x2264;" 
d="M610 86l-482 228v44l482 228v-50l-433 -198v-2l433 -200v-50zM613 1h-491v43h491v-43z" />
    <glyph glyph-name="greaterequal" unicode="&#x2265;" 
d="M129 586l481 -228v-44l-481 -228v50l432 199v2l-432 199v50zM612 1h-489v43h489v-43z" />
    <glyph glyph-name="dotmath" unicode="&#x22c5;" 
d="M320 360q0 15 10.5 25.5t25.5 10.5t25.5 -10.5t10.5 -25.5t-10.5 -25.5t-25.5 -10.5t-25.5 10.5t-10.5 25.5z" />
    <glyph glyph-name="house" unicode="&#x2302;" 
d="M660 0h-580v406l290 169l290 -169v-406zM110 30h520v361l-260 152l-260 -152v-361z" />
    <glyph glyph-name="uni2304" unicode="&#x2304;" 
d="M180 680h50l140 -275l137 275h50l-161 -323h-52z" />
    <glyph glyph-name="revlogicalnot" unicode="&#x2310;" 
d="M144 0h-44v276h540v-44h-496v-232z" />
    <glyph glyph-name="uni2319" unicode="&#x2319;" 
d="M100 276h44v-232h496v-44h-540v276z" />
    <glyph glyph-name="integraltp" unicode="&#x2320;" 
d="M349 274v264v22v75.5t3.5 85.5t10 94.5t20 85.5t32.5 76.5t49.5 48.5t69.5 20q56 0 96 -43t40 -96q0 -58 -41 -58q-24 0 -35.5 24.5t-14 54t-16 54t-40.5 24.5q-52 0 -82 -67q-20 -46 -34 -121t-14 -130v-414h-44z" />
    <glyph glyph-name="integralbt" unicode="&#x2321;" 
d="M391 538v-264v-22v-75.5t-3.5 -85.5t-10 -94.5t-20 -85.5t-32.5 -76.5t-49.5 -48.5t-69.5 -20q-56 0 -96 43t-40 96q0 58 41 58q24 0 35.5 -24.5t14 -54t16 -54t40.5 -24.5q52 0 82 67q20 46 34 121t14 130v414h44z" />
    <glyph glyph-name="uni2500" unicode="&#x2500;" 
d="M70 216v72h600v-72h-600z" />
    <glyph glyph-name="uni2502" unicode="&#x2502;" 
d="M334 -288v1080h72v-1080h-72z" />
    <glyph glyph-name="uni250C" unicode="&#x250c;" 
d="M334 -288v576h336v-72h-264v-504h-72z" />
    <glyph glyph-name="uni2510" unicode="&#x2510;" 
d="M406 288v-576h-72v504h-264v72h336z" />
    <glyph glyph-name="uni2514" unicode="&#x2514;" 
d="M334 216v576h72v-504h264v-72h-336z" />
    <glyph glyph-name="uni2518" unicode="&#x2518;" 
d="M406 792v-576h-336v72h264v504h72z" />
    <glyph glyph-name="uni251C" unicode="&#x251c;" 
d="M334 -288v1080h72v-504h264v-72h-264v-504h-72z" />
    <glyph glyph-name="uni2524" unicode="&#x2524;" 
d="M70 216v72h264v504h72v-1080h-72v504h-264z" />
    <glyph glyph-name="uni252C" unicode="&#x252c;" 
d="M70 216v72h600v-72h-264v-504h-72v504h-264z" />
    <glyph glyph-name="uni2534" unicode="&#x2534;" 
d="M70 216v72h264v504h72v-504h264v-72h-600z" />
    <glyph glyph-name="uni253C" unicode="&#x253c;" 
d="M70 216v72h264v504h72v-504h264v-72h-264v-504h-72v504h-264z" />
    <glyph glyph-name="uni2550" unicode="&#x2550;" 
d="M70 144v72h600v-72h-600zM70 288v72h600v-72h-600z" />
    <glyph glyph-name="uni2551" unicode="&#x2551;" 
d="M262 -288v1080h72v-1080h-72zM406 -288v1080h72v-1080h-72z" />
    <glyph glyph-name="uni2552" unicode="&#x2552;" 
d="M334 -288v648h336v-72h-264v-72h264v-72h-264v-432h-72z" />
    <glyph glyph-name="uni2553" unicode="&#x2553;" 
d="M670 288v-72h-192v-504h-72v504h-72v-504h-72v576h408z" />
    <glyph glyph-name="uni2554" unicode="&#x2554;" 
d="M262 -288v648h408v-72h-336v-576h-72zM406 -288v504h264v-72h-192v-432h-72z" />
    <glyph glyph-name="uni2555" unicode="&#x2555;" 
d="M406 360v-648h-72v432h-264v72h264v72h-264v72h336z" />
    <glyph glyph-name="uni2556" unicode="&#x2556;" 
d="M70 216v72h408v-576h-72v504h-72v-504h-72v504h-192z" />
    <glyph glyph-name="uni2557" unicode="&#x2557;" 
d="M70 144v72h264v-504h-72v432h-192zM70 288v72h408v-648h-72v576h-336z" />
    <glyph glyph-name="uni2558" unicode="&#x2558;" 
d="M334 144v648h72v-432h264v-72h-264v-72h264v-72h-336z" />
    <glyph glyph-name="uni2559" unicode="&#x2559;" 
d="M262 216v576h72v-504h72v504h72v-504h192v-72h-408z" />
    <glyph glyph-name="uni255A" unicode="&#x255a;" 
d="M262 144v648h72v-576h336v-72h-408zM406 288v504h72v-432h192v-72h-264z" />
    <glyph glyph-name="uni255B" unicode="&#x255b;" 
d="M406 792v-648h-336v72h264v72h-264v72h264v432h72z" />
    <glyph glyph-name="uni255C" unicode="&#x255c;" 
d="M478 792v-576h-408v72h192v504h72v-504h72v504h72z" />
    <glyph glyph-name="uni255D" unicode="&#x255d;" 
d="M70 144v72h336v576h72v-648h-408zM70 288v72h192v432h72v-504h-264z" />
    <glyph glyph-name="uni255E" unicode="&#x255e;" 
d="M670 216v-72h-264v-432h-72v1080h72v-432h264v-72h-264v-72h264z" />
    <glyph glyph-name="uni255F" unicode="&#x255f;" 
d="M262 -288v1080h72v-1080h-72zM406 -288v1080h72v-504h192v-72h-192v-504h-72z" />
    <glyph glyph-name="uni2560" unicode="&#x2560;" 
d="M262 -288v1080h72v-1080h-72zM406 -288v504h264v-72h-192v-432h-72zM406 288v504h72v-432h192v-72h-264z" />
    <glyph glyph-name="uni2561" unicode="&#x2561;" 
d="M70 144v72h264v72h-264v72h264v432h72v-1080h-72v432h-264z" />
    <glyph glyph-name="uni2562" unicode="&#x2562;" 
d="M70 216v72h192v504h72v-1080h-72v504h-192zM406 -288v1080h72v-1080h-72z" />
    <glyph glyph-name="uni2563" unicode="&#x2563;" 
d="M406 -288v1080h72v-1080h-72zM334 792v-504h-264v72h192v432h72zM334 216v-504h-72v432h-192v72h264z" />
    <glyph glyph-name="uni2564" unicode="&#x2564;" 
d="M70 144v72h600v-72h-264v-432h-72v432h-264zM70 288v72h600v-72h-600z" />
    <glyph glyph-name="uni2565" unicode="&#x2565;" 
d="M70 216v72h600v-72h-192v-504h-72v504h-72v-504h-72v504h-192z" />
    <glyph glyph-name="uni2566" unicode="&#x2566;" 
d="M70 144v72h264v-504h-72v432h-192zM70 288v72h600v-72h-600zM406 -288v504h264v-72h-192v-432h-72z" />
    <glyph glyph-name="uni2567" unicode="&#x2567;" 
d="M70 144v72h600v-72h-600zM70 288v72h264v432h72v-432h264v-72h-600z" />
    <glyph glyph-name="uni2568" unicode="&#x2568;" 
d="M70 216v72h192v504h72v-504h72v504h72v-504h192v-72h-600z" />
    <glyph glyph-name="uni2569" unicode="&#x2569;" 
d="M70 144v72h600v-72h-600zM70 288v72h192v432h72v-504h-264zM406 288v504h72v-432h192v-72h-264z" />
    <glyph glyph-name="uni256A" unicode="&#x256a;" 
d="M70 144v72h264v72h-264v72h264v432h72v-432h264v-72h-264v-72h264v-72h-264v-432h-72v432h-264z" />
    <glyph glyph-name="uni256B" unicode="&#x256b;" 
d="M70 216v72h192v504h72v-504h72v504h72v-504h192v-72h-192v-504h-72v504h-72v-504h-72v504h-192z" />
    <glyph glyph-name="uni256C" unicode="&#x256c;" 
d="M70 144v72h264v-504h-72v432h-192zM70 288v72h192v432h72v-504h-264zM406 -288v504h264v-72h-192v-432h-72zM406 288v504h72v-432h192v-72h-264z" />
    <glyph glyph-name="upblock" unicode="&#x2580;" 
d="M70 252v540h600v-540h-600z" />
    <glyph glyph-name="dnblock" unicode="&#x2584;" 
d="M70 -288v540h600v-540h-600z" />
    <glyph glyph-name="block" unicode="&#x2588;" 
d="M70 -288v1080h600v-1080h-600z" />
    <glyph glyph-name="lfblock" unicode="&#x258c;" 
d="M70 -288v1080h300v-1080h-300z" />
    <glyph glyph-name="rtblock" unicode="&#x2590;" 
d="M370 -288v1080h300v-1080h-300z" />
    <glyph glyph-name="ltshade" unicode="&#x2591;" 
d="M70 -288v98h100v-98h-100zM270 -288v98h100v-98h-100zM470 -288v98h100v-98h-100zM70 694v98h100v-98h-100zM270 694v98h100v-98h-100zM470 694v98h100v-98h-100zM70 497v98h100v-98h-100zM270 497v98h100v-98h-100zM470 497v98h100v-98h-100zM70 -91v98h100v-98h-100z
M270 -91v98h100v-98h-100zM470 -91v98h100v-98h-100zM70 105v98h100v-98h-100zM270 105v98h100v-98h-100zM470 105v98h100v-98h-100zM70 301v98h100v-98h-100zM270 301v98h100v-98h-100zM470 301v98h100v-98h-100z" />
    <glyph glyph-name="shade" unicode="&#x2592;" 
d="M70 -288v97h99v-97h-99zM270 -288v97h99v-97h-99zM470 -288v97h99v-97h-99zM70 695v97h99v-97h-99zM270 695v97h99v-97h-99zM470 695v97h99v-97h-99zM70 499v97h99v-97h-99zM270 499v97h99v-97h-99zM470 499v97h99v-97h-99zM70 -92v97h99v-97h-99zM270 -92v97h99v-97h-99
zM470 -92v97h99v-97h-99zM70 105v97h99v-97h-99zM270 105v97h99v-97h-99zM470 105v97h99v-97h-99zM70 302v97h99v-97h-99zM270 302v97h99v-97h-99zM470 302v97h99v-97h-99zM170 597v97h99v-97h-99zM370 597v97h99v-97h-99zM570 597v97h100v-97h-100zM170 400v97h99v-97h-99z
M370 400v97h99v-97h-99zM570 400v97h100v-97h-100zM570 203v97h100v-97h-100zM370 203v97h99v-97h-99zM170 203v97h99v-97h-99zM170 6v97h99v-97h-99zM370 6v97h99v-97h-99zM570 6v97h100v-97h-100zM570 -190v97h100v-97h-100zM370 -190v97h99v-97h-99zM170 -190v97h99v-97
h-99z" />
    <glyph glyph-name="dkshade" unicode="&#x2593;" 
d="M208 -92h-138v97h138v-97zM270 -190h-138v97h138v-97zM270 6h-138v97h138v-97zM208 -288h-138v97h138v-97zM408 -92h-138v97h138v-97zM470 -190h-138v97h138v-97zM470 6h-138v97h138v-97zM408 -288h-138v97h138v-97zM608 -92h-138v97h138v-97zM670 -190h-138v97h138v-97z
M670 6h-138v97h138v-97zM608 -288h-138v97h138v-97zM270 597h-138v97h138v-97zM208 695h-138v97h138v-97zM208 499h-138v97h138v-97zM470 597h-138v97h138v-97zM408 695h-138v97h138v-97zM408 499h-138v97h138v-97zM670 597h-138v97h138v-97zM608 695h-138v97h138v-97z
M608 499h-138v97h138v-97zM208 105h-138v97h138v-97zM270 203h-138v97h138v-97zM408 105h-138v97h138v-97zM470 203h-138v97h138v-97zM608 105h-138v97h138v-97zM670 203h-138v97h138v-97zM208 302h-138v97h138v-97zM270 400h-138v97h138v-97zM408 302h-138v97h138v-97z
M470 400h-138v97h138v-97zM608 302h-138v97h138v-97zM670 400h-138v97h138v-97z" />
    <glyph glyph-name="uni25A0" unicode="&#x25a0;" 
d="M170 100v400h400v-400h-400z" />
    <glyph glyph-name="filledrect" unicode="&#x25ac;" 
d="M170 260v200h400v-200h-400z" />
    <glyph glyph-name="triagup" unicode="&#x25b2;" 
d="M116 122l254 474l254 -474h-508z" />
    <glyph glyph-name="uni25B6" unicode="&#x25b6;" 
d="M133 106v508l474 -254z" />
    <glyph glyph-name="triagdn" unicode="&#x25bc;" 
d="M370 122l-254 474h508z" />
    <glyph glyph-name="uni25C0" unicode="&#x25c0;" 
d="M607 614v-508l-474 254z" />
    <glyph glyph-name="lozenge" unicode="&#x25ca;" 
d="M597 334l-215 -377h-51l-213 377l214 378h51zM538 333l-161 283q-12 21 -20 45h-2q-9 -26 -20 -45l-159 -280l162 -285q14 -25 18 -44h4q7 25 18 44z" />
    <glyph glyph-name="circle" unicode="&#x25cb;" 
d="M141 252q0 94 67.5 161.5t161.5 67.5t161.5 -67.5t67.5 -161.5t-67.5 -161.5t-161.5 -67.5t-161.5 67.5t-67.5 161.5zM183 252q0 -77 55 -132t132 -55t132 55t55 132t-55 132t-132 55t-132 -55t-55 -132z" />
    <glyph glyph-name="invbullet" unicode="&#x25d8;" 
d="M70 -288v1080h600v-1080h-600zM247 252q0 -52 35.5 -87.5t87.5 -35.5q51 0 87 36t36 87q0 50 -36.5 86.5t-86.5 36.5t-86.5 -36.5t-36.5 -86.5z" />
    <glyph glyph-name="invcircle" unicode="&#x25d9;" 
d="M70 -288v1080h600v-1080h-600zM141 252q0 -94 67.5 -161.5t161.5 -67.5t161.5 67.5t67.5 161.5t-67.5 161.5t-161.5 67.5t-161.5 -67.5t-67.5 -161.5zM183 252q0 77 55 132t132 55t132 -55t55 -132t-55 -132t-132 -55t-132 55t-55 132z" />
    <glyph glyph-name="smileface" unicode="&#x263a;" 
d="M80 330q0 122 84 206t206 84t206 -84t84 -206t-84 -206t-206 -84t-206 84t-84 206zM370 605q-115 0 -194.5 -79.5t-79.5 -195.5t79.5 -195.5t194.5 -79.5t194.5 79.5t79.5 195.5t-79.5 195.5t-194.5 79.5zM202 429q0 21 14.5 35.5t35.5 14.5t35.5 -14.5t14.5 -35.5
t-14.5 -35.5t-35.5 -14.5t-35.5 14.5t-14.5 35.5zM438 429q0 21 14.5 35.5t35.5 14.5t35.5 -14.5t14.5 -35.5t-14.5 -35.5t-35.5 -14.5t-35.5 14.5t-14.5 35.5zM370 110q-89 0 -140 62q-26 31 -16 60q5 17 15 7q1 -2 3 -5q50 -90 138 -90t138 90q9 16 17 2q11 -21 -7 -52
q-3 -6 -8 -12q-51 -62 -140 -62z" />
    <glyph glyph-name="invsmileface" unicode="&#x263b;" 
d="M80 330q0 122 84 206t206 84t206 -84t84 -206t-84 -206t-206 -84t-206 84t-84 206zM202 429q0 -21 14.5 -35.5t35.5 -14.5t35.5 14.5t14.5 35.5t-14.5 35.5t-35.5 14.5t-35.5 -14.5t-14.5 -35.5zM438 429q0 -21 14.5 -35.5t35.5 -14.5t35.5 14.5t14.5 35.5t-14.5 35.5
t-35.5 14.5t-35.5 -14.5t-14.5 -35.5zM370 110q89 0 140 62q26 31 16 60q-5 17 -15 7q-1 -2 -3 -5q-50 -90 -138 -90t-138 90q-9 16 -17 2q-11 -21 7 -52q3 -6 8 -12q51 -62 140 -62z" />
    <glyph glyph-name="sun" unicode="&#x263c;" 
d="M588 513l-88 -88q29 -32 36 -90h124v-32h-125q-7 -52 -38 -84l88 -88l-23 -23l-87 87q-36 -34 -89 -42v-123h-32v123q-58 8 -89 37l-87 -87l-22 23l87 87q-34 37 -39 90h-124v32h124q-1 57 35 96l-87 87l22 24l88 -88q35 27 92 31v125h32v-125q48 -2 91 -37l88 87z
M236 319q0 -58 36 -96t95 -38q61 0 99.5 38.5t37.5 95.5q-1 58 -38.5 96t-97.5 38q-60 -1 -96 -39t-36 -95z" />
    <glyph glyph-name="female" unicode="&#x2640;" 
d="M388 0h-36v171h-126v36h126v109q-65 11 -104.5 57t-39.5 107q0 67 47.5 113.5t114.5 46.5q68 0 115 -46.5t47 -113.5q0 -61 -39 -107t-105 -57v-109h126v-36h-126v-171zM240 478q0 -55 37.5 -92.5t91.5 -37.5q55 0 93 37.5t38 92.5t-38 92.5t-93 37.5q-54 0 -91.5 -37.5
t-37.5 -92.5z" />
    <glyph glyph-name="male" unicode="&#x2642;" 
d="M375 140q39 39 38.5 92t-38.5 91q-39 40 -92.5 40t-91.5 -39q-39 -39 -39 -91.5t40 -92.5q38 -38 91 -38.5t92 38.5zM385 359l170 171l-104 38v2h170v-170h-2l-39 104l-170 -170q38 -55 33.5 -115t-47.5 -103q-47 -47 -114 -46t-114 48q-48 48 -48 114t47 113
q43 44 102.5 48.5t115.5 -34.5z" />
    <glyph glyph-name="spade" unicode="&#x2660;" 
d="M612 0h-484l4 22q229 7 229 247h-2q-22 -50 -62 -80t-93 -30t-92 37.5t-39 90.5q0 37 22 75t39.5 55.5t60.5 54.5q7 7 11 10q69 59 108 109.5t55 120.5h2q16 -70 55 -120.5t108 -109.5q71 -61 93 -89q40 -52 40 -106q0 -53 -39 -90.5t-92 -37.5t-93 30t-62 80h-2
q0 -240 229 -247z" />
    <glyph glyph-name="uni2662" unicode="&#x2662;" 
d="M370 712q108 -166 297 -362q-189 -196 -297 -362q-108 166 -297 362q189 196 297 362zM370 11q94 147 277 339q-183 192 -277 339q-94 -147 -277 -339q183 -192 277 -339z" />
    <glyph glyph-name="club" unicode="&#x2663;" 
d="M573 0h-406l6 21q46 11 77 26t59 44.5t42 80t14 124.5h-2q-18 -54 -60 -96t-93 -42q-62 0 -99.5 49t-37.5 113q0 55 30.5 107.5t78.5 52.5q38 0 86 -30q-32 62 -32 106q0 59 36.5 107.5t97.5 48.5t97.5 -48.5t36.5 -107.5q0 -44 -32 -106q48 30 86 30q48 0 78.5 -52.5
t30.5 -107.5q0 -64 -37.5 -113t-99.5 -49q-51 0 -93 42t-60 96h-2q0 -74 14 -124.5t42 -80t59 -44.5t77 -26z" />
    <glyph glyph-name="heart" unicode="&#x2665;" 
d="M371 -12h-2q-13 56 -46 118.5t-58.5 99.5t-75.5 104q-34 45 -55.5 78.5t-41 82.5t-19.5 92q0 63 40.5 106t103.5 43q56 0 98 -43.5t54 -101.5h2q12 58 54 101.5t98 43.5q63 0 103.5 -43t40.5 -106q0 -61 -31.5 -121.5t-84.5 -131.5q-50 -67 -75.5 -104t-58.5 -99.5
t-46 -118.5z" />
    <glyph glyph-name="diamond" unicode="&#x2666;" 
d="M370 712q108 -166 297 -362q-189 -196 -297 -362q-108 166 -297 362q189 196 297 362z" />
    <glyph glyph-name="musicalnote" unicode="&#x266a;" 
d="M331 181v531h44v-63l23 -29l39 -46q102 -120 102 -246q0 -98 -59 -166h-29q43 73 43 154q0 61 -31.5 116.5t-87.5 64.5v-314q0 -84 -43 -128.5t-112 -44.5q-32 0 -50.5 16.5t-18.5 47.5q0 47 38.5 82.5t85.5 35.5q31 0 56 -11z" />
    <glyph glyph-name="uni266C" unicode="&#x266c;" 
d="M570 202v280l-309 -93v-241q0 -87 -43 -131t-113 -44q-31 0 -50 16.5t-19 46.5q0 48 38.5 83t86.5 35q31 0 56 -11v469l397 112v-517q0 -87 -43 -131t-113 -44q-31 0 -50 16.5t-19 46.5q0 48 38.5 83t86.5 35q31 0 56 -11zM261 468l309 94v72l-309 -94v-72z" />
    <glyph glyph-name="uni0044_uni004D" unicode="&#xe007;" 
d="M517 667l10 -273h2l126 273h79l-142 -667h-60l114 536h-2l-154 -325h-2l-16 325h-2l-114 -536h-60l142 667h79zM175 607h-39l13 60h126q38 0 61.5 -14t36.5 -49.5t8.5 -102.5t-25.5 -168q-10 -45 -17.5 -76.5t-21 -74.5t-30 -71.5t-38 -56t-51 -41t-64.5 -13.5h-127
l13 60h39zM235 607l-116 -547h27q17 0 29 4t28.5 19.5t30.5 44t30 80.5t32 125q15 73 21 126t4 80.5t-10.5 43.5t-17 20t-20.5 4h-38z" />
    <glyph glyph-name="zero.slash" unicode="&#xf638;" 
d="M512 478l-280 -371q7 -25 29 -39t51 -14q30 0 49.5 7.5t43 34t43.5 85t40 152.5q5 26 13.5 74.5t12.5 68.5zM233 193l277 369q-7 24 -29 37.5t-50 13.5q-30 0 -49 -7t-42 -32.5t-42.5 -81.5t-38.5 -146q-5 -20 -28 -151v-2h2zM444 676q38 0 66 -12.5t43.5 -29.5t23 -47.5
t9.5 -53t-2.5 -60t-7.5 -54.5t-11 -50.5t-8 -35.5q-1 -4 -7.5 -35t-9 -42.5t-11 -43t-15 -47t-19 -43t-25 -42.5t-31 -34.5t-38.5 -29.5t-46.5 -17.5t-56.5 -7.5q-46 0 -77 13t-44 45t-20 54t-0.5 72.5t9 66t14.5 67.5q3 16 5 24q30 145 54 200q66 141 205 143z" />
    <glyph glyph-name="Lslash.sc" unicode="&#xf6f9;" 
d="M348 521l-39 -183l187 65l-15 -67l-186 -65l-45 -211h273l-13 -60h-340l52 246l-94 -33l15 67l94 33l44 208h67z" />
    <glyph glyph-name="OE.sc" unicode="&#xf6fa;" 
d="M414 521h238l-13 -60h-178l-33 -156h146l-13 -60h-146l-39 -185h178l-13 -60h-238q-9 -3 -27 -7q-18 -2 -27 -2q-54 0 -88 24t-45.5 65t-11.5 85t11 95q31 143 99.5 206.5t143.5 63.5q34 0 56 -9zM310 68l82 385q-20 14 -48 14q-113 0 -159 -207q-43 -206 71 -206
q29 0 54 14z" />
    <glyph glyph-name="Scaron.sc" unicode="&#xf6fd;" 
d="M162 146l64 19q-2 -111 90 -111q43 0 75.5 23t41.5 65q2 10 2.5 19.5t-2.5 17t-5 13.5t-9 12t-10.5 9.5t-13.5 8.5l-14 7t-16 7.5t-15 6.5q-5 2 -20.5 9t-21 9.5t-18 9.5t-17.5 10.5t-14.5 11.5t-13 14.5t-8.5 16t-6 19.5t-0.5 23t3.5 27q13 63 65 100t117 37
q125 0 131 -131l-68 -19q-2 87 -78 87q-35 0 -63.5 -18t-35.5 -51q-5 -23 1.5 -39t17.5 -24t33 -18l101 -49q64 -41 46 -122q-15 -73 -69.5 -114t-128.5 -41q-71 0 -107.5 42t-33.5 113zM319 707l114 -62l141 62l15 -36l-172 -102l-130 102z" />
    <glyph glyph-name="Zcaron.sc" unicode="&#xf6ff;" 
d="M104 0l371 461h-244l13 60h355l-369 -461h279l-13 -60h-392zM319 707l114 -62l141 62l15 -36l-172 -102l-130 102z" />
    <glyph glyph-name="A.sc" unicode="&#xf761;" 
d="M423 142h-185l-82 -155l-61 24l273 510h86l55 -510l-71 -24zM417 202l-23 241l-125 -241h148z" />
    <glyph glyph-name="B.sc" unicode="&#xf762;" 
d="M256 60h78q114 0 132 84q9 41 -11.5 67.5t-66.5 26.5h-94zM306 298h75q42 0 69.5 23.5t35.5 60.5q17 79 -74 79h-71zM334 0h-212l13 60h54l85 401h-54l13 60h164q189 0 159 -139q-15 -74 -82 -107q40 -13 56 -47t7 -79q-15 -71 -68 -110t-135 -39z" />
    <glyph glyph-name="C.sc" unicode="&#xf763;" 
d="M461 138l47 -38q-92 -109 -196 -109q-55 0 -90.5 24t-48 62t-15 86.5t10.5 96.5q30 141 103 205.5t149 64.5q58 0 90.5 -28t50.5 -83l-68 -31q-24 79 -86 79q-37 0 -67.5 -20t-50 -53.5t-32 -66t-19.5 -66.5q-7 -35 -9 -67t3 -66t27 -54t60 -20q42 0 73.5 21t67.5 63z
" />
    <glyph glyph-name="D.sc" unicode="&#xf764;" 
d="M217 461l13 60h174q114 0 152.5 -56.5t8.5 -197.5q-11 -54 -23.5 -91t-33.5 -72.5t-48.5 -57t-69.5 -34t-97 -12.5h-174l13 60h54l85 401h-54zM338 461l-85 -401h71q67 0 106 45t63 155q19 79 11.5 123.5t-30.5 61t-67 16.5h-69z" />
    <glyph glyph-name="E.sc" unicode="&#xf765;" 
d="M157 0l111 521h325l-13 -60h-258l-33 -156h213l-13 -60h-213l-39 -185h258l-13 -60h-325z" />
    <glyph glyph-name="F.sc" unicode="&#xf766;" 
d="M176 0l111 521h328l-13 -60h-261l-33 -156h219l-13 -60h-219l-52 -245h-67z" />
    <glyph glyph-name="G.sc" unicode="&#xf767;" 
d="M535 278l-49 -230q-84 -57 -172 -57q-55 0 -90 23.5t-48 64t-13 85.5t11 97q24 110 87.5 189.5t165.5 79.5q51 0 89 -27t56 -73l-64 -37q-30 74 -99 74q-36 0 -66 -20.5t-49 -54.5t-30.5 -66t-19.5 -67q-7 -44 -10.5 -89.5t18.5 -80.5t71 -35q53 0 103 27l29 137h-125
l13 60h192z" />
    <glyph glyph-name="H.sc" unicode="&#xf768;" 
d="M130 0l111 521h67l-46 -216h206l46 216h67l-111 -521h-67l52 245h-206l-52 -245h-67z" />
    <glyph glyph-name="I.sc" unicode="&#xf769;" 
d="M193 0l13 60h73l85 401h-73l13 60h214l-13 -60h-74l-85 -401h74l-13 -60h-214z" />
    <glyph glyph-name="J.sc" unicode="&#xf76a;" 
d="M150 194h67q-18 -76 -3 -108t67 -32q50 0 82 28t42 76l77 363h67l-80 -376q-13 -62 -66.5 -108t-134.5 -46q-84 0 -112 49t-6 154z" />
    <glyph glyph-name="K.sc" unicode="&#xf76b;" 
d="M340 521l-47 -222h25l229 235l42 -40l-220 -219l151 -245l-60 -43l-156 257h-23l-52 -244h-67l111 521h67z" />
    <glyph glyph-name="L.sc" unicode="&#xf76c;" 
d="M170 0l111 521h67l-98 -461h273l-13 -60h-340z" />
    <glyph glyph-name="M.sc" unicode="&#xf76d;" 
d="M331 147l-58 275h-2l-103 -422h-71l132 521h88l46 -226l142 226h88l-90 -521h-71l77 422h-2z" />
    <glyph glyph-name="N.sc" unicode="&#xf76e;" 
d="M126 0l111 521h83l108 -439l3 2l23 135l64 302h67l-111 -521h-83l-109 439l-2 -2l-23 -136l-64 -301h-67z" />
    <glyph glyph-name="O.sc" unicode="&#xf76f;" 
d="M413 530q34 0 61.5 -12.5t50 -43.5t26 -83t-10.5 -131q-5 -23 -11 -45t-25.5 -66.5t-44 -76t-67.5 -56.5t-94 -25q-34 0 -61.5 12.5t-50.5 43.5t-26.5 83t10.5 130q30 142 98.5 206t144.5 64zM399 467q-113 0 -159 -207q-43 -206 71 -206q36 0 65 20.5t47 55t29 65.5
t18 65q8 34 10.5 65.5t-1.5 66t-24 55t-56 20.5z" />
    <glyph glyph-name="P.sc" unicode="&#xf770;" 
d="M277 224l-48 -224h-67l111 521h162q85 0 118 -40t20 -102q-17 -77 -70 -116t-114 -39h-112zM289 284h92q100 0 120 90q10 49 -12.5 68t-69.5 19h-92z" />
    <glyph glyph-name="Q.sc" unicode="&#xf771;" 
d="M456 70l47 -54l-51 -45l-47 53q-51 -33 -107 -33q-34 0 -61.5 12.5t-50.5 43.5t-26.5 83t10.5 130q29 139 96.5 204.5t146.5 65.5q34 0 61.5 -12.5t50 -43.5t26 -83t-10.5 -131q-27 -125 -84 -190zM366 68l-70 79l51 46l68 -77q38 60 55 144q8 34 10.5 65.5t-1.5 66
t-24 55t-56 20.5q-113 0 -159 -207q-43 -206 71 -206q29 0 55 14z" />
    <glyph glyph-name="R.sc" unicode="&#xf772;" 
d="M276 283h88q50 0 84.5 26t44.5 70q8 37 -10 59.5t-61 22.5h-108zM149 0l111 521h177q70 0 105.5 -35t20.5 -107q-11 -49 -49 -90.5t-88 -55.5l83 -211l-66 -35l-83 236h-97l-47 -223h-67z" />
    <glyph glyph-name="S.sc" unicode="&#xf773;" 
d="M162 146l64 19q-2 -111 90 -111q43 0 75.5 23t41.5 65q2 10 2.5 19.5t-2.5 17t-5 13.5t-9 12t-10.5 9.5t-13.5 8.5l-14 7t-16 7.5t-15 6.5q-5 2 -20.5 9t-21 9.5t-18 9.5t-17.5 10.5t-14.5 11.5t-13 14.5t-8.5 16t-6 19.5t-0.5 23t3.5 27q13 63 65 100t117 37
q125 0 131 -131l-68 -19q-2 87 -78 87q-35 0 -63.5 -18t-35.5 -51q-5 -23 1.5 -39t17.5 -24t33 -18l101 -49q64 -41 46 -122q-15 -73 -69.5 -114t-128.5 -41q-71 0 -107.5 42t-33.5 113z" />
    <glyph glyph-name="T.sc" unicode="&#xf774;" 
d="M268 0l98 461h-144l13 60h352l-13 -60h-141l-98 -461h-67z" />
    <glyph glyph-name="U.sc" unicode="&#xf775;" 
d="M248 521h67l-76 -355q-12 -59 2.5 -85.5t64.5 -26.5q60 0 86.5 26t39.5 86l76 355h67l-83 -387q-13 -58 -63.5 -100.5t-130.5 -42.5t-112.5 42.5t-19.5 104.5z" />
    <glyph glyph-name="V.sc" unicode="&#xf776;" 
d="M332 152l224 382l58 -24l-311 -523h-12l-89 523l70 24z" />
    <glyph glyph-name="W.sc" unicode="&#xf777;" 
d="M205 526l71 8l-38 -366h2l141 256h18l33 -256h2l119 366l66 -8l-190 -539h-23l-41 321l-177 -321h-23z" />
    <glyph glyph-name="X.sc" unicode="&#xf778;" 
d="M346 217l-188 -230l-53 34l216 255l-100 223l69 35l81 -198l167 198l53 -35l-194 -223l106 -255l-67 -34z" />
    <glyph glyph-name="Y.sc" unicode="&#xf779;" 
d="M357 266l196 268l55 -33l-232 -300l-43 -201h-67l43 201l-105 300l71 33z" />
    <glyph glyph-name="Z.sc" unicode="&#xf77a;" 
d="M104 0l371 461h-244l13 60h355l-369 -461h279l-13 -60h-392z" />
    <glyph glyph-name="Agrave.sc" unicode="&#xf7e0;" 
d="M423 142h-185l-82 -155l-61 24l273 510h86l55 -510l-71 -24zM417 202l-23 241l-125 -241h148zM384 715l155 -101l-35 -44l-170 82z" />
    <glyph glyph-name="Aacute.sc" unicode="&#xf7e1;" 
d="M423 142h-185l-82 -155l-61 24l273 510h86l55 -510l-71 -24zM417 202l-23 241l-125 -241h148zM525 715l22 -63l-204 -82l-17 44z" />
    <glyph glyph-name="Acircumflex.sc" unicode="&#xf7e2;" 
d="M423 142h-185l-82 -155l-61 24l273 510h86l55 -510l-71 -24zM417 202l-23 241l-125 -241h148zM430 633l-140 -62l-16 36l172 102l130 -102l-31 -36z" />
    <glyph glyph-name="Atilde.sc" unicode="&#xf7e3;" 
d="M423 142h-185l-82 -155l-61 24l273 510h86l55 -510l-71 -24zM417 202l-23 241l-125 -241h148zM548 700l47 -16q-12 -23 -20 -36.5t-22 -32t-31.5 -27.5t-38.5 -9q-32 0 -66 31q-26 26 -43 26q-7 0 -14 -3.5t-12 -7.5t-11 -12t-9 -12.5t-8.5 -14.5t-6.5 -12l-45 19
q14 23 23 36.5t24.5 31.5t33 26.5t38.5 8.5q27 0 59 -30q31 -28 46 -28q8 0 15 4t14 13t10.5 14t9.5 17.5t7 13.5z" />
    <glyph glyph-name="Adieresis.sc" unicode="&#xf7e4;" 
d="M423 142h-185l-82 -155l-61 24l273 510h86l55 -510l-71 -24zM417 202l-23 241l-125 -241h148zM353 700q23 0 31 -19.5t3 -43.5t-21.5 -43.5t-39.5 -19.5t-31.5 19.5t-3.5 43.5t22 43.5t40 19.5zM537 700q23 0 31 -19.5t3 -43.5t-21.5 -43.5t-39.5 -19.5t-31.5 19.5
t-3.5 43.5t22 43.5t40 19.5z" />
    <glyph glyph-name="Aring.sc" unicode="&#xf7e5;" 
d="M423 142h-185l-82 -155l-61 24l273 510h86l55 -510l-71 -24zM417 202l-23 241l-125 -241h148zM445 701q36 0 56 -25.5t12 -60.5q-8 -36 -38.5 -61.5t-66.5 -25.5t-56 25.5t-13 61.5q8 35 39 60.5t67 25.5zM436 661q-19 0 -36 -13.5t-21 -32.5t6.5 -33t30.5 -14
q19 0 35.5 13.5t21.5 33.5q4 19 -7 32.5t-30 13.5z" />
    <glyph glyph-name="AE.sc" unicode="&#xf7e6;" 
d="M334 202l55 259h-42l-131 -259h118zM291 0l30 142h-137l-81 -155l-61 24l273 510h332l-13 -60h-178l-33 -156h145l-13 -60h-145l-39 -185h178l-13 -60h-245z" />
    <glyph glyph-name="Ccedilla.sc" unicode="&#xf7e7;" 
d="M461 138l47 -38q-82 -97 -170 -107l-19 -35q34 -2 53 -20t12 -51q-7 -34 -40.5 -55.5t-68.5 -21.5q-38 0 -96 29l31 51q36 -20 69 -20q31 0 36 20q2 9 -3 15.5t-16.5 9.5t-20.5 4.5t-23 2t-16 0.5l42 72q-57 9 -87.5 51t-31.5 97.5t10 117.5q30 141 103 205.5t149 64.5
q58 0 90.5 -28t50.5 -83l-68 -31q-24 79 -86 79q-37 0 -67.5 -20t-50 -53.5t-32 -66t-19.5 -66.5q-7 -35 -9 -67t3 -66t27 -54t60 -20q42 0 73.5 21t67.5 63z" />
    <glyph glyph-name="Egrave.sc" unicode="&#xf7e8;" 
d="M157 0l111 521h325l-13 -60h-258l-33 -156h213l-13 -60h-213l-39 -185h258l-13 -60h-325zM384 715l155 -101l-35 -44l-170 82z" />
    <glyph glyph-name="Eacute.sc" unicode="&#xf7e9;" 
d="M157 0l111 521h325l-13 -60h-258l-33 -156h213l-13 -60h-213l-39 -185h258l-13 -60h-325zM525 715l22 -63l-204 -82l-17 44z" />
    <glyph glyph-name="Ecircumflex.sc" unicode="&#xf7ea;" 
d="M157 0l111 521h325l-13 -60h-258l-33 -156h213l-13 -60h-213l-39 -185h258l-13 -60h-325zM430 633l-140 -62l-16 36l172 102l130 -102l-31 -36z" />
    <glyph glyph-name="Edieresis.sc" unicode="&#xf7eb;" 
d="M157 0l111 521h325l-13 -60h-258l-33 -156h213l-13 -60h-213l-39 -185h258l-13 -60h-325zM353 700q23 0 31 -19.5t3 -43.5t-21.5 -43.5t-39.5 -19.5t-31.5 19.5t-3.5 43.5t22 43.5t40 19.5zM537 700q23 0 31 -19.5t3 -43.5t-21.5 -43.5t-39.5 -19.5t-31.5 19.5t-3.5 43.5
t22 43.5t40 19.5z" />
    <glyph glyph-name="Igrave.sc" unicode="&#xf7ec;" 
d="M193 0l13 60h73l85 401h-73l13 60h214l-13 -60h-74l-85 -401h74l-13 -60h-214zM384 715l155 -101l-35 -44l-170 82z" />
    <glyph glyph-name="Iacute.sc" unicode="&#xf7ed;" 
d="M193 0l13 60h73l85 401h-73l13 60h214l-13 -60h-74l-85 -401h74l-13 -60h-214zM525 715l22 -63l-204 -82l-17 44z" />
    <glyph glyph-name="Icircumflex.sc" unicode="&#xf7ee;" 
d="M193 0l13 60h73l85 401h-73l13 60h214l-13 -60h-74l-85 -401h74l-13 -60h-214zM430 633l-140 -62l-16 36l172 102l130 -102l-31 -36z" />
    <glyph glyph-name="Idieresis.sc" unicode="&#xf7ef;" 
d="M193 0l13 60h73l85 401h-73l13 60h214l-13 -60h-74l-85 -401h74l-13 -60h-214zM353 700q23 0 31 -19.5t3 -43.5t-21.5 -43.5t-39.5 -19.5t-31.5 19.5t-3.5 43.5t22 43.5t40 19.5zM537 700q23 0 31 -19.5t3 -43.5t-21.5 -43.5t-39.5 -19.5t-31.5 19.5t-3.5 43.5t22 43.5
t40 19.5z" />
    <glyph glyph-name="Eth.sc" unicode="&#xf7f0;" 
d="M235 290l36 171h-54l13 60h174q114 0 152.5 -56.5t8.5 -197.5q-11 -54 -23.5 -91t-33.5 -72.5t-48.5 -57t-69.5 -34t-97 -12.5h-174l13 60h54l36 170h-54l13 60h54zM302 290h79l-13 -60h-79l-36 -170h71q67 0 106 45t63 155q19 79 11.5 123.5t-30.5 61t-67 16.5h-69z" />
    <glyph glyph-name="Ntilde.sc" unicode="&#xf7f1;" 
d="M126 0l111 521h83l108 -439l3 2l23 135l64 302h67l-111 -521h-83l-109 439l-2 -2l-23 -136l-64 -301h-67zM548 700l47 -16q-12 -23 -20 -36.5t-22 -32t-31.5 -27.5t-38.5 -9q-32 0 -66 31q-26 26 -43 26q-7 0 -14 -3.5t-12 -7.5t-11 -12t-9 -12.5t-8.5 -14.5t-6.5 -12
l-45 19q14 23 23 36.5t24.5 31.5t33 26.5t38.5 8.5q27 0 59 -30q31 -28 46 -28q8 0 15 4t14 13t10.5 14t9.5 17.5t7 13.5z" />
    <glyph glyph-name="Ograve.sc" unicode="&#xf7f2;" 
d="M413 530q34 0 61.5 -12.5t50 -43.5t26 -83t-10.5 -131q-5 -23 -11 -45t-25.5 -66.5t-44 -76t-67.5 -56.5t-94 -25q-34 0 -61.5 12.5t-50.5 43.5t-26.5 83t10.5 130q30 142 98.5 206t144.5 64zM399 467q-113 0 -159 -207q-43 -206 71 -206q36 0 65 20.5t47 55t29 65.5
t18 65q8 34 10.5 65.5t-1.5 66t-24 55t-56 20.5zM384 715l155 -101l-35 -44l-170 82z" />
    <glyph glyph-name="Oacute.sc" unicode="&#xf7f3;" 
d="M413 530q34 0 61.5 -12.5t50 -43.5t26 -83t-10.5 -131q-5 -23 -11 -45t-25.5 -66.5t-44 -76t-67.5 -56.5t-94 -25q-34 0 -61.5 12.5t-50.5 43.5t-26.5 83t10.5 130q30 142 98.5 206t144.5 64zM399 467q-113 0 -159 -207q-43 -206 71 -206q36 0 65 20.5t47 55t29 65.5
t18 65q8 34 10.5 65.5t-1.5 66t-24 55t-56 20.5zM525 715l22 -63l-204 -82l-17 44z" />
    <glyph glyph-name="Ocircumflex.sc" unicode="&#xf7f4;" 
d="M413 530q34 0 61.5 -12.5t50 -43.5t26 -83t-10.5 -131q-5 -23 -11 -45t-25.5 -66.5t-44 -76t-67.5 -56.5t-94 -25q-34 0 -61.5 12.5t-50.5 43.5t-26.5 83t10.5 130q30 142 98.5 206t144.5 64zM399 467q-113 0 -159 -207q-43 -206 71 -206q36 0 65 20.5t47 55t29 65.5
t18 65q8 34 10.5 65.5t-1.5 66t-24 55t-56 20.5zM430 633l-140 -62l-16 36l172 102l130 -102l-31 -36z" />
    <glyph glyph-name="Otilde.sc" unicode="&#xf7f5;" 
d="M413 530q34 0 61.5 -12.5t50 -43.5t26 -83t-10.5 -131q-5 -23 -11 -45t-25.5 -66.5t-44 -76t-67.5 -56.5t-94 -25q-34 0 -61.5 12.5t-50.5 43.5t-26.5 83t10.5 130q30 142 98.5 206t144.5 64zM399 467q-113 0 -159 -207q-43 -206 71 -206q36 0 65 20.5t47 55t29 65.5
t18 65q8 34 10.5 65.5t-1.5 66t-24 55t-56 20.5zM548 700l47 -16q-12 -23 -20 -36.5t-22 -32t-31.5 -27.5t-38.5 -9q-32 0 -66 31q-26 26 -43 26q-7 0 -14 -3.5t-12 -7.5t-11 -12t-9 -12.5t-8.5 -14.5t-6.5 -12l-45 19q14 23 23 36.5t24.5 31.5t33 26.5t38.5 8.5
q27 0 59 -30q31 -28 46 -28q8 0 15 4t14 13t10.5 14t9.5 17.5t7 13.5z" />
    <glyph glyph-name="Odieresis.sc" unicode="&#xf7f6;" 
d="M413 530q34 0 61.5 -12.5t50 -43.5t26 -83t-10.5 -131q-5 -23 -11 -45t-25.5 -66.5t-44 -76t-67.5 -56.5t-94 -25q-34 0 -61.5 12.5t-50.5 43.5t-26.5 83t10.5 130q30 142 98.5 206t144.5 64zM399 467q-113 0 -159 -207q-43 -206 71 -206q36 0 65 20.5t47 55t29 65.5
t18 65q8 34 10.5 65.5t-1.5 66t-24 55t-56 20.5zM353 700q23 0 31 -19.5t3 -43.5t-21.5 -43.5t-39.5 -19.5t-31.5 19.5t-3.5 43.5t22 43.5t40 19.5zM537 700q23 0 31 -19.5t3 -43.5t-21.5 -43.5t-39.5 -19.5t-31.5 19.5t-3.5 43.5t22 43.5t40 19.5z" />
    <glyph glyph-name="Oslash.sc" unicode="&#xf7f8;" 
d="M230 141l229 301q-19 25 -60 25q-36 0 -65 -20.5t-47 -55t-29 -65.5t-18 -66q-14 -64 -10 -119zM480 383l-230 -303q23 -26 61 -26q36 0 65 20.5t47 55t29 65.5t18 65q15 71 10 123zM502 500l29 38l44 -28l-40 -55q31 -70 5 -195q-30 -138 -97 -203.5t-145 -65.5
q-58 0 -91 32l-29 -39l-46 27l43 57q-31 67 -5 192q30 139 97 204.5t146 65.5q56 0 89 -30z" />
    <glyph glyph-name="Ugrave.sc" unicode="&#xf7f9;" 
d="M248 521h67l-76 -355q-12 -59 2.5 -85.5t64.5 -26.5q60 0 86.5 26t39.5 86l76 355h67l-83 -387q-13 -58 -63.5 -100.5t-130.5 -42.5t-112.5 42.5t-19.5 104.5zM384 715l155 -101l-35 -44l-170 82z" />
    <glyph glyph-name="Uacute.sc" unicode="&#xf7fa;" 
d="M248 521h67l-76 -355q-12 -59 2.5 -85.5t64.5 -26.5q60 0 86.5 26t39.5 86l76 355h67l-83 -387q-13 -58 -63.5 -100.5t-130.5 -42.5t-112.5 42.5t-19.5 104.5zM525 715l22 -63l-204 -82l-17 44z" />
    <glyph glyph-name="Ucircumflex.sc" unicode="&#xf7fb;" 
d="M248 521h67l-76 -355q-12 -59 2.5 -85.5t64.5 -26.5q60 0 86.5 26t39.5 86l76 355h67l-83 -387q-13 -58 -63.5 -100.5t-130.5 -42.5t-112.5 42.5t-19.5 104.5zM430 633l-140 -62l-16 36l172 102l130 -102l-31 -36z" />
    <glyph glyph-name="Udieresis.sc" unicode="&#xf7fc;" 
d="M248 521h67l-76 -355q-12 -59 2.5 -85.5t64.5 -26.5q60 0 86.5 26t39.5 86l76 355h67l-83 -387q-13 -58 -63.5 -100.5t-130.5 -42.5t-112.5 42.5t-19.5 104.5zM353 700q23 0 31 -19.5t3 -43.5t-21.5 -43.5t-39.5 -19.5t-31.5 19.5t-3.5 43.5t22 43.5t40 19.5zM537 700
q23 0 31 -19.5t3 -43.5t-21.5 -43.5t-39.5 -19.5t-31.5 19.5t-3.5 43.5t22 43.5t40 19.5z" />
    <glyph glyph-name="Yacute.sc" unicode="&#xf7fd;" 
d="M357 266l196 268l55 -33l-232 -300l-43 -201h-67l43 201l-105 300l71 33zM525 715l22 -63l-204 -82l-17 44z" />
    <glyph glyph-name="Thorn.sc" unicode="&#xf7fe;" 
d="M253 112l-24 -112h-67l111 521h67l-24 -112h95q85 0 118 -40t20 -102q-17 -77 -70 -116t-114 -39h-112zM266 172h92q100 0 120 90q10 49 -13 68t-70 19h-92z" />
    <glyph glyph-name="Ydieresis.sc" unicode="&#xf7ff;" 
d="M357 266l196 268l55 -33l-232 -300l-43 -201h-67l43 201l-105 300l71 33zM353 700q23 0 31 -19.5t3 -43.5t-21.5 -43.5t-39.5 -19.5t-31.5 19.5t-3.5 43.5t22 43.5t40 19.5zM537 700q23 0 31 -19.5t3 -43.5t-21.5 -43.5t-39.5 -19.5t-31.5 19.5t-3.5 43.5t22 43.5
t40 19.5z" />
    <glyph glyph-name="fi" unicode="&#xfb01;" 
d="M651 521l-13 -60h-73l-85 -401h73l-13 -60h-213l13 60h73l85 401h-243l-33 -156h152l-13 -60h-152l-52 -245h-67l111 521h450z" />
    <glyph glyph-name="fl" unicode="&#xfb02;" 
d="M541 521l-98 -461h160l-13 -60h-227l98 461h-220l-33 -156h152l-13 -60h-152l-52 -245h-67l111 521h354z" />
    <glyph glyph-name="f_i" 
d="M651 521l-13 -60h-73l-85 -401h73l-13 -60h-213l13 60h73l85 401h-243l-33 -156h152l-13 -60h-152l-52 -245h-67l111 521h450z" />
    <glyph glyph-name="f_l" 
d="M541 521l-98 -461h160l-13 -60h-227l98 461h-220l-33 -156h152l-13 -60h-152l-52 -245h-67l111 521h354z" />
    <glyph glyph-name="a.superior" 
d="M442 428h-102l-51 -90l-59 20l177 309h70l45 -309l-67 -20zM436 483l-13 97l-53 -97h66zM190 236l12 55h320l-12 -55h-320z" />
    <glyph glyph-name="o.superior" 
d="M190 236l12 55h320l-12 -55h-320zM444 676q66 0 88 -48t7 -117q-14 -68 -56.5 -116t-108.5 -48t-87 47.5t-7 116.5q15 70 56.5 117.5t107.5 47.5zM432 621q-61 0 -85 -110q-23 -109 38 -109q64 0 87 109q23 110 -40 110z" />
    <glyph glyph-name="one.superior" 
d="M362 382l48 227l-66 -21l-8 45l150 47l-64 -298h58l-10 -50h-192l10 50h74z" />
    <glyph glyph-name="two.superior" 
d="M260 332l8 42l165 152q2 1 5 4q33 31 38 53q4 20 -6.5 31.5t-30.5 11.5q-53 0 -75 -65l-55 7q17 51 53 79.5t87 28.5q45 0 70.5 -23.5t16.5 -67.5q-8 -38 -64 -90l-124 -113h144l-10 -50h-222z" />
    <glyph glyph-name="three.superior" 
d="M552 676l-9 -42l-103 -79q37 -4 59 -28t14 -61q-4 -19 -17.5 -40.5t-40.5 -45.5t-77 -38t-115 -10l10 50q162 -2 180 83q5 25 -13.5 35.5t-46.5 10.5q-17 0 -55 -6l9 39l109 82h-136l11 50h221z" />
    <glyph glyph-name="Hbar.sc" 
d="M484 382h-206l-16 -77h206zM455 245h-206l-52 -245h-67l81 382h-70l13 60h70l17 79h67l-17 -79h206l17 79h67l-17 -79h70l-13 -60h-70l-81 -382h-67z" />
    <glyph glyph-name="Tbar.sc" 
d="M574 461h-141l-31 -147h100l-13 -60h-100l-54 -254h-67l54 254h-100l13 60h100l31 147h-144l13 60h352z" />
    <glyph glyph-name="Eng.sc" 
d="M304 521l-8 -38q56 47 125 47q40 0 67.5 -12.5t40.5 -37.5t19 -51t2.5 -64.5t-8 -66t-12.5 -66.5q-6 -30 -8.5 -41.5t-10.5 -42.5t-14 -46t-18 -42.5t-23.5 -42t-29.5 -33.5t-38 -28.5t-47 -16.5t-57 -7l12 60q33 0 53 6.5t41.5 30.5t39 73t34.5 131q22 94 16.5 146.5
t-25 71.5t-57.5 19q-40 0 -78 -25.5t-46 -64.5l-81 -380h-67l111 521h67z" />
    <glyph glyph-name="Ldot.sc" 
d="M170 0l111 521h67l-98 -461h273l-13 -60h-340zM508 228l27 123h82l-27 -123h-82z" />
    <glyph glyph-name="IJ.sc" 
d="M23 0l13 60h63l85 401h-63l13 60h194l-13 -60h-64l-85 -401h64l-13 -60h-194zM290 242h67l-12 -60q-26 -128 53 -128q82 0 111 137l70 330h67l-71 -335q-42 -195 -188 -195q-148 0 -112 178z" />
    <glyph glyph-name="A.superior" 
d="M442 428h-102l-51 -90l-59 20l177 309h70l45 -309l-67 -20zM436 483l-13 97l-53 -97h66zM190 236l12 55h320l-12 -55h-320z" />
    <glyph glyph-name="O.superior" 
d="M190 236l12 55h320l-12 -55h-320zM444 676q66 0 88 -48t7 -117q-14 -68 -56.5 -116t-108.5 -48t-87 47.5t-7 116.5q15 70 56.5 117.5t107.5 47.5zM432 621q-61 0 -85 -110q-23 -109 38 -109q64 0 87 109q23 110 -40 110z" />
  </font>
</defs>
</svg>
