<svg xmlns="http://www.w3.org/2000/svg" width="1093.641" height="556.419" viewBox="0 0 1093.641 556.419"><defs><style>.a{fill:#f8f8f9;}.b{fill:#db9195;}.c{fill:none;stroke:#db9195;stroke-miterlimit:10;stroke-width:2px;opacity:0.8;}</style></defs><g transform="translate(-59.143 -174.326)"><path class="a" d="M334.078,263.5a36.186,36.186,0,0,0-2.365-9.055,4.1,4.1,0,0,0-2.084-2.566,4.294,4.294,0,0,0-2.068-.023l-10.615,1.624a4.069,4.069,0,0,0-2.422.941c-1.383,1.454-.021,3.8-.064,5.8-.048,2.256-2.052,4.087-4.225,4.692a15.97,15.97,0,0,1-6.714-.083l-14.843-2.307a24.474,24.474,0,0,0,11.229-7.493c1.953-2.314,2.993-6.634.17-7.73a6.929,6.929,0,0,0-2.578-.207c-6.725.052-12.017-5.563-18.313-7.928a20.248,20.248,0,0,0-22.788,6.793l7.907.381a3.51,3.51,0,0,1,2.106.562c1.733,1.424-.422,4.159-.177,6.388.317,2.9,4.163,3.515,7.062,3.808s6.577,2.648,5.182,5.207c-14.571,5.019-29.4-9.811-44.7-7.986-3.873.462-7.53,1.984-11.312,2.94-23.1,5.845-46.981-9.749-70.578-6.447a89.632,89.632,0,0,0-15.407,4.063c-3.212,1.055-6.562,2.194-8.9,4.64s-3.222,6.628-1.011,9.185a51.7,51.7,0,0,1-18.117-1.722,10.15,10.15,0,0,1,5.218,8.945,107.493,107.493,0,0,0-27.537,8.4,46.381,46.381,0,0,0,5.7,7.592l-12.044,7.738c4.069,1.025,6.173,6.574,3.807,10.039,4.219-1.877,6.834-6.733,11.346-7.717,2.956-.645,5.963.564,8.768,1.7s5.886,2.237,8.789,1.385,5.044-4.616,3.2-7.014a150.189,150.189,0,0,1,38.15-5.96,4.785,4.785,0,0,1,2.889.548c1.682,1.167,1.239,3.687,1.149,5.732s1.5,4.733,3.331,3.811c-2.15,1.865-.312,5.375,1.751,7.336s4.55,4.666,3.287,7.217c-.33.666-.889,1.2-1.206,1.87-.936,1.983.55,4.294,2.3,5.611s3.9,2.237,5.119,4.06.665,5.015-1.513,5.27l-6.19-7.86a16.116,16.116,0,0,0-4.182,7.924c6.564,5.366,7.552,16.288,2.056,22.745-2.808,3.3-6.8,5.3-10.288,7.878s-6.711,6.238-6.7,10.571c.015,7.485-.6,14.44,2.208,21.38a329.344,329.344,0,0,0,17.88,37.3c1.769,3.164,4.055,6.631,7.638,7.176q-6.793-16.537-12.23-33.588c2.361.009,5.089.2,6.473,2.109,1.146,1.584.9,3.737,1.256,5.659a17.532,17.532,0,0,0,2.236,5.256l21.625,38.521c1.793,3.193,3.849,6.621,7.275,7.914,2.191.827,4.725.671,6.741,1.861,1.58.933,2.645,2.589,4.256,3.468,4.555,2.485,10.89-2.281,15.147.686,1.217.848,1.992,2.2,3.113,3.168,3.932,3.4,10.382,1.127,14.921,3.667,2.925,1.637,4.441,4.911,6,7.878,3.908,7.432,10.232,14.713,18.608,15.3,2.631.186,5.319-.313,7.89.272s5.1,2.83,4.691,5.435c-.708,4.466,1.5,9.357.906,13.839-1.079,8.166-12.662,11.754-13.657,19.931-.218,1.79.123,3.638-.3,5.39-.523,2.148-2.135,3.9-2.709,6.031-1.086,4.046,1.812,8.072,5,10.793s6.982,5.068,8.723,8.878c1.84,4.027.936,8.722,1.535,13.109,1.306,9.577,9.578,16.676,18.091,21.254,2.594,1.395,5.378,2.745,7.057,5.165,2.191,3.158,1.973,7.321,2.7,11.095,1.792,9.241,9.571,16.855,9.792,26.266.157,6.689-3.561,12.757-5.782,19.068a44.468,44.468,0,0,0,3.631,36.88c1.661,2.806,3.649,5.451,4.824,8.492,2.1,5.427,1.417,11.6,3.351,17.085,2.557,7.256,9.582,13.248,8.91,20.912,3.19,6.624,10.233,9.878,17.315,11.849l12.693,3.533c2.43.676,4.97,1.358,7.445.869s4.837-2.545,4.773-5.067c-6.224-1.4-12.648-2.9-17.78-6.69s-8.646-10.547-6.7-16.624c.9-2.818,2.823-6.071,1-8.4-1.045-1.333-2.957-1.681-4.136-2.9-1.839-1.9-1.207-5.084.115-7.371s3.233-4.332,3.767-6.92a7.22,7.22,0,0,0-3.384-7.511,17.946,17.946,0,0,0,6.282-4.031c1.652-1.887,2.415-4.8,1.116-6.94,3.859.489,8.416.729,10.95-2.223,2.023-2.358,1.884-5.882,1.085-8.884s-2.151-5.918-2.193-9.024a164.465,164.465,0,0,0,26.68-.9,17.3,17.3,0,0,0-8.112-10.159c4.01-.679,7.663-5.479,8.93-9.344s.944-8.074.161-12.065a6.474,6.474,0,0,1-.12-3.161c.452-1.439,1.865-2.317,3.173-3.068l19.9-11.431a11.6,11.6,0,0,0,3.183-2.35c2.085-2.45,1.776-6.147.709-9.182s-2.778-5.888-3.19-9.079c-1.23-9.542,8.985-16.389,12.432-25.371,1.353-3.525,1.628-7.357,1.89-11.123.281-4.045.3-8.744-2.8-11.351-2.978-2.5-7.63-1.942-10.746-4.266-2.856-2.131-3.842-6.27-6.963-7.992-2.834-1.563-6.387-.569-9.539-1.3-5.55-1.294-9.042-7.691-14.71-8.283-3.2-.334-6.817,1.229-9.438-.633-2.31-1.641-2.4-4.94-2.842-7.738a21.611,21.611,0,0,0-17.442-17.5c-3.3-.529-6.886-.328-9.691-2.14-2.84-1.835-4.143-5.27-6.374-7.811-3.6-4.1-9.259-5.55-14.564-6.8l-21.579-5.073c-3.831-.9-8.768-1.378-10.824,1.977a15.51,15.51,0,0,0-1.28,4.027,12.471,12.471,0,0,1-11.728,8.827,13.869,13.869,0,0,0-8.178-6.328c-2.188-.61-4.53-.678-6.617-1.575a9.295,9.295,0,0,1-4.033-12.894,11.57,11.57,0,0,0-1.977-13.917c-3.67-3.295-8.978-4.09-13.9-3.761-1.289-2.812.866-5.985,3.188-8.028s5.142-4.053,5.647-7.1c.8-4.8-5.329-8.446-9.98-7.015s-7.619,5.948-9.581,10.4c-1.126,2.555-2.083,5.245-3.859,7.4s-4.635,3.7-7.34,3.005c-3.829-.979-5.308-5.528-6.156-9.388-1.137-5.179-2.281-10.431-2.042-15.728s2.024-10.737,5.93-14.323c6.365-5.844,16.13-5.271,24.721-4.339-2.03-2.287-1.528-6.141.644-8.293a9.429,9.429,0,0,1,8.546-2.1,11.776,11.776,0,0,1,6.621,3.958c2.441,2.976,3.135,7,4.981,10.373s5.994,6.26,9.39,4.447c2.933-1.566,3.4-5.633,2.669-8.877s-2.281-6.4-2.016-9.712c.5-6.324,7.06-10.131,12.845-12.735s12.409-6.107,13.326-12.385a11.291,11.291,0,0,1,.687-3.6,7.06,7.06,0,0,1,2.59-2.436c16.884-11.158,34.048-22.452,53.346-28.549,1-.317,1.122.035,2.145-.213,1.432-.828.483-3.117-.89-4.039s-3.208-1.63-3.556-3.246c-.256-1.189.444-2.356.626-3.558.447-2.954-3.087-5.681-5.831-4.5-1.55-2.053,1.517-4.438,4-5.121a108.55,108.55,0,0,1,22.8-3.725,4.108,4.108,0,0,1,2.6.441c1.3.9,1.13,2.955.212,4.236s-2.346,2.085-3.49,3.169a9.527,9.527,0,0,0-2.471,9.582c4.026,2.048,8.4,4.156,12.863,3.435s8.417-5.732,6.321-9.733c-1.952-3.726-7.815-4.567-8.823-8.651-1.18-4.782,5.589-9.034,4.064-13.718-.668-2.051-2.712-3.259-4.281-4.74a12.861,12.861,0,0,1-2.815-14.261,16.226,16.226,0,0,1-14.23-4.453c-3.4-3.435-6.119-8.854-10.953-8.7-4.435.141-8.256,5.316-12.4,3.737-1.02-.388-2.1-1.179-3.085-.716a2.549,2.549,0,0,0-1.151,1.91c-1.054,5.039.759,10.78-1.987,15.135-2.989,4.738-9.9,5.4-13.524,9.668-1.967,2.319-2.729,5.445-4.536,7.89s-5.645,4-7.814,1.869a10.77,10.77,0,0,0-2.926-13.1,28.74,28.74,0,0,0-6.463-3.144,38.336,38.336,0,0,1-7.22-4.024,7.113,7.113,0,0,1-2.65-2.836,6.463,6.463,0,0,1,.181-4.485,18.338,18.338,0,0,1,14.593-12.1c2.889-.393,6.25-.254,8.162-2.455,1.011-1.165,1.542-2.925,3.01-3.4a4.441,4.441,0,0,1,2.779.342l10.782,3.795a7.567,7.567,0,0,0,3.841.635,2.6,2.6,0,0,0,2.252-2.737c-.345-1.79-3.1-2.65-2.849-4.456a2.975,2.975,0,0,1,.9-1.517,38.547,38.547,0,0,1,30.572-12.073c1.361,2.235-.791,4.882-2.582,6.79s-3.23,5.317-1.064,6.786a5.938,5.938,0,0,0,2.871.646,25.069,25.069,0,0,1,7.641,2.318q5.588,2.432,10.963,5.322c-.316-2.362-.619-4.851.277-7.06s3.44-3.941,5.663-3.081c2.142.829,3.241,3.665,5.523,3.925,3.044.347,4.245-4.151,2.974-6.938s-3.789-5.122-4-8.178c-.142-2.062.643-4.62-1-5.868a4.483,4.483,0,0,0-1.943-.681l-41.13-7.569c-2.442-.449-5.971-.1-6.079,2.376-.06,1.385,1.177,2.755.629,4.028-.585,1.359-2.506,1.235-3.905,1.715-2.171.746-3.26,3.324-3.052,5.61a15.612,15.612,0,0,0,2.576,6.322C340.8,264.82,336.753,264.614,334.078,263.5Z" transform="translate(-20.648 -38.124)"/><path class="a" d="M291.017,229.084a13.318,13.318,0,0,0-14.63,4.381c-.677.892-1.246,2.121-.679,3.086.813,1.384,2.884.838,4.411.342a11.1,11.1,0,0,1,6.967-.166c1.434.492,2.717,1.362,4.157,1.836a4.186,4.186,0,0,0,4.268-.624c.988-1.008,1.05-2.575,1.052-3.987a3.206,3.206,0,0,0-.817-2.635,4.189,4.189,0,0,0-1.89-.559,6.508,6.508,0,0,1-3.809-2.226" transform="translate(-10.405 -38.627)"/><path class="a" d="M304.514,225.127a3.388,3.388,0,0,0-3.275,4.772,13.732,13.732,0,0,0,5.475.357,4.68,4.68,0,0,0,3.827-3.509,8.81,8.81,0,0,1-6.238-1.191" transform="translate(-9.072 -38.799)"/><path class="a" d="M352.318,218.8a62.985,62.985,0,0,0-14.04,4.77,10.549,10.549,0,0,1,6.738,10.6,5.519,5.519,0,0,0,.064,2.62c.516,1.25,2.01,1.719,3.324,2.04a21.913,21.913,0,0,0,7.29.93,7.426,7.426,0,0,0,6.034-3.687,26.27,26.27,0,0,1,1.255-2.966c3.149-4.8,12.5,1,15.884-3.632,1.191-1.633,1.082-4.09,2.635-5.384a5.918,5.918,0,0,1,2.708-1.034,190.178,190.178,0,0,1,20.572-2.93c3.272-.285,7.537-1.46,7.564-4.744a56.983,56.983,0,0,0-36.349,4.89c-4.052,2.029-9.411,6.3-13.314,3.608-1.461-1.007-1.389-3.72-3.4-4.853C357.223,217.862,354.5,218.333,352.318,218.8Z" transform="translate(-7.118 -39.365)"/><path class="a" d="M390.021,226.365l5.785,1.112A7.5,7.5,0,0,0,388,235.6c5.418,1.81,11.324.049,17.031.289s12.347,4.317,11.373,9.945c-.295,1.7-1.278,3.4-.766,5.052.358,1.156,1.378,1.977,1.954,3.042,1.2,2.219.241,5.026-1.274,7.043s-3.55,3.627-4.88,5.77c-3.306,5.332-1.428,12.225.542,18.181a16.029,16.029,0,0,0,3.082,6.155c2.918,3.1,7.673,3.372,11.932,3.435,3.1.045,6.65-.108,8.611-2.509,2.559-3.135.77-8.027,2.455-11.707,1.53-3.342,5.429-4.776,8.961-5.793,6.471-1.863,13.066-3.447,19.183-6.26,7.6-3.494,14.7-8.939,23.046-9.389,2.342-.126,4.743.15,7-.492s4.4-2.593,4.229-4.932c-.146-2-1.837-3.467-3.159-4.974s-2.359-3.824-1.145-5.419l21.885-4.088c-1.551-4.228-2.76-9.8.8-12.548,1.286-.993,3.008-1.39,4.1-2.59,1.866-2.046.928-5.57-1.227-7.31s-5.068-2.144-7.828-2.373c-9.6-.8-19.247-.27-28.862.257l-56.384,3.091c-3.784.207-8.152-.109-11.622,1.181-2.938,1.093-5.026,3.1-8.386,3.8C402.459,223.763,395.633,222.883,390.021,226.365Z" transform="translate(-4.516 -39.396)"/><path class="a" d="M488.521,269.4a2.329,2.329,0,0,0-1.684.382,2.126,2.126,0,0,0-.548,1.3,8.575,8.575,0,0,0,1.245,6.138,6.01,6.01,0,0,0,5.5,2.638c2.605-.332,4.525-2.555,6.919-3.639,3.691-1.67,19.366-4.273,8.523-10.131-3.737-2.019-6.151-.237-9.1,1.093A20.7,20.7,0,0,1,488.521,269.4Z" transform="translate(0.623 -36.702)"/><path class="a" d="M578.818,222.778a6.192,6.192,0,0,0-3.012,2.622,2.646,2.646,0,0,0,.992,3.51,3.949,3.949,0,0,0,1.477.234l5.148.154c2.187.065,4.919.531,5.507,2.639.436,1.565-.54,3.576.638,4.694a3.32,3.32,0,0,0,1.751.683,11.934,11.934,0,0,0,5.187.167c3.746-1,1.778-3.291,2.957-5.327,1.805-3.115,1.493-1.229,4.673-3.014,2.349-1.318,5.384-3.71,3.424-7.07C604.152,216.227,583.849,220.268,578.818,222.778Z" transform="translate(5.3 -39.116)"/><path class="a" d="M676.356,219.83l-2.989.4c-6.741.9-13.521,1.807-20.013,3.832a33.3,33.3,0,0,0,8.765,2.151,26.929,26.929,0,0,1,4.91.7c2.868.854,5.757,3.058,8.528,1.929,1.718-.7,2.278-2.489,3.7-3.437.983-.655,4.709-1.714,5.126-2.375C687.751,217.686,678.945,219.485,676.356,219.83Z" transform="translate(9.375 -39.106)"/><path class="a" d="M688.37,232.851a56.064,56.064,0,0,0-11.032,8.079c-1.4,1.32-2.839,2.963-2.712,4.886.169,2.557,2.893,4.04,5.252,5.038l9.557,4.046c1.159-1.634.1-3.89-1.1-5.5s-2.622-3.464-2.093-5.4c.6-2.205,3.293-2.957,5.547-3.336,3.674-.619,13.583-.569,12.392-6.489C702.779,227.207,692.058,230.79,688.37,232.851Z" transform="translate(10.488 -38.539)"/><path class="a" d="M685.892,609.828c-.91,2.634-1,5.737.578,8.036,1.766,2.581,5.3,3.542,8.357,2.888a15.057,15.057,0,0,0,7.76-4.989,26.725,26.725,0,0,0,4.463-6.844,53.422,53.422,0,0,0,3.308-12.1l2.967-15.579c.663-3.482.637-14.156-5.762-10.679-1.748.95-5.8,8.452-7.628,10.579-3.3,3.834-3.739,7.554-5.477,12.2C692.281,599.152,687.905,604,685.892,609.828Z" transform="translate(11.044 -20.753)"/><path class="a" d="M1007.5,683.741a46.607,46.607,0,0,1-6.081-2.895,51.257,51.257,0,0,0-3.083,16.8l14.328-8.108c2.156-1.22,4.6-2.914,4.552-5.391a1.706,1.706,0,0,0-.792-1.551,1.932,1.932,0,0,0-1-.118c-2.125.177-4.062,1.222-6.066,1.949s-4.348,1.111-6.187.032" transform="translate(27.433 -14.943)"/><path class="a" d="M1080.023,688.421a31.018,31.018,0,0,0-4.6,1.649c-3.288,1.673-5.525,4.851-8.484,7.054-2.831,2.109-6.24,3.266-9.586,4.392-.984.87-.532,2.622.536,3.387a6.646,6.646,0,0,0,3.785.851c3.476.077,7.139.11,10.184-1.569a32.107,32.107,0,0,0,4.795-3.806c3.56-2.97,7.835-4.93,12.067-6.824a13.852,13.852,0,0,0,4.206-2.515c2.66-2.62,2.847-6.662-.988-7.554C1088.844,682.766,1082.973,687.466,1080.023,688.421Z" transform="translate(30.495 -14.809)"/><path class="a" d="M1111.235,667.928a11.953,11.953,0,0,0-3.657-9.794c-.039,3.607-.149,7.45-2.178,10.433-1.445,2.125-3.712,3.561-5.3,5.585s-2.286,5.233-.429,7.01a6.961,6.961,0,0,0,4.125,1.421c3.7.435,7.978.678,10.571-1.993,1.416-1.458,2.1-3.618,3.831-4.69a4.658,4.658,0,0,0,1.68-1.2c.713-1.133-.42-2.627-1.695-3.035s-2.68-.216-3.961-.6-2.457-1.828-1.8-2.995" transform="translate(32.68 -16.132)"/><path class="a" d="M1057.084,542.389a16.621,16.621,0,0,1-5.931.35c-3.292-.605-5.854-3.086-8.511-5.121a37.545,37.545,0,0,0-21.937-7.664c-7.222-.137-14.511,1.82-21.6.455.463,2.578,2.669,4.511,5.022,5.66s4.951,1.727,7.315,2.853a17.465,17.465,0,0,1,8.46,8.8c.761,1.778,1.24,3.712,2.394,5.265,2.358,3.173,6.827,3.869,10.772,3.61,5.142-.338,10.514-1.817,15.3.1,3.66,1.466,6.28,4.669,9.335,7.16s7.36,4.339,10.87,2.542a17.968,17.968,0,0,1-12.433-17.29c3.442.316,13.354.194,12.821-5.654C1068.5,538.5,1060.04,541.854,1057.084,542.389Z" transform="translate(27.474 -22.842)"/><path class="a" d="M1016.529,580.931c.611-3.352,3.953-6.311,2.912-9.555-.72-2.243-3.321-3.351-5.677-3.406s-4.669.646-7.024.712a34.224,34.224,0,0,0-4.6.065c-4.675.768-7.557,5.669-11.963,7.411-2.679,1.059-5.688.857-8.474,1.589-6.324,1.662-10.326,7.639-14.747,12.457a52.629,52.629,0,0,1-26.713,15.578c-3.6.833-7.462,1.366-10.32,3.7-3.785,3.093-4.717,8.395-5.559,13.209a218.2,218.2,0,0,1-10.621,38.99l15.017,1.917c2.855.365,5.813.721,8.565-.124a24.862,24.862,0,0,0,5.634-3,56.242,56.242,0,0,1,21.972-7.931c3.933-.54,8.056-.639,11.746.823s6.857,4.777,7.166,8.734a9.226,9.226,0,0,1,9.221,2.243,16.029,16.029,0,0,1,4.4,8.788c.4,2.055.792,4.516,2.7,5.378,1.555.7,3.339-.054,5.041-.19,5.774-.462,10.565,6.27,16.24,5.111,6.086-1.243,7.58-10.358,13.518-12.184,3.41-1.049,8.193.227,9.827-2.946,1.439-2.8-1.432-6.022-1.136-9.153.365-3.855,4.911-5.491,8.417-7.136,12.085-5.671,17.82-21.936,11.964-33.932-3.469-7.108-10.3-12.7-11.558-20.511-.97-6.007,1.4-13.013-2.432-17.742-1.948-2.405-5.248-3.733-6.407-6.6-.73-1.807-.436-3.857-.829-5.765s-2.058-3.905-3.943-3.41c-5.471,1.436-7.217,18.337-10.146,22.443C1024.268,592.733,1015.127,588.621,1016.529,580.931Z" transform="translate(23.006 -21.061)"/><path class="a" d="M915.709,547.871c-1.87-.524-3.911-1.041-5.7-.292s-2.837,3.379-1.4,4.685c11.248-.438,22.565-.873,33.717.654,12.849,1.76,25.565,6.119,38.471,4.837a195.781,195.781,0,0,0-22.442-5.208l-12.634-2.414a97.741,97.741,0,0,0-10.26-1.585C928.251,547.954,922.8,549.858,915.709,547.871Z" transform="translate(22.702 -21.939)"/><path class="a" d="M926.558,511.287c-.934-.078-2.09-.145-2.573.658-.462.767.067,1.781-.182,2.641-.339,1.175-1.878,1.475-3.091,1.315s-2.524-.543-3.6.042a3.05,3.05,0,0,0-1.179,3.464,8.915,8.915,0,0,0,2.08,3.315,33.875,33.875,0,0,0,5.4,5.413c3.866,2.854,9.1,4.229,11.538,8.371a5.551,5.551,0,0,0,1.541,2.074c1.169.74,2.693.177,3.952-.4l4.411-2.016a5.009,5.009,0,0,0,2.062-1.4c1.008-1.367.389-3.312-.457-4.785s-1.929-3-1.747-4.687c.324-3.011,4.2-4.163,5.788-6.74,1.6-2.6.56-5.944.745-8.991.216-3.564,2.456-8.2-1.147-10.863-3.062-2.263-5.989-.172-8.188,2.327C937.274,506.292,935.081,512,926.558,511.287Z" transform="translate(23.112 -24.529)"/><path class="a" d="M951.509,460.525c1.506,2.884,4.646,4.6,6.288,7.413,1.78,3.044,1.578,6.977,3.509,9.927,1.981,3.027,5.969,4.634,7.08,8.077,1.213,3.759-1.54,8.328.655,11.612a4.874,4.874,0,0,0,7.15.657,5.245,5.245,0,0,0-.217-7.318c-1.3-1.184-3.165-1.7-4.249-3.08a6.461,6.461,0,0,1-1.1-2.68,17.54,17.54,0,0,1,.276-8.407,3.742,3.742,0,0,0,.211-2.2c-.488-1.419-2.41-1.52-3.759-2.178-3.064-1.5-2.989-5.819-2.454-9.186-.356,2.241-8.341-1.571-9.177-2.841-1.661-2.522-.757-7.388-1.086-10.175C951.05,451.877,949.667,457,951.509,460.525Z" transform="translate(24.94 -27.019)"/><path class="a" d="M875.392,502.3c-1.474-1.65-3.693-3.375-5.669-2.381-1.507.759-1.922,2.845-1.331,4.426a9.742,9.742,0,0,0,3.215,3.833c4.117,3.4,8.551,6.461,12.143,10.408,6.428,7.064,9.833,16.6,16.824,23.1a9.437,9.437,0,0,0,5.3,2.867c2.037.189,4.324-1.114,4.558-3.146.193-1.674-.974-3.172-2.115-4.413-2.715-2.954-5.688-5.673-8.252-8.759a7.361,7.361,0,0,1-2.11-4.406c-.013-1.662,1.5-3.4,3.113-2.99-1.958-.5-3.411-3.763-6.284-4.376-2.4-.513-2.983.974-5.842-.252C883.488,513.881,879.21,506.578,875.392,502.3Z" transform="translate(20.618 -24.429)"/><path class="a" d="M998.2,349.62a45.132,45.132,0,0,1-4.606-1.645c-4.048-1.215-9.4,1.76-8.864,5.952.359,2.785,2.95,4.663,4.382,7.079,2.123,3.583,1.557,8.127.441,12.139a9.491,9.491,0,0,1-1.531,3.454,11.7,11.7,0,0,1-3.628,2.609,48.521,48.521,0,0,0-14.2,12.06,3.475,3.475,0,0,0-.857,1.616c-.193,1.415,1.229,2.446,2.034,3.627,1.787,2.622.5,6.151.672,9.319a2.635,2.635,0,0,0,1.11,2.312c1.077.547,2.353-.382,2.937-1.44,1.937-3.509.478-9.142,4.112-10.834.687-.32,1.521-.455,1.979-1.059.727-.958.026-2.376.394-3.521.554-1.719,2.905-1.8,4.709-1.72a26.728,26.728,0,0,0,9.181-1.222,6.111,6.111,0,0,0,3.039-1.76c1.086-1.356.99-3.283.773-5.007a67.868,67.868,0,0,0-8.018-24.467c3.192.408,6.664.761,9.419-.9,1.542-.931,3.392-3.717,2.627-5.613C1003.1,347.6,1000.913,350.121,998.2,349.62Z" transform="translate(25.915 -32.382)"/><path class="a" d="M614.439,395.548c.382,2.049.757,4.206.086,6.179s-2.783,3.621-4.778,3.017c-1.548-.469-2.442-2.025-3.541-3.212-6.112-6.6-19.9-2.778-23.678-10.942-1.541-3.332-.494-7.323-1.545-10.84a9.649,9.649,0,0,0-9.771-6.638,20.082,20.082,0,0,0-5.623,1.678,141.777,141.777,0,0,1-37.254,9.318,30.6,30.6,0,0,0-7.158,1.3c-5.249,1.9-8.835,6.769-11.388,11.735s-4.437,10.341-7.858,14.753c-3.6,4.637-8.636,7.883-13.336,11.4a13.605,13.605,0,0,0-4.4,4.611c-1.019,2.092-.962,4.526-.882,6.852l.961,28.249c.124,3.634.279,7.4,1.9,10.649,2.031,4.06,6.042,6.72,8.825,10.307a20.187,20.187,0,0,1,4.188,12.892c-.059,1.87-.245,4.082,1.211,5.257a5.327,5.327,0,0,0,2.978.856l38.213,3.128c6.722.55,14.171,1.455,18.56,6.576,2.071,2.417,3.735,5.893,6.908,6.152,1.361.111,2.685-.447,4.046-.555,3.434-.272,6.451,2.334,8.354,5.205a23.092,23.092,0,0,1,3.709,14.817c-.312,3.275-1.327,6.458-1.546,9.741-.833,12.489,9.754,23.34,9.96,35.855.121,7.362-3.374,14.24-6.781,20.766,5.5,8.33,1,19.423,3.185,29.161,2.077,9.239,9.78,16.472,11.7,25.745.879,4.245.93,9.469,4.673,11.656a10.654,10.654,0,0,0,5.288,1.059,69.711,69.711,0,0,0,31.744-7.227c4.629-2.3,9.426-5.726,10.234-10.83.652-4.116-1.435-8.72.689-12.305,2.5-4.226,8.917-3.89,12.6-7.139,5.976-5.27,1.316-15.322,3.737-22.913,2.176-6.823,9.668-10.449,13.382-16.573a29.457,29.457,0,0,0,3.11-8.428,120.2,120.2,0,0,0,3.164-21.5,128.867,128.867,0,0,1,.973-13.167c4-24.875,28.6-41.532,36.58-65.428.763-2.282,1.121-5.322-.91-6.613a5.815,5.815,0,0,0-3.867-.4l-17.615,2.221c-2.188.276-4.507.534-6.516-.375s-3.449-3.451-2.384-5.381c2.992-5.419-3.162-12.267-5.9-17.821a262.971,262.971,0,0,0-26.187-42.469,4.316,4.316,0,0,1-1.148-2.493l5,.166c-1.687-6.056-4.472-12.682-10.356-14.9-3.315-1.248-6.986-.817-10.523-.623C635.327,398.628,624.466,397.1,614.439,395.548Z" transform="translate(0.472 -31.053)"/><path class="a" d="M643.853,266.8c2.651,2.815,5.622,5.8,9.458,6.291,6.775.867,11.646-6.139,14.747-12.225a5.973,5.973,0,0,0,6.233,5.526,12.3,12.3,0,0,0,4.688-1.833,92.36,92.36,0,0,1,43.755-11.311,4.725,4.725,0,0,1,3.609-5.195c3.11-.617,5.912,2.072,7.412,4.866s2.436,6.031,4.819,8.122,7,2,7.94-1.028c.9-2.907-2.124-5.385-4.64-7.1s-5.167-4.885-3.473-7.414c12.853-2.845,25.785-5.7,38.937-6.266a16.306,16.306,0,0,0,6.554-1.129c2.006-.984,3.6-3.218,3.06-5.386a14.842,14.842,0,0,1-15.489-5.842c18.249-1.506,37.658-2.79,53.831,5.8,1.941,4.166-7.951,7.633-5.3,11.39.844,1.2,2.536,1.339,4,1.366,11.238.209,22.542.413,33.654-1.283,4.061-.62,8.162-1.5,12.239-.993,6.791.837,12.6,5.368,19.279,6.846,2.719.6,5.768.622,8.06-.96s3.277-5.183,1.4-7.239c6.29-6.165,16.729-4.637,25.028-1.685s16.159,7.711,24.942,8.369c6.3.472,12.684-1.222,18.907-.146,3.911.677,7.55,2.416,11.372,3.485,7.229,2.022,14.876,1.595,22.381,1.692a156.824,156.824,0,0,1,55.886,11.1,16.613,16.613,0,0,1,6.213,3.671c1.656,1.773,2.5,4.528,1.387,6.684l-18.387-2.687c1.732,3.41,6.214,3.992,9.854,5.168s7.414,5.2,5.226,8.334c-3.944-1.256-7.517,2.687-9.51,6.315s-4.42,7.973-8.552,8.194c-3.7.2-8.177-2.953-10.589-.14a72.228,72.228,0,0,1,8.509,13.6c2.383,4.965,4.081,11.221.86,15.688a4.067,4.067,0,0,1-2.174,1.686c-2.631.666-4.34-2.552-6.226-4.5-2.378-2.458-5.973-3.154-9.192-4.307s-6.611-3.421-6.863-6.831c-.157-2.122.964-4.094,1.789-6.055a23.334,23.334,0,0,0,1.773-10.464c-.181-2.878-.988-5.873-3.055-7.884s-5.636-2.649-7.856-.807c-1.035.86-1.865,2.234-3.21,2.286-2.376.091-4.2-4.052-6.112-2.637a6.5,6.5,0,0,1-.883,4.344c-5.7,4.961-14.468,2.862-21.822,4.615a40.963,40.963,0,0,0-9.956,4.348,6.406,6.406,0,0,0-2.846,2.389c-.918,1.784.094,4.069,1.712,5.255a13.593,13.593,0,0,0,5.645,1.927c8.966,1.7,18.062,4.327,25.14,10.085s11.72,15.278,9.48,24.124l-17.68-16.894q1.007,10.64,1.143,21.339a9.6,9.6,0,0,1-.561,4.1c-1.26,2.784-4.676,3.721-7.67,4.335a6.008,6.008,0,0,0-4.612,7.7c1.063,3.467,3.715,6.17,6.144,8.863s4.818,5.754,5.136,9.366-2.407,7.684-6.025,7.433c-2.742-.19-4.777-2.645-5.946-5.133s-1.866-5.259-3.623-7.373c-5.32-6.4-17.268-3.657-22.033-10.477a10.777,10.777,0,0,0-2.229,10.256c2.217-1.388,5.252-.1,6.918,1.918s2.452,4.6,3.76,6.867c1.765,3.056,4.574,5.766,4.821,9.287a30.381,30.381,0,0,0,.067,3.994c.437,2.133,2.241,3.665,3.491,5.448,2.909,4.149,2.765,9.849.89,14.557s-5.244,8.641-8.58,12.455c-5.828,6.661-11.774,13.284-18.683,18.816-1.971,1.578-4.075,3.131-5.3,5.337s-1.291,5.3.6,6.983c-1.35.068-3.771.732-5.121.8a119.069,119.069,0,0,1-.309-16.287c-5.327-2.558-11.064,4.293-10.376,10.163s4.933,10.58,7.956,15.659c2.21,3.714,3.853,8.044,3.115,12.3s-4.539,8.187-8.845,7.811c-6.848-.6-9.713-10.429-16.495-11.554a2.77,2.77,0,0,0-1.785.177c-1.007.553-1.182,1.9-1.238,3.046-.277,5.629-.518,11.482,1.68,16.672,3.215,7.592,11.519,13.969,9.777,22.028-9.385-4.362-14.264-14.887-16.479-25s-2.585-20.722-6.556-30.279c-3.016,3.865-9.354.67-12.109-3.385-2.612-3.844-4.22-8.291-6.755-12.187s-6.416-7.384-11.059-7.6c-4.868-.225-9.089,3.116-12.8,6.272-3.053,2.6-6.187,5.293-7.971,8.88-2.6,5.221-1.917,11.375-2.043,17.2-.135,6.3-1.471,12.951-5.766,17.565s-12.223,6.221-16.961,2.063c-2.474-2.171-3.671-5.414-4.738-8.527a417.481,417.481,0,0,1-12.826-45.789c-.8,3.536-3.9,8.094-6.868,6.011a6.152,6.152,0,0,1-1.582-2.039c-5.534-9.379-15.781-15-26.135-18.377s-21.248-4.946-31.487-8.653a79.752,79.752,0,0,1-16.333-8.136,12.846,12.846,0,0,0-.785,13.14c2.271,4.022,7.411,6.349,11.811,4.943,2.274-.726,4.194-2.3,6.449-3.084s5.284-.4,6.27,1.777c.944,2.08-.483,4.6.225,6.769,1.078,3.308,6.068,3.563,7.813,6.574,1.3,2.24.23,5.214-1.624,7.022s-4.326,2.8-6.589,4.057c-7.341,4.082-12.562,11.051-18.978,16.473s-15.468,9.381-23.114,5.9c1.823-9.229-9.171-16.005-11.194-25.193-.666-3.024-.321-6.236-1.271-9.183-1.376-4.267-5.161-7.2-8.267-10.434a40.95,40.95,0,0,1-11.232-29.792c.168-3.8.866-7.656,0-11.357s-3.929-7.283-7.726-7.115c-8.672.383-19.6,1.028-24.148-6.365-1.624-2.639-2.331-6.5.017-8.525,1.656-1.426,4.1-1.292,6.276-1.078l19.54,1.922c4.57.45,9.51.821,13.432-1.569s5.621-8.731,1.99-11.542c-2.653-2.054-7.407-1.943-8.179-5.208-.642-2.72,2.368-5.806.742-8.078-1.166-1.63-3.787-1.178-5.375.044s-2.741,3.008-4.518,3.933c-3.118,1.623-6.844.078-10.2-.971s-7.852-1.139-9.479,1.977c-1.82,3.485,1.614,8.05-.192,11.542-2.388,4.616-10.474,1.988-13.827,5.959-3.848,4.556,2.618,11.351,1.321,17.172a10.689,10.689,0,0,1-10.531-.592,10.229,10.229,0,0,1-4.42-9.524c.321-2.619,1.686-5.292.772-7.766-.74-2-2.748-3.192-4.615-4.223L588.81,352.155c-1.763,3.27.466,7.325,3.253,9.781s6.279,4.307,8.11,7.539a9.9,9.9,0,0,1-3.724,13.047,2.284,2.284,0,0,1-1.882.328,2.625,2.625,0,0,1-1.221-1.642c-3.35-8.574-8.381-17.027-16.423-21.506s-19.6-3.558-24.872,3.987c-1.253,1.792-2.093,3.835-3.184,5.729-5.8,10.066-18.226,14.833-29.838,14.521a5.925,5.925,0,0,1-3.255-.765c-1.877-1.3-1.792-4.046-1.5-6.309l1.219-9.6c.245-1.928.6-4.059,2.125-5.263,2.151-1.7,5.254-.626,7.994-.665a10.13,10.13,0,0,0,9.2-7.1,11.417,11.417,0,0,0-3.178-11.354c-1.256-1.179-2.941-2.661-2.278-4.251a3.514,3.514,0,0,1,2.464-1.659c4.921-1.429,10.12-1.8,14.959-3.49s9.531-5.136,10.677-10.13c.351-1.531.511-3.385,1.886-4.143a5.654,5.654,0,0,1,2.179-.445,10.605,10.605,0,0,0,9.1-11.056c2.319-1.62,5.568-.428,7.811,1.295s4.224,4,6.954,4.743c5.087,1.385,10-3.12,15.276-3.14,2.217-.009,4.512.775,6.6.023,2.114-.762,3.377-2.867,5-4.422s4.47-2.5,5.969-.828l-1.276-9.452a18.583,18.583,0,0,0,15.123-2.734l-16.492-5.573a3.586,3.586,0,0,1-1.542-.825c-1.2-1.291-.008-3.3.967-4.771,2.333-3.511,2.724-9.295-1.112-11.043-2.618-1.193-5.623.239-8.136,1.64l-12.037,6.712c-.383,2.288,2.415,3.585,4.149,5.126a6.957,6.957,0,0,1-4.537,12.156,8.668,8.668,0,0,1,1.548,7.35l-8.1.582a3.508,3.508,0,0,1-2.627-.513c-.866-.769-.749-2.117-.95-3.258-.485-2.754-3.181-4.684-5.933-5.179s-5.567.139-8.293.766a4.949,4.949,0,0,1-3.565-.082,3.559,3.559,0,0,1-1.41-1.78c-1.195-2.9-.078-6.3,1.841-8.779s4.546-4.288,6.9-6.351a40.243,40.243,0,0,0,11.967-18.561c4.458-1.868,9.074-4.406,13.533-6.274a41.409,41.409,0,0,1,22.258-4.313l15.1.288c4.47.085,9.062.195,13.2,1.9s7.766,5.39,8.051,9.852a3.024,3.024,0,0,1-.968,2.765,3.568,3.568,0,0,1-1.909.43C649.8,265.61,648.022,266.649,643.853,266.8Z" transform="translate(3.087 -40.764)"/><path class="a" d="M523.662,309.971a4.419,4.419,0,0,0,1.2-4.444,8.265,8.265,0,0,0-8.558,1.616,14.423,14.423,0,0,0-2.293,3.031c-1.984,3.237-3.739,7.1-2.589,10.722a3.046,3.046,0,0,0,1.394,1.907,3.666,3.666,0,0,0,1.625.255,54.461,54.461,0,0,0,6.539-.4c1.332-.163,2.88-.539,3.395-1.779.677-1.629-.962-3.473-.484-5.172a5.65,5.65,0,0,1,1.4-2,2.641,2.641,0,0,0,.823-2.218c-.193-.8-1.413-1.249-1.852-.557" transform="translate(1.927 -34.619)"/><path class="a" d="M534.215,295.782a18.3,18.3,0,0,0-5.925-.372,2.585,2.585,0,0,0-1.263.287,2.106,2.106,0,0,0-.778,1.127,5.6,5.6,0,0,0,3.259,6.86,7.008,7.008,0,0,1,2.021.812c1.676,1.3.607,3.958.925,6.055.356,2.355,2.636,4.332,2.218,6.677-.329,1.847-2.3,3.31-1.985,5.16.333,1.937,2.791,2.519,4.75,2.674a5.974,5.974,0,0,0,3.365-.386,5.211,5.211,0,0,0,2.123-3.075,19.709,19.709,0,0,0,.993-7.421,7.036,7.036,0,0,0-.837-3.275,18.281,18.281,0,0,0-1.955-2.239C537.372,304.3,541.324,297.786,534.215,295.782Z" transform="translate(2.708 -35.124)"/><g transform="translate(566.793 275.685)"><circle class="b" cx="8" cy="8" r="8" transform="translate(-8 4)"/><circle class="b" cx="8" cy="8" r="8" transform="translate(237.893 133.442)"/><path class="c" d="M553.151,321.215c82.289-11.166,206.706,49.753,246.018,130.029" transform="translate(-553.275 -309.801)"/></g></g></svg>