<svg xmlns="http://www.w3.org/2000/svg" width="19.483" height="24.884" viewBox="0 0 19.483 24.884"><defs><style>.a{fill:#db9195;}</style></defs><path class="a" d="M27.836,38.177c-1.257,0-2.514-.041-3.762-.118a26.731,26.731,0,0,1-3.894-.545V15.249a32.931,32.931,0,0,1,3.481-.449q1.886-.15,3.513-.15a24.041,24.041,0,0,1,4.026.313,9.514,9.514,0,0,1,3.163,1.076,5.6,5.6,0,0,1,2.069,2.006,5.837,5.837,0,0,1,.744,3.063,4.861,4.861,0,0,1-2.65,4.339A5.443,5.443,0,0,1,37.507,27.7a6.463,6.463,0,0,1,.794,3.213,6.163,6.163,0,0,1-2.632,5.432Q33.042,38.181,27.836,38.177ZM25.222,23.931h2.519a7.025,7.025,0,0,0,3.413-.613,2.12,2.12,0,0,0,1.026-1.97,2.03,2.03,0,0,0-1.062-1.956A6.806,6.806,0,0,0,28,18.83c-.44,0-.917,0-1.425.018s-.962.041-1.357.082v5Zm0,3.944v5.932c.377.045.785.077,1.225.1s.926.032,1.457.032a8.971,8.971,0,0,0,3.744-.663,2.456,2.456,0,0,0,1.425-2.451,2.4,2.4,0,0,0-1.194-2.269,6.973,6.973,0,0,0-3.413-.681Z" transform="translate(-19.499 -13.974)"/><path class="a" d="M27.017,38.044c-1.262,0-2.541-.041-3.8-.118a27.935,27.935,0,0,1-3.994-.558l-.54-.113V13.873l.554-.1a34.393,34.393,0,0,1,3.549-.458c1.271-.1,2.469-.15,3.567-.15a24.917,24.917,0,0,1,4.139.322,10.293,10.293,0,0,1,3.39,1.157,6.383,6.383,0,0,1,2.315,2.242,6.55,6.55,0,0,1,.844,3.413A5.276,5.276,0,0,1,35.063,24.5a5.383,5.383,0,0,1,2.219,2.051,7.178,7.178,0,0,1,.88,3.544,6.847,6.847,0,0,1-2.927,6C33.375,37.39,30.611,38.044,27.017,38.044Zm-6.971-1.9a25,25,0,0,0,3.254.422c1.234.077,2.482.113,3.717.113,3.308,0,5.818-.572,7.447-1.7A5.485,5.485,0,0,0,36.806,30.1,5.868,5.868,0,0,0,36.1,27.22a4.8,4.8,0,0,0-2.628-1.947l-1.312-.5,1.2-.722a4.19,4.19,0,0,0,2.319-3.758,5.213,5.213,0,0,0-.649-2.714,5.049,5.049,0,0,0-1.824-1.765,8.933,8.933,0,0,0-2.941-.994,30.192,30.192,0,0,0-7.37-.159c-1.012.082-1.97.2-2.85.34ZM27.085,33.8c-.54,0-1.044-.009-1.493-.032s-.885-.059-1.271-.1l-.6-.073V26.376h3.926a7.546,7.546,0,0,1,3.749.767A3.063,3.063,0,0,1,32.935,30a3.115,3.115,0,0,1-1.82,3.068A9.509,9.509,0,0,1,27.085,33.8Zm-2-1.43c.186.014.381.027.581.036.427.023.9.032,1.425.032a8.332,8.332,0,0,0,3.458-.6,1.8,1.8,0,0,0,1.03-1.833,1.732,1.732,0,0,0-.849-1.679,6.416,6.416,0,0,0-3.077-.59H25.088v4.634ZM26.917,23.8h-3.2V17.5l.6-.068c.413-.045.89-.077,1.421-.086.513-.009.994-.018,1.439-.018a7.345,7.345,0,0,1,3.436.644,2.682,2.682,0,0,1,1.421,2.555,2.813,2.813,0,0,1-1.357,2.555A7.487,7.487,0,0,1,26.917,23.8Zm-1.833-1.362h1.838a6.225,6.225,0,0,0,3.063-.517,1.432,1.432,0,0,0,.694-1.389,1.322,1.322,0,0,0-.7-1.352,6.2,6.2,0,0,0-2.8-.486c-.436,0-.908,0-1.411.018q-.368.007-.694.027v3.7Z" transform="translate(-18.68 -13.16)"/></svg>