<?xml version="1.0" encoding="utf-8"?>
<!-- Generator: Adobe Illustrator 24.2.3, SVG Export Plug-In . SVG Version: 6.00 Build 0)  -->
<svg version="1.1" id="Layer_1" xmlns="http://www.w3.org/2000/svg" xmlns:xlink="http://www.w3.org/1999/xlink" x="0px" y="0px"
	 width="385.74px" height="168.53px" viewBox="0 0 385.74 168.53" style="enable-background:new 0 0 385.74 168.53;"
	 xml:space="preserve">
<style type="text/css">
	.st0{fill:#E68C93;}
</style>
<g>
	<g>
		<g>
			<path class="st0" d="M37.05,66.49c-2.77,0-5.54-0.09-8.29-0.26c-2.75-0.17-5.61-0.57-8.58-1.2V15.97
				c2.34-0.44,4.89-0.77,7.67-0.99c2.77-0.22,5.35-0.33,7.74-0.33c3.21,0,6.17,0.23,8.87,0.69c2.7,0.46,5.02,1.25,6.97,2.37
				c1.95,1.12,3.47,2.59,4.56,4.42c1.1,1.82,1.64,4.08,1.64,6.75c0,4.04-1.95,7.23-5.84,9.56c3.21,1.22,5.4,2.87,6.57,4.96
				c1.17,2.09,1.75,4.45,1.75,7.08c0,5.31-1.93,9.3-5.8,11.97C50.45,65.15,44.69,66.49,37.05,66.49z M31.29,35.1h5.55
				c3.5,0,6.01-0.45,7.52-1.35c1.51-0.9,2.26-2.35,2.26-4.34c0-2.04-0.78-3.48-2.34-4.31c-1.56-0.83-3.85-1.24-6.86-1.24
				c-0.97,0-2.02,0.01-3.14,0.04c-1.12,0.02-2.12,0.09-2.99,0.18V35.1z M31.29,43.79v13.07c0.83,0.1,1.73,0.17,2.7,0.22
				c0.97,0.05,2.04,0.07,3.21,0.07c3.41,0,6.16-0.49,8.25-1.46c2.09-0.97,3.14-2.77,3.14-5.4c0-2.34-0.88-4-2.63-5
				c-1.75-1-4.26-1.5-7.52-1.5H31.29z"/>
			<path class="st0" d="M37.05,67.99c-2.78,0-5.6-0.09-8.38-0.26c-2.82-0.18-5.78-0.59-8.8-1.23l-1.19-0.25V14.73l1.22-0.23
				c2.38-0.45,5.01-0.78,7.82-1.01c2.8-0.22,5.44-0.33,7.86-0.33c3.28,0,6.35,0.24,9.12,0.71c2.86,0.49,5.38,1.35,7.47,2.55
				c2.16,1.25,3.88,2.91,5.1,4.94c1.23,2.05,1.86,4.58,1.86,7.52c0,3.73-1.46,6.84-4.35,9.27c2.25,1.21,3.88,2.73,4.89,4.52
				c1.29,2.31,1.94,4.94,1.94,7.81c0,5.8-2.17,10.25-6.45,13.21C51.06,66.55,44.97,67.99,37.05,67.99z M21.69,63.8
				c2.46,0.48,4.87,0.79,7.17,0.93c2.72,0.17,5.47,0.25,8.19,0.25c7.29,0,12.82-1.26,16.41-3.75c3.47-2.4,5.16-5.91,5.16-10.74
				c0-2.36-0.53-4.49-1.56-6.35c-0.99-1.77-2.93-3.21-5.79-4.29l-2.89-1.1l2.65-1.59c3.44-2.06,5.11-4.77,5.11-8.28
				c0-2.39-0.48-4.4-1.43-5.98c-0.96-1.59-2.31-2.9-4.02-3.89c-1.78-1.02-3.96-1.76-6.48-2.19c-4.56-0.78-9.89-0.85-16.24-0.35
				c-2.23,0.18-4.34,0.43-6.28,0.75V63.8z M37.2,58.64c-1.19,0-2.3-0.02-3.29-0.07c-1.01-0.05-1.95-0.13-2.8-0.23l-1.32-0.16v-15.9
				h8.65c3.56,0,6.26,0.55,8.26,1.69c1.55,0.88,3.39,2.69,3.39,6.3c0,4.05-2.18,5.91-4.01,6.76C43.8,58.11,40.81,58.64,37.2,58.64z
				 M32.79,55.49c0.41,0.03,0.84,0.06,1.28,0.08c0.94,0.05,1.99,0.07,3.14,0.07c3.17,0,5.73-0.44,7.62-1.32
				c1.55-0.72,2.27-2.01,2.27-4.04c0-1.8-0.59-2.97-1.87-3.7c-1.52-0.86-3.8-1.3-6.78-1.3h-5.65V55.49z M36.83,36.6h-7.05V22.73
				l1.33-0.15c0.91-0.1,1.96-0.17,3.13-0.19c1.13-0.02,2.19-0.04,3.17-0.04c3.3,0,5.77,0.46,7.57,1.42
				c1.43,0.76,3.13,2.35,3.13,5.63c0,2.51-1.04,4.46-2.99,5.63C43.36,36.09,40.65,36.6,36.83,36.6z M32.79,33.6h4.05
				c4,0,5.88-0.62,6.75-1.14c0.66-0.39,1.53-1.14,1.53-3.06c0-1.92-0.82-2.6-1.54-2.98c-1.33-0.71-3.4-1.07-6.16-1.07
				c-0.96,0-2,0.01-3.11,0.04c-0.54,0.01-1.05,0.03-1.53,0.06V33.6z"/>
		</g>
		<g>
			<path class="st0" d="M124.73,40.5c0,4.33-0.65,8.14-1.93,11.42c-1.29,3.29-3.05,6.04-5.29,8.25c-2.24,2.22-4.9,3.88-7.99,5
				c-3.09,1.12-6.41,1.68-9.96,1.68c-3.46,0-6.72-0.56-9.78-1.68c-3.07-1.12-5.74-2.79-8.03-5c-2.29-2.21-4.09-4.96-5.4-8.25
				c-1.31-3.28-1.97-7.09-1.97-11.42c0-4.33,0.68-8.14,2.04-11.42c1.36-3.29,3.2-6.05,5.51-8.29c2.31-2.24,4.99-3.92,8.03-5.04
				c3.04-1.12,6.24-1.68,9.6-1.68c3.46,0,6.72,0.56,9.78,1.68c3.07,1.12,5.74,2.8,8.03,5.04c2.29,2.24,4.09,5,5.4,8.29
				C124.07,32.36,124.73,36.17,124.73,40.5z M86.11,40.5c0,2.48,0.3,4.72,0.91,6.72c0.61,2,1.48,3.71,2.63,5.15
				c1.14,1.44,2.54,2.54,4.2,3.32c1.65,0.78,3.55,1.17,5.69,1.17c2.09,0,3.98-0.39,5.66-1.17c1.68-0.78,3.09-1.89,4.23-3.32
				c1.14-1.44,2.02-3.15,2.63-5.15c0.61-1.99,0.91-4.23,0.91-6.72s-0.3-4.73-0.91-6.75c-0.61-2.02-1.48-3.75-2.63-5.18
				c-1.14-1.43-2.56-2.54-4.23-3.32c-1.68-0.78-3.57-1.17-5.66-1.17c-2.14,0-4.04,0.4-5.69,1.2c-1.66,0.8-3.05,1.92-4.2,3.36
				c-1.14,1.44-2.02,3.16-2.63,5.18C86.41,35.84,86.11,38.07,86.11,40.5z"/>
			<path class="st0" d="M99.54,68.35c-3.61,0-7.08-0.6-10.3-1.77c-3.25-1.19-6.13-2.98-8.56-5.33c-2.43-2.35-4.36-5.3-5.75-8.77
				c-1.38-3.45-2.08-7.48-2.08-11.98c0-4.51,0.73-8.55,2.16-12c1.43-3.46,3.4-6.41,5.85-8.79c2.45-2.37,5.33-4.18,8.56-5.37
				c3.19-1.18,6.6-1.77,10.12-1.77c3.61,0,7.08,0.6,10.3,1.77c3.25,1.19,6.13,3,8.56,5.37c2.43,2.38,4.36,5.34,5.75,8.8
				c1.38,3.45,2.08,7.48,2.08,11.98c0,4.5-0.69,8.53-2.04,11.97c-1.36,3.47-3.26,6.42-5.63,8.77c-2.38,2.36-5.26,4.16-8.54,5.34
				C106.77,67.76,103.25,68.35,99.54,68.35z M99.54,15.57c-3.16,0-6.22,0.53-9.08,1.59c-2.83,1.04-5.35,2.63-7.5,4.71
				c-2.15,2.09-3.89,4.71-5.17,7.78c-1.28,3.09-1.93,6.74-1.93,10.85c0,4.12,0.63,7.78,1.86,10.87c1.23,3.07,2.93,5.67,5.05,7.73
				c2.12,2.06,4.65,3.63,7.5,4.67c2.89,1.05,6.01,1.59,9.27,1.59c3.36,0,6.54-0.53,9.45-1.59c2.87-1.04,5.38-2.61,7.45-4.66
				c2.08-2.06,3.74-4.66,4.95-7.73c1.21-3.1,1.83-6.75,1.83-10.88c0-4.12-0.63-7.78-1.86-10.87c-1.23-3.07-2.93-5.69-5.06-7.77
				c-2.12-2.08-4.65-3.66-7.5-4.7C105.92,16.11,102.8,15.57,99.54,15.57z M99.54,58.35c-2.35,0-4.49-0.44-6.33-1.31
				c-1.86-0.87-3.45-2.13-4.73-3.74c-1.26-1.58-2.23-3.48-2.89-5.64c-0.65-2.12-0.98-4.53-0.98-7.15c0-2.57,0.33-4.96,0.98-7.11
				c0.66-2.19,1.63-4.11,2.89-5.68c1.28-1.61,2.87-2.88,4.72-3.77c1.85-0.9,3.99-1.35,6.35-1.35c2.3,0,4.42,0.44,6.29,1.31
				c1.88,0.87,3.49,2.13,4.78,3.75c1.26,1.58,2.23,3.49,2.89,5.69c0.65,2.15,0.98,4.57,0.98,7.19c0,2.62-0.33,5.02-0.98,7.15
				c-0.66,2.17-1.63,4.07-2.89,5.64c-1.29,1.61-2.89,2.88-4.78,3.75C103.96,57.91,101.84,58.35,99.54,58.35z M99.54,25.58
				c-1.9,0-3.6,0.35-5.04,1.05c-1.44,0.7-2.68,1.69-3.68,2.94c-1.02,1.28-1.81,2.85-2.37,4.68c-0.56,1.87-0.85,3.97-0.85,6.25
				c0,2.32,0.29,4.44,0.85,6.28c0.55,1.81,1.35,3.37,2.37,4.65c0.99,1.25,2.23,2.22,3.66,2.9c1.45,0.68,3.15,1.03,5.06,1.03
				c1.86,0,3.55-0.35,5.03-1.03c1.46-0.68,2.7-1.65,3.69-2.9c1.02-1.28,1.82-2.84,2.37-4.65c0.56-1.84,0.85-3.96,0.85-6.28
				c0-2.32-0.29-4.45-0.85-6.32c-0.55-1.83-1.35-3.4-2.37-4.68c-0.99-1.24-2.23-2.22-3.69-2.89
				C103.09,25.92,101.4,25.58,99.54,25.58z"/>
		</g>
		<g>
			<path class="st0" d="M154.95,15.24c0.88,1.61,1.89,3.59,3.04,5.95c1.15,2.36,2.34,4.92,3.59,7.67c1.24,2.75,2.48,5.56,3.7,8.43
				c1.22,2.87,2.37,5.57,3.44,8.1c1.07-2.53,2.22-5.23,3.44-8.1c1.22-2.87,2.45-5.68,3.7-8.43c1.24-2.75,2.44-5.3,3.59-7.67
				c1.15-2.36,2.16-4.34,3.04-5.95h10.37c0.49,3.36,0.94,7.12,1.35,11.28c0.41,4.16,0.78,8.49,1.09,12.99
				c0.32,4.5,0.61,9.02,0.88,13.54s0.5,8.79,0.69,12.77h-11.1c-0.15-4.92-0.34-10.27-0.58-16.06c-0.24-5.79-0.61-11.63-1.1-17.52
				c-0.88,2.04-1.86,4.31-2.93,6.79c-1.07,2.48-2.14,4.96-3.19,7.45c-1.05,2.48-2.06,4.85-3.04,7.12c-0.98,2.26-1.81,4.2-2.49,5.8
				h-7.96c-0.68-1.61-1.51-3.54-2.49-5.8c-0.98-2.26-1.99-4.64-3.04-7.12c-1.05-2.48-2.11-4.96-3.18-7.45
				c-1.07-2.48-2.05-4.75-2.93-6.79c-0.49,5.89-0.85,11.73-1.09,17.52c-0.24,5.79-0.44,11.15-0.58,16.06h-11.1
				c0.19-3.99,0.43-8.25,0.69-12.77c0.27-4.53,0.56-9.04,0.88-13.54c0.32-4.5,0.68-8.83,1.09-12.99c0.41-4.16,0.86-7.92,1.35-11.28
				H154.95z"/>
			<path class="st0" d="M198.42,67.33H184.3l-0.04-1.46c-0.14-4.83-0.34-10.23-0.58-16.04c-0.16-3.75-0.37-7.57-0.63-11.39
				c-0.17,0.39-0.34,0.79-0.52,1.19c-1.07,2.48-2.13,4.96-3.18,7.43c-1.05,2.49-2.07,4.86-3.04,7.13c-0.98,2.26-1.8,4.19-2.49,5.8
				l-0.39,0.91h-9.94L163.09,60c-0.68-1.6-1.51-3.54-2.49-5.8c-0.98-2.27-1.99-4.64-3.04-7.13c-1.05-2.48-2.11-4.96-3.18-7.44
				c-0.17-0.4-0.35-0.8-0.52-1.19c-0.26,3.83-0.47,7.64-0.63,11.39c-0.24,5.69-0.44,11.09-0.58,16.04l-0.04,1.46h-14.13l0.08-1.57
				c0.19-3.92,0.42-8.22,0.69-12.79c0.27-4.51,0.56-9.07,0.88-13.56c0.32-4.5,0.69-8.89,1.1-13.04c0.41-4.16,0.87-7.98,1.36-11.35
				l0.19-1.28h13.06l0.43,0.78c0.88,1.6,1.91,3.63,3.07,6.01c1.15,2.37,2.36,4.96,3.6,7.7c1.24,2.74,2.49,5.58,3.71,8.46l2.06,4.85
				l2.06-4.85c1.22-2.87,2.47-5.72,3.71-8.46c1.25-2.75,2.46-5.34,3.6-7.7c1.15-2.37,2.19-4.39,3.07-6.01l0.43-0.78h12.55l0.19,1.29
				c0.49,3.37,0.94,7.19,1.36,11.34c0.41,4.17,0.78,8.55,1.1,13.04c0.32,4.49,0.61,9.05,0.88,13.56c0.27,4.53,0.5,8.8,0.69,12.79
				L198.42,67.33z M187.21,64.33h8.06c-0.18-3.53-0.38-7.26-0.61-11.19c-0.27-4.5-0.56-9.05-0.88-13.52
				c-0.31-4.46-0.68-8.81-1.09-12.95c-0.36-3.59-0.75-6.93-1.16-9.93h-8.17c-0.76,1.43-1.63,3.15-2.58,5.1
				c-1.13,2.33-2.33,4.9-3.57,7.63c-1.23,2.73-2.47,5.55-3.68,8.4l-4.82,11.35l-4.82-11.36c-1.21-2.86-2.45-5.68-3.68-8.4
				c-1.23-2.72-2.43-5.29-3.57-7.63c-0.96-1.97-1.82-3.68-2.58-5.1h-8.68c-0.41,3-0.8,6.33-1.16,9.93
				c-0.41,4.12-0.78,8.48-1.09,12.95c-0.32,4.48-0.61,9.03-0.87,13.52c-0.23,3.95-0.44,7.71-0.62,11.19h8.06
				c0.14-4.56,0.32-9.47,0.54-14.62c0.24-5.78,0.61-11.69,1.1-17.58l0.5-6l2.38,5.53c0.88,2.04,1.85,4.3,2.93,6.79
				c1.08,2.49,2.14,4.97,3.19,7.46c1.05,2.48,2.06,4.85,3.04,7.11c0.8,1.85,1.5,3.49,2.1,4.9h5.98c0.6-1.41,1.3-3.05,2.1-4.9
				c0.97-2.26,1.99-4.63,3.03-7.11c1.05-2.49,2.11-4.97,3.19-7.46c1.07-2.48,2.05-4.74,2.93-6.79l2.38-5.53l0.5,6
				c0.49,5.89,0.85,11.8,1.1,17.58C186.89,54.96,187.07,59.87,187.21,64.33z"/>
		</g>
		<g>
			<path class="st0" d="M231.16,66.49c-2.77,0-5.54-0.09-8.29-0.26c-2.75-0.17-5.61-0.57-8.58-1.2V15.97
				c2.34-0.44,4.89-0.77,7.67-0.99c2.77-0.22,5.35-0.33,7.74-0.33c3.21,0,6.17,0.23,8.87,0.69c2.7,0.46,5.02,1.25,6.97,2.37
				c1.95,1.12,3.47,2.59,4.56,4.42c1.1,1.82,1.64,4.08,1.64,6.75c0,4.04-1.95,7.23-5.84,9.56c3.21,1.22,5.4,2.87,6.57,4.96
				c1.17,2.09,1.75,4.45,1.75,7.08c0,5.31-1.93,9.3-5.8,11.97C244.55,65.15,238.8,66.49,231.16,66.49z M225.39,35.1h5.55
				c3.5,0,6.01-0.45,7.52-1.35c1.51-0.9,2.26-2.35,2.26-4.34c0-2.04-0.78-3.48-2.34-4.31c-1.56-0.83-3.85-1.24-6.86-1.24
				c-0.97,0-2.02,0.01-3.14,0.04c-1.12,0.02-2.12,0.09-2.99,0.18V35.1z M225.39,43.79v13.07c0.83,0.1,1.73,0.17,2.7,0.22
				c0.97,0.05,2.04,0.07,3.21,0.07c3.41,0,6.16-0.49,8.25-1.46c2.09-0.97,3.14-2.77,3.14-5.4c0-2.34-0.88-4-2.63-5
				c-1.75-1-4.26-1.5-7.52-1.5H225.39z"/>
			<path class="st0" d="M231.16,67.99c-2.78,0-5.6-0.09-8.38-0.26c-2.82-0.18-5.78-0.59-8.8-1.23l-1.19-0.25V14.73l1.22-0.23
				c2.38-0.45,5.01-0.78,7.82-1.01c2.8-0.22,5.44-0.33,7.86-0.33c3.28,0,6.35,0.24,9.12,0.71c2.86,0.49,5.38,1.35,7.47,2.55
				c2.16,1.25,3.88,2.91,5.1,4.95c1.23,2.05,1.86,4.58,1.86,7.52c0,3.73-1.46,6.84-4.35,9.27c2.25,1.21,3.88,2.73,4.89,4.52
				c1.29,2.31,1.94,4.94,1.94,7.81c0,5.8-2.17,10.25-6.45,13.21C245.17,66.55,239.07,67.99,231.16,67.99z M215.79,63.8
				c2.46,0.48,4.87,0.79,7.17,0.93c2.72,0.17,5.47,0.25,8.19,0.25c7.29,0,12.82-1.26,16.41-3.75c3.47-2.4,5.16-5.91,5.16-10.74
				c0-2.36-0.53-4.49-1.56-6.35c-0.99-1.76-2.93-3.21-5.79-4.29l-2.89-1.1l2.65-1.59c3.44-2.06,5.11-4.77,5.11-8.28
				c0-2.39-0.48-4.4-1.43-5.98c-0.96-1.59-2.31-2.9-4.02-3.89c-1.78-1.03-3.96-1.76-6.48-2.19c-4.56-0.78-9.89-0.85-16.24-0.35
				c-2.23,0.18-4.34,0.43-6.28,0.75V63.8z M231.3,58.64c-1.19,0-2.3-0.02-3.29-0.07c-1.01-0.05-1.95-0.13-2.8-0.23l-1.32-0.16v-15.9
				h8.65c3.56,0,6.26,0.55,8.26,1.69c1.54,0.88,3.39,2.69,3.39,6.3c0,4.05-2.18,5.91-4.01,6.76
				C237.9,58.11,234.92,58.64,231.3,58.64z M226.89,55.49c0.41,0.03,0.83,0.06,1.28,0.08c0.94,0.05,1.99,0.07,3.14,0.07
				c3.17,0,5.73-0.44,7.62-1.32c1.55-0.72,2.27-2.01,2.27-4.04c0-1.8-0.59-2.97-1.87-3.7c-1.52-0.86-3.8-1.3-6.78-1.3h-5.65V55.49z
				 M230.94,36.6h-7.05V22.73l1.33-0.15c0.91-0.1,1.96-0.17,3.12-0.19c1.13-0.02,2.19-0.04,3.17-0.04c3.29,0,5.77,0.46,7.57,1.42
				c1.43,0.76,3.13,2.35,3.13,5.63c0,2.51-1.04,4.46-3,5.63C237.46,36.09,234.75,36.6,230.94,36.6z M226.89,33.6h4.05
				c4,0,5.88-0.62,6.75-1.14c0.66-0.39,1.53-1.14,1.53-3.06c0-1.92-0.82-2.6-1.54-2.98c-1.33-0.71-3.4-1.07-6.16-1.07
				c-0.96,0-2,0.01-3.11,0.04c-0.54,0.01-1.05,0.03-1.53,0.06V33.6z"/>
		</g>
		<g>
			<path class="st0" d="M303.86,65.83c-0.56-1.76-1.17-3.56-1.82-5.42c-0.65-1.85-1.29-3.7-1.94-5.53h-19.76
				c-0.64,1.85-1.28,3.69-1.92,5.55c-0.64,1.85-1.24,3.66-1.79,5.4h-11.83c1.9-5.45,3.71-10.49,5.42-15.11
				c1.71-4.62,3.38-8.98,5.01-13.07c1.64-4.09,3.25-7.97,4.83-11.64c1.59-3.67,3.24-7.26,4.94-10.77h10.79
				c1.66,3.5,3.3,7.09,4.91,10.77c1.61,3.67,3.24,7.56,4.88,11.64c1.64,4.09,3.31,8.44,5.02,13.07c1.71,4.62,3.52,9.66,5.43,15.11
				H303.86z M290.18,26.7c-0.25,0.73-0.63,1.73-1.12,3c-0.49,1.27-1.05,2.73-1.67,4.38c-0.62,1.66-1.32,3.48-2.1,5.48
				s-1.56,4.08-2.35,6.27h14.47c-0.77-2.19-1.52-4.29-2.25-6.29c-0.73-2-1.42-3.83-2.07-5.49c-0.65-1.66-1.23-3.12-1.72-4.38
				C290.88,28.41,290.48,27.42,290.18,26.7z"/>
			<path class="st0" d="M318.17,67.33h-15.41l-0.33-1.04c-0.57-1.77-1.17-3.58-1.8-5.38l-1.58-4.53h-17.62l-1.57,4.54
				c-0.63,1.82-1.23,3.63-1.78,5.36l-0.33,1.05H262.7l0.7-1.99c1.9-5.45,3.73-10.54,5.43-15.14c1.7-4.6,3.39-9.01,5.03-13.1
				c1.62-4.06,3.26-7.99,4.85-11.68c1.58-3.67,3.26-7.31,4.97-10.83l0.41-0.84h12.68l0.41,0.86c1.66,3.49,3.31,7.13,4.93,10.81
				c1.62,3.69,3.27,7.62,4.9,11.69c1.63,4.06,3.32,8.47,5.04,13.1c1.71,4.62,3.54,9.72,5.44,15.14L318.17,67.33z M304.95,64.33h8.99
				c-1.64-4.66-3.22-9.05-4.72-13.09c-1.71-4.61-3.39-9-5.01-13.03c-1.62-4.04-3.25-7.94-4.86-11.6c-1.47-3.35-2.98-6.67-4.49-9.87
				h-8.91c-1.55,3.21-3.07,6.53-4.51,9.86c-1.58,3.66-3.2,7.57-4.82,11.61c-1.63,4.07-3.31,8.45-5,13.03
				c-1.48,4.01-3.06,8.41-4.71,13.09h8.62c0.46-1.43,0.96-2.91,1.47-4.39l2.27-6.56h21.89l2.29,6.54
				C303.98,61.4,304.48,62.87,304.95,64.33z M299.53,47.33H280.8l0.74-2.01c0.81-2.22,1.6-4.34,2.37-6.3
				c0.77-1.99,1.47-3.81,2.09-5.46c0.63-1.66,1.18-3.13,1.67-4.4c0.48-1.24,0.85-2.23,1.1-2.95l1.28-3.7l1.52,3.61
				c0.31,0.73,0.71,1.73,1.21,3.01c0.49,1.26,1.06,2.72,1.72,4.38c0.67,1.69,1.37,3.55,2.08,5.52c0.73,2,1.48,4.1,2.25,6.3
				L299.53,47.33z M285.09,44.33h10.19c-0.52-1.47-1.04-2.9-1.54-4.28c-0.71-1.95-1.4-3.78-2.05-5.45
				c-0.55-1.39-1.04-2.63-1.47-3.75c-0.43,1.11-0.9,2.36-1.43,3.75c-0.63,1.66-1.33,3.49-2.1,5.49
				C286.17,41.44,285.64,42.86,285.09,44.33z"/>
		</g>
		<g>
			<path class="st0" d="M341.08,35.99c2.05-3.45,3.99-6.89,5.85-10.34c1.85-3.45,3.56-6.92,5.12-10.41h12.56
				c-2.77,5.45-5.65,10.73-8.61,15.84c-2.97,5.11-6.11,10.25-9.42,15.4v19.35h-11.39v-19.2c-3.31-5.16-6.46-10.32-9.45-15.48
				c-2.99-5.16-5.88-10.46-8.65-15.91h13.21c1.55,3.49,3.23,6.97,5.03,10.41C337.12,29.1,339.04,32.55,341.08,35.99z"/>
			<path class="st0" d="M348.07,67.33h-14.39V47.07c-3.21-5.02-6.32-10.12-9.25-15.16c-2.99-5.16-5.92-10.54-8.69-15.99l-1.11-2.18
				h16.63l0.4,0.89c1.54,3.45,3.22,6.93,4.99,10.33c1.39,2.67,2.88,5.37,4.43,8.07c1.56-2.69,3.08-5.4,4.52-8.08
				c1.82-3.39,3.53-6.86,5.07-10.31l0.4-0.89h15.97l-1.11,2.18c-2.77,5.44-5.68,10.79-8.65,15.91c-2.9,5-6,10.07-9.21,15.09V67.33z
				 M336.68,64.33h8.39V46.05l0.24-0.37c3.27-5.1,6.43-10.26,9.38-15.35c2.55-4.39,5.05-8.95,7.45-13.59h-9.13
				c-1.47,3.23-3.07,6.46-4.77,9.62c-1.86,3.46-3.84,6.96-5.88,10.39l-1.29,2.17l-1.29-2.18c-2.05-3.47-4.01-6.97-5.8-10.41
				c-1.65-3.16-3.22-6.39-4.67-9.6h-9.79c2.41,4.65,4.93,9.24,7.49,13.66c2.98,5.13,6.15,10.32,9.42,15.42l0.24,0.37V64.33z"/>
		</g>
		<g>
			<path class="st0" d="M67.46,144.74c1.61,0,2.93-0.13,3.98-0.4c1.05-0.27,1.89-0.63,2.52-1.09c0.63-0.46,1.07-1.01,1.31-1.64
				c0.24-0.63,0.36-1.34,0.36-2.12c0-1.65-0.78-3.03-2.34-4.12c-1.56-1.09-4.23-2.27-8.03-3.54c-1.65-0.58-3.31-1.25-4.96-2.01
				c-1.65-0.75-3.14-1.7-4.45-2.85c-1.31-1.14-2.38-2.53-3.21-4.16c-0.83-1.63-1.24-3.61-1.24-5.95c0-2.34,0.44-4.44,1.31-6.31
				c0.88-1.87,2.12-3.47,3.72-4.78c1.61-1.31,3.55-2.32,5.84-3.03c2.29-0.71,4.87-1.06,7.74-1.06c3.41,0,6.35,0.37,8.83,1.09
				c2.48,0.73,4.53,1.53,6.13,2.41l-3.29,8.98c-1.41-0.73-2.98-1.38-4.71-1.93c-1.73-0.56-3.81-0.84-6.24-0.84
				c-2.73,0-4.68,0.38-5.88,1.13c-1.19,0.75-1.79,1.91-1.79,3.47c0,0.93,0.22,1.7,0.66,2.34s1.06,1.2,1.86,1.71
				c0.8,0.51,1.73,0.97,2.77,1.39c1.05,0.41,2.2,0.84,3.47,1.28c2.63,0.97,4.92,1.93,6.86,2.88c1.95,0.95,3.56,2.06,4.85,3.32
				c1.29,1.27,2.25,2.75,2.88,4.45c0.63,1.7,0.95,3.77,0.95,6.21c0,4.72-1.65,8.38-4.96,10.99c-3.31,2.6-8.3,3.91-14.96,3.91
				c-2.24,0-4.26-0.13-6.06-0.4c-1.8-0.27-3.39-0.6-4.78-0.99c-1.39-0.39-2.58-0.8-3.58-1.24c-1-0.44-1.84-0.85-2.52-1.24l3.21-9.05
				c1.51,0.83,3.37,1.57,5.58,2.23C61.53,144.41,64.24,144.74,67.46,144.74z"/>
			<path class="st0" d="M67.46,155.95c-2.3,0-4.41-0.14-6.28-0.42c-1.86-0.28-3.53-0.62-4.97-1.02c-1.45-0.41-2.72-0.85-3.77-1.31
				c-1.04-0.46-1.94-0.9-2.66-1.31l-1.09-0.62l4.22-11.9l1.55,0.85c1.41,0.77,3.19,1.48,5.29,2.1c2.07,0.61,4.66,0.92,7.71,0.92
				c1.47,0,2.69-0.12,3.61-0.36c0.86-0.22,1.53-0.5,2-0.85c0.4-0.29,0.66-0.61,0.8-0.97c0.17-0.46,0.26-0.99,0.26-1.58
				c0-1.16-0.54-2.08-1.7-2.9c-1.43-1.01-4-2.13-7.64-3.35c-1.73-0.61-3.44-1.3-5.11-2.07c-1.78-0.81-3.4-1.85-4.81-3.08
				c-1.45-1.26-2.65-2.82-3.56-4.61c-0.93-1.83-1.4-4.06-1.4-6.63c0-2.55,0.49-4.88,1.46-6.95c0.97-2.07,2.36-3.86,4.13-5.31
				c1.75-1.43,3.89-2.54,6.35-3.3c2.42-0.75,5.17-1.12,8.18-1.12c3.53,0,6.65,0.39,9.26,1.16c2.57,0.76,4.74,1.61,6.43,2.53
				l1.13,0.62l-4.31,11.79L81,115.49c-1.33-0.69-2.84-1.31-4.48-1.84c-1.57-0.51-3.52-0.77-5.78-0.77c-3.02,0-4.43,0.49-5.07,0.9
				c-0.75,0.48-1.09,1.16-1.09,2.2c0,0.62,0.13,1.1,0.39,1.48c0.32,0.46,0.8,0.9,1.43,1.3c0.72,0.46,1.57,0.88,2.52,1.26
				c1.02,0.41,2.17,0.83,3.41,1.25c2.7,1,5.06,1.99,7.03,2.95c2.08,1.02,3.85,2.23,5.25,3.6c1.44,1.42,2.53,3.1,3.24,5
				c0.69,1.87,1.04,4.13,1.04,6.73c0,5.18-1.86,9.28-5.54,12.17C79.78,154.53,74.44,155.95,67.46,155.95z M52.37,149.86
				c0.39,0.19,0.81,0.39,1.27,0.59c0.93,0.41,2.07,0.8,3.38,1.17c1.32,0.37,2.87,0.69,4.6,0.95c1.72,0.26,3.69,0.39,5.84,0.39
				c6.29,0,11.01-1.21,14.04-3.58c2.96-2.32,4.39-5.53,4.39-9.81c0-2.24-0.29-4.15-0.85-5.68c-0.55-1.48-1.4-2.8-2.53-3.9
				c-1.17-1.15-2.67-2.17-4.46-3.04c-1.88-0.92-4.15-1.87-6.73-2.83c-1.25-0.43-2.44-0.87-3.5-1.29c-1.12-0.44-2.14-0.95-3.03-1.52
				c-0.97-0.62-1.74-1.33-2.29-2.13c-0.61-0.89-0.92-1.96-0.92-3.19c0-2.07,0.86-3.71,2.49-4.73c1.45-0.92,3.64-1.36,6.68-1.36
				c2.58,0,4.83,0.31,6.7,0.91c1.2,0.39,2.34,0.82,3.41,1.29l2.26-6.17c-1.31-0.61-2.88-1.18-4.69-1.71
				c-2.33-0.69-5.16-1.03-8.41-1.03c-2.71,0-5.16,0.33-7.3,0.99c-2.09,0.64-3.88,1.57-5.33,2.76c-1.42,1.16-2.54,2.6-3.31,4.26
				c-0.78,1.66-1.17,3.58-1.17,5.68c0,2.09,0.36,3.86,1.08,5.27c0.74,1.45,1.7,2.7,2.86,3.71c1.2,1.04,2.58,1.92,4.09,2.61
				c1.6,0.73,3.22,1.39,4.84,1.96c3.95,1.32,6.7,2.54,8.39,3.73c1.95,1.37,2.97,3.22,2.97,5.35c0,0.96-0.16,1.85-0.46,2.66
				c-0.35,0.91-0.96,1.68-1.83,2.32c-0.79,0.57-1.81,1.02-3.03,1.34c-1.18,0.3-2.6,0.45-4.35,0.45c-3.34,0-6.22-0.35-8.57-1.05
				c-1.6-0.47-3.04-1-4.31-1.57L52.37,149.86z"/>
		</g>
		<g>
			<path class="st0" d="M139.51,102.84v9.71h-15.26v40.88h-11.39v-40.88H97.6v-9.71H139.51z"/>
			<path class="st0" d="M125.75,154.93h-14.39v-40.88H96.1v-12.71h44.9v12.71h-15.26V154.93z M114.36,151.93h8.39v-40.88h15.26
				v-6.71H99.1v6.71h15.26V151.93z"/>
		</g>
		<g>
			<path class="st0" d="M173.89,154.45c-3.55,0-6.62-0.5-9.2-1.5c-2.58-1-4.71-2.38-6.39-4.16c-1.68-1.78-2.92-3.89-3.72-6.35
				c-0.8-2.46-1.2-5.17-1.2-8.14v-31.46h11.39v30.51c0,2.04,0.23,3.79,0.69,5.22c0.46,1.44,1.1,2.6,1.9,3.5
				c0.8,0.9,1.78,1.55,2.92,1.93c1.14,0.39,2.4,0.58,3.76,0.58c2.77,0,5.02-0.85,6.75-2.55c1.73-1.7,2.59-4.6,2.59-8.69v-30.51
				h11.39v31.46c0,2.97-0.41,5.69-1.24,8.18c-0.83,2.48-2.09,4.61-3.8,6.39c-1.7,1.78-3.87,3.15-6.5,4.12
				C180.61,153.97,177.49,154.45,173.89,154.45z"/>
			<path class="st0" d="M173.89,155.95c-3.72,0-7-0.54-9.74-1.6c-2.78-1.07-5.11-2.6-6.94-4.53c-1.82-1.93-3.19-4.25-4.06-6.92
				c-0.85-2.6-1.28-5.49-1.28-8.61v-32.96h14.39v32.01c0,1.88,0.21,3.48,0.62,4.76c0.4,1.23,0.93,2.23,1.59,2.97
				c0.63,0.71,1.38,1.21,2.28,1.51c0.98,0.33,2.08,0.5,3.28,0.5c2.39,0,4.25-0.69,5.7-2.12c1.42-1.4,2.14-3.97,2.14-7.62v-32.01
				h14.39v32.96c0,3.12-0.44,6.03-1.32,8.65c-0.89,2.68-2.29,5.02-4.14,6.95c-1.85,1.93-4.23,3.45-7.06,4.49
				C180.97,155.43,177.65,155.95,173.89,155.95z M154.88,104.34v29.96c0,2.8,0.38,5.38,1.13,7.67c0.73,2.24,1.87,4.18,3.39,5.79
				c1.52,1.61,3.48,2.88,5.84,3.79c2.4,0.93,5.31,1.4,8.66,1.4c3.41,0,6.37-0.46,8.82-1.37c2.4-0.89,4.4-2.15,5.94-3.76
				c1.54-1.61,2.7-3.57,3.46-5.82c0.77-2.32,1.16-4.91,1.16-7.7v-29.96h-8.39v29.01c0,4.55-0.99,7.74-3.04,9.76
				c-2.01,1.98-4.64,2.99-7.81,2.99c-1.52,0-2.95-0.22-4.24-0.66c-1.39-0.47-2.58-1.26-3.56-2.36c-0.94-1.05-1.68-2.41-2.21-4.04
				c-0.51-1.57-0.77-3.48-0.77-5.68v-29.01H154.88z"/>
		</g>
		<g>
			<path class="st0" d="M257.33,128.1c0,4.38-0.68,8.2-2.04,11.46c-1.36,3.26-3.3,5.96-5.8,8.1c-2.51,2.14-5.56,3.75-9.16,4.82
				c-3.6,1.07-7.64,1.61-12.12,1.61c-2.04,0-4.43-0.09-7.15-0.26c-2.73-0.17-5.4-0.52-8.03-1.06V103.5
				c2.63-0.49,5.37-0.81,8.21-0.99c2.85-0.17,5.29-0.26,7.34-0.26c4.33,0,8.26,0.49,11.79,1.46c3.53,0.97,6.56,2.51,9.09,4.6
				c2.53,2.09,4.48,4.77,5.84,8.03C256.65,119.61,257.33,123.53,257.33,128.1z M224.4,144.16c0.54,0.05,1.16,0.09,1.86,0.11
				c0.71,0.02,1.54,0.04,2.52,0.04c5.69,0,9.92-1.43,12.67-4.31c2.75-2.87,4.12-6.84,4.12-11.9c0-5.3-1.31-9.32-3.94-12.04
				c-2.63-2.72-6.79-4.09-12.48-4.09c-0.78,0-1.58,0.01-2.41,0.04c-0.83,0.03-1.61,0.09-2.34,0.18V144.16z"/>
			<path class="st0" d="M228.2,155.59c-2.06,0-4.49-0.09-7.25-0.26c-2.79-0.17-5.56-0.54-8.24-1.09l-1.2-0.25v-51.75l1.23-0.23
				c2.67-0.5,5.5-0.83,8.4-1.01c2.87-0.17,5.37-0.26,7.43-0.26c4.44,0,8.54,0.51,12.19,1.51c3.72,1.03,6.96,2.67,9.65,4.89
				c2.71,2.24,4.82,5.14,6.27,8.61c1.43,3.43,2.16,7.58,2.16,12.33c0,4.56-0.73,8.61-2.16,12.04c-1.45,3.46-3.54,6.38-6.21,8.67
				c-2.66,2.27-5.93,3.99-9.71,5.11C237.02,155.03,232.8,155.59,228.2,155.59z M214.52,151.53c2.16,0.39,4.39,0.66,6.62,0.8
				c2.69,0.17,5.07,0.25,7.06,0.25c4.31,0,8.24-0.52,11.69-1.54c3.38-1,6.28-2.52,8.62-4.52c2.31-1.98,4.13-4.51,5.39-7.54
				c1.28-3.06,1.93-6.72,1.93-10.88c0-4.35-0.65-8.11-1.93-11.17c-1.26-3.02-3.08-5.52-5.41-7.45c-2.35-1.95-5.22-3.4-8.53-4.31
				c-3.38-0.93-7.22-1.41-11.39-1.41c-1.99,0-4.43,0.08-7.25,0.25c-2.33,0.14-4.62,0.39-6.8,0.75V151.53z M228.78,145.81
				c-0.99,0-1.85-0.01-2.57-0.04c-0.74-0.03-1.39-0.06-1.95-0.12l-1.36-0.13v-34.66l1.3-0.17c0.77-0.1,1.61-0.17,2.49-0.19
				c0.84-0.02,1.66-0.04,2.46-0.04c6.09,0,10.65,1.53,13.56,4.55c2.89,3,4.36,7.41,4.36,13.09c0,5.44-1.53,9.79-4.54,12.94
				C239.5,144.2,234.88,145.81,228.78,145.81z M225.9,142.75c0.13,0.01,0.27,0.01,0.41,0.02c0.69,0.02,1.51,0.04,2.47,0.04
				c5.24,0,9.14-1.29,11.58-3.84c2.46-2.57,3.71-6.22,3.71-10.86c0-4.88-1.18-8.58-3.52-11c-2.32-2.41-6.16-3.63-11.4-3.63
				c-0.77,0-1.55,0.01-2.37,0.04c-0.3,0.01-0.59,0.02-0.88,0.04V142.75z"/>
		</g>
		<g>
			<path class="st0" d="M274.12,102.84h11.39v50.59h-11.39V102.84z"/>
			<path class="st0" d="M287.01,154.93h-14.39v-53.59h14.39V154.93z M275.62,151.93h8.39v-47.59h-8.39V151.93z"/>
		</g>
		<g>
			<path class="st0" d="M352.67,128.1c0,4.33-0.65,8.14-1.93,11.42c-1.29,3.29-3.05,6.04-5.29,8.25c-2.24,2.21-4.9,3.88-7.99,5
				s-6.41,1.68-9.96,1.68c-3.46,0-6.72-0.56-9.78-1.68s-5.74-2.79-8.03-5c-2.29-2.21-4.09-4.96-5.4-8.25
				c-1.31-3.29-1.97-7.09-1.97-11.42c0-4.33,0.68-8.14,2.04-11.42c1.36-3.29,3.2-6.05,5.51-8.29c2.31-2.24,4.99-3.92,8.03-5.04
				c3.04-1.12,6.24-1.68,9.6-1.68c3.46,0,6.72,0.56,9.78,1.68c3.07,1.12,5.74,2.8,8.03,5.04c2.29,2.24,4.09,5,5.4,8.29
				C352.01,119.96,352.67,123.77,352.67,128.1z M314.05,128.1c0,2.48,0.3,4.72,0.91,6.72c0.61,2,1.48,3.71,2.63,5.15
				c1.14,1.44,2.54,2.54,4.2,3.32c1.65,0.78,3.55,1.17,5.69,1.17c2.09,0,3.98-0.39,5.66-1.17c1.68-0.78,3.09-1.88,4.23-3.32
				c1.14-1.43,2.02-3.15,2.63-5.15c0.61-2,0.91-4.23,0.91-6.72s-0.3-4.73-0.91-6.75c-0.61-2.02-1.49-3.75-2.63-5.18
				c-1.14-1.43-2.56-2.54-4.23-3.32c-1.68-0.78-3.57-1.17-5.66-1.17c-2.14,0-4.04,0.4-5.69,1.21c-1.66,0.8-3.05,1.92-4.2,3.36
				c-1.14,1.44-2.02,3.16-2.63,5.18C314.35,123.44,314.05,125.67,314.05,128.1z"/>
			<path class="st0" d="M327.48,155.95c-3.61,0-7.08-0.6-10.3-1.77c-3.25-1.19-6.13-2.98-8.56-5.33c-2.43-2.35-4.36-5.3-5.75-8.77
				c-1.38-3.45-2.08-7.48-2.08-11.98c0-4.51,0.73-8.55,2.16-12c1.43-3.46,3.4-6.42,5.85-8.79c2.45-2.38,5.33-4.18,8.56-5.37
				c3.2-1.18,6.6-1.77,10.12-1.77c3.61,0,7.08,0.6,10.3,1.77c3.25,1.19,6.13,3,8.56,5.37c2.43,2.38,4.36,5.34,5.75,8.8
				c1.38,3.45,2.08,7.48,2.08,11.98c0,4.5-0.69,8.53-2.04,11.97c-1.36,3.47-3.26,6.42-5.63,8.77c-2.38,2.36-5.26,4.16-8.54,5.34
				C334.71,155.36,331.19,155.95,327.48,155.95z M327.48,103.17c-3.16,0-6.22,0.53-9.08,1.59c-2.83,1.04-5.35,2.62-7.5,4.71
				c-2.15,2.09-3.89,4.71-5.17,7.78c-1.28,3.09-1.93,6.74-1.93,10.85c0,4.12,0.63,7.78,1.86,10.87c1.23,3.07,2.93,5.67,5.05,7.73
				c2.12,2.06,4.65,3.63,7.5,4.67c2.89,1.05,6.01,1.59,9.27,1.59c3.36,0,6.54-0.54,9.45-1.59c2.87-1.04,5.38-2.61,7.45-4.66
				c2.08-2.06,3.74-4.66,4.95-7.73c1.21-3.1,1.83-6.76,1.83-10.88c0-4.12-0.63-7.78-1.86-10.87c-1.23-3.07-2.93-5.69-5.06-7.77
				c-2.12-2.08-4.65-3.66-7.49-4.7C333.86,103.71,330.74,103.17,327.48,103.17z M327.48,145.95c-2.35,0-4.49-0.44-6.33-1.31
				c-1.86-0.87-3.45-2.13-4.73-3.75c-1.26-1.57-2.23-3.47-2.89-5.64c-0.65-2.12-0.98-4.53-0.98-7.15c0-2.57,0.33-4.96,0.98-7.11
				c0.66-2.19,1.63-4.1,2.89-5.68c1.28-1.61,2.87-2.88,4.72-3.77c1.85-0.9,3.99-1.36,6.35-1.36c2.3,0,4.42,0.44,6.29,1.31
				c1.88,0.88,3.49,2.13,4.78,3.75c1.26,1.58,2.23,3.49,2.89,5.68c0.65,2.16,0.98,4.57,0.98,7.19c0,2.62-0.33,5.02-0.98,7.15
				c-0.66,2.17-1.63,4.07-2.89,5.64c-1.29,1.62-2.89,2.88-4.78,3.75C331.9,145.51,329.78,145.95,327.48,145.95z M327.48,113.17
				c-1.9,0-3.6,0.35-5.04,1.05c-1.44,0.7-2.68,1.69-3.68,2.94c-1.02,1.28-1.82,2.85-2.36,4.68c-0.56,1.87-0.85,3.97-0.85,6.25
				c0,2.32,0.29,4.44,0.85,6.28c0.55,1.81,1.35,3.37,2.37,4.65c0.99,1.25,2.23,2.22,3.66,2.9c1.45,0.68,3.15,1.03,5.06,1.03
				c1.86,0,3.55-0.35,5.03-1.03c1.46-0.67,2.7-1.65,3.69-2.9c1.02-1.28,1.81-2.84,2.37-4.65c0.56-1.85,0.85-3.96,0.85-6.28
				c0-2.32-0.29-4.45-0.85-6.32c-0.55-1.82-1.35-3.4-2.37-4.68c-0.99-1.24-2.24-2.22-3.69-2.89
				C331.03,113.52,329.34,113.17,327.48,113.17z"/>
		</g>
	</g>
	<g>
		<g>
			<ellipse class="st0" cx="99.07" cy="39.86" rx="12.6" ry="14.18"/>
		</g>
		<g>
			<path class="st0" d="M99.07,55.54c-7.78,0-14.1-7.03-14.1-15.68s6.33-15.68,14.1-15.68s14.1,7.03,14.1,15.68
				S106.84,55.54,99.07,55.54z M99.07,27.18c-6.12,0-11.1,5.69-11.1,12.68s4.98,12.68,11.1,12.68s11.1-5.69,11.1-12.68
				S105.19,27.18,99.07,27.18z"/>
		</g>
	</g>
	<g>
		<g>
			<ellipse class="st0" cx="326.8" cy="127.75" rx="12.6" ry="14.18"/>
		</g>
		<g>
			<path class="st0" d="M326.8,143.42c-7.78,0-14.1-7.03-14.1-15.68s6.33-15.68,14.1-15.68c7.78,0,14.1,7.03,14.1,15.68
				S334.58,143.42,326.8,143.42z M326.8,115.07c-6.12,0-11.1,5.69-11.1,12.68s4.98,12.68,11.1,12.68c6.12,0,11.1-5.69,11.1-12.68
				S332.93,115.07,326.8,115.07z"/>
		</g>
	</g>
</g>
</svg>
