<svg id="Capa_1" enable-background="new 0 0 512 512" height="512" viewBox="0 0 512 512" width="512" xmlns="http://www.w3.org/2000/svg"><g><g><path d="m504.5 106.496h-497v343.455c0 11.158 9.045 20.203 20.203 20.203h456.593c11.158 0 20.203-9.045 20.203-20.203v-343.455z" fill="#edf6ff"/></g><g><path d="m477.226 106.496v343.455c0 11.158-9.045 20.203-20.203 20.203h27.274c11.158 0 20.203-9.045 20.203-20.203v-343.455z" fill="#ddebfd"/></g><g><path d="m484.297 41.846h-456.594c-11.158 0-20.203 9.045-20.203 20.203v44.447h497v-44.447c0-11.158-9.045-20.203-20.203-20.203z" fill="#4172ca"/></g><g><path d="m484.297 41.846h-27.274c11.158 0 20.203 9.045 20.203 20.203v44.447h27.274v-44.447c0-11.158-9.045-20.203-20.203-20.203z" fill="#3a67c1"/></g><g><circle cx="256" cy="288.325" fill="#a2f5c3" r="141.423"/></g><g><path d="m335.855 171.599c15.577 22.725 24.697 50.223 24.697 79.855 0 78.106-63.317 141.423-141.423 141.423-29.632 0-57.13-9.12-79.855-24.697 25.481 37.175 68.252 61.568 116.726 61.568 78.106 0 141.423-63.317 141.423-141.423 0-48.474-24.393-91.245-61.568-116.726z" fill="#88f2a9"/></g><g><circle cx="256" cy="288.325" fill="#77d192" r="109.098"/></g><g><circle cx="256" cy="227.715" fill="#edf6ff" r="16.163"/></g><g><path d="m256 274.183c-8.926 0-16.163 7.236-16.163 16.163v58.589c0 8.926 7.236 16.163 16.163 16.163 8.926 0 16.163-7.236 16.163-16.163v-58.589c0-8.927-7.237-16.163-16.163-16.163z" fill="#edf6ff"/></g><g><path d="m72 462.65h-44.3c-7.003 0-12.7-5.697-12.7-12.7v-335.95h390c4.143 0 7.5-3.358 7.5-7.5s-3.357-7.5-7.5-7.5h-390v-36.95c0-7.002 5.697-12.7 12.7-12.7h44.3c4.143 0 7.5-3.358 7.5-7.5s-3.357-7.5-7.5-7.5h-44.3c-15.273 0-27.7 12.426-27.7 27.7v387.9c0 15.273 12.427 27.7 27.7 27.7h44.3c4.143 0 7.5-3.358 7.5-7.5s-3.357-7.5-7.5-7.5z"/><path d="m484.3 34.35h-377.3c-4.143 0-7.5 3.358-7.5 7.5s3.357 7.5 7.5 7.5h377.3c7.003 0 12.7 5.697 12.7 12.7v36.95h-57c-4.143 0-7.5 3.358-7.5 7.5s3.357 7.5 7.5 7.5h57v335.95c0 7.002-5.697 12.7-12.7 12.7h-377.3c-4.143 0-7.5 3.358-7.5 7.5s3.357 7.5 7.5 7.5h377.3c15.273 0 27.7-12.426 27.7-27.7v-387.9c0-15.274-12.427-27.7-27.7-27.7z"/><circle cx="449.951" cy="74.171" r="8.081"/><circle cx="417.626" cy="74.171" r="8.081"/><circle cx="385.301" cy="74.171" r="8.081"/><path d="m107.077 288.325c0 82.116 66.807 148.923 148.923 148.923s148.923-66.807 148.923-148.923-66.807-148.923-148.923-148.923-148.923 66.807-148.923 148.923zm282.846 0c0 73.845-60.077 133.923-133.923 133.923s-133.923-60.078-133.923-133.923 60.077-133.923 133.923-133.923 133.923 60.078 133.923 133.923z"/><path d="m139.402 288.325c0 64.292 52.306 116.598 116.598 116.598s116.598-52.306 116.598-116.598-52.306-116.597-116.598-116.597-116.598 52.305-116.598 116.597zm218.196 0c0 56.021-45.576 101.598-101.598 101.598s-101.598-45.577-101.598-101.598 45.577-101.597 101.598-101.597 101.598 45.576 101.598 101.597z"/><path d="m232.337 227.715c0 13.047 10.615 23.663 23.663 23.663s23.663-10.615 23.663-23.663-10.615-23.662-23.663-23.662-23.663 10.615-23.663 23.662zm32.326 0c0 4.776-3.887 8.663-8.663 8.663s-8.663-3.886-8.663-8.663 3.887-8.663 8.663-8.663 8.663 3.887 8.663 8.663z"/><path d="m256 266.683c-13.048 0-23.663 10.615-23.663 23.663v58.589c0 13.047 10.615 23.663 23.663 23.663s23.663-10.615 23.663-23.663v-58.589c0-13.048-10.615-23.663-23.663-23.663zm8.663 82.252c0 4.776-3.887 8.663-8.663 8.663s-8.663-3.886-8.663-8.663v-58.589c0-4.776 3.887-8.663 8.663-8.663s8.663 3.886 8.663 8.663z"/></g></g></svg>