<?xml version="1.0" encoding="utf-8"?>
<!-- Generator: Adobe Illustrator 21.0.0, SVG Export Plug-In . SVG Version: 6.00 Build 0)  -->
<svg version="1.1" id="Layer_1" xmlns="http://www.w3.org/2000/svg" xmlns:xlink="http://www.w3.org/1999/xlink" x="0px" y="0px"
	 viewBox="0 0 230.5 53.7" style="enable-background:new 0 0 230.5 53.7;" xml:space="preserve">
<style type="text/css">
	.st0{fill:none;stroke:#9B994A;stroke-width:1.53;stroke-miterlimit:10;}
	.st1{fill:#FFFFFF;}
	.st2{fill:#9B994A;}
</style>
<title>logo</title>
<path class="st0" d="M88.3,0.8h40.9c0,0,0,52.2-20.4,52.2 M89.1,0.8c0,0-0.3,52.2,20.1,52.2l0.1-52.2 M89.7,16.8h20 M109.3,26.7
	l20-26 M93.3,34.6h16.3"/>
<path class="st1" d="M0,19.7h1.7l4,12.4l0,0l-0.1-3.3v-9.1h1.5v14.8H5.4L1.3,22l0,0l0.1,3.4v9H0V19.7z"/>
<path class="st1" d="M19.8,27.1c0,1.9,0.1,7.6-3.9,7.6s-3.9-5.7-3.9-7.6c0-2.4,0.1-7.6,3.9-7.6C19.9,19.5,19.8,25.2,19.8,27.1z
	 M13.7,27.1c0,4,0.4,6.2,2.3,6.2c2.4,0,2.3-3.6,2.3-6.2c0-2.8,0.1-6.2-2.3-6.2S13.7,25,13.7,27.1z"/>
<path class="st1" d="M24.7,34.5v-1.3h1.1V21h-1.1v-1.3h4.3c1.5,0,3,1.3,3,3.7c0.1,1.1-0.4,2.2-1.4,2.8c1.4,0.7,2.3,2.2,2.1,3.8
	c0,3-1.6,4.5-3.4,4.5H24.7z M28.4,25.8c1.4,0,2.1-0.8,2.1-2.4c0-1.9-0.8-2.4-2.5-2.4h-0.8v4.8H28.4z M29.1,33.2c1.2,0,2.1-1,2.1-3.2
	s-1-2.9-2.4-2.9h-1.5v6.1H29.1z"/>
<path class="st1" d="M40.1,21h-1.8v-1.3h5.1V21h-1.9v12.2h1.9v1.3h-5v-1.3h1.8V21z"/>
<path class="st1" d="M50.5,19.7h1.4v13.5h5.6v1.3h-7.1C50.4,34.5,50.5,19.7,50.5,19.7z"/>
<path class="st1" d="M64.9,21H63v-1.3h5.2V21h-1.9v12.2h1.9v1.3H63v-1.3h1.8L64.9,21z"/>
<path class="st1" d="M79.9,23.1c-0.2-1.1-0.7-2.2-1.9-2.2s-1.8,1.1-1.8,2.4s0.2,1.5,2.4,2.9c1.7,1.1,2.8,2,2.8,4.3s-1.1,4.1-3.5,4.1
	s-3.3-1.7-3.5-4.1l1.4-0.2c0.2,1.6,0.5,2.9,2.2,2.9c1.2,0,2-0.9,2-2.6c0-2-1.2-2.6-2.6-3.5c-1.6-1-2.6-1.7-2.6-3.9
	c0-2,1.2-3.8,3.2-3.8s2.9,1.5,3.2,3.4L79.9,23.1z"/>
<path class="st1" d="M141.4,23.3c-0.2-1.1-0.7-2.2-1.9-2.2s-1.8,1.1-1.8,2.4s0.2,1.5,2.4,2.9c1.7,1.1,2.8,2,2.8,4.3
	s-1.1,4.1-3.4,4.1s-3.3-1.7-3.5-4.1l1.4-0.2c0.2,1.6,0.5,2.9,2.2,2.9c1.2,0,2-0.9,2-2.6c0-2-1.2-2.6-2.6-3.5c-1.6-1-2.6-1.7-2.6-3.9
	c0-2,1.2-3.8,3.2-3.8s2.9,1.5,3.2,3.4L141.4,23.3z"/>
<path class="st1" d="M148.9,19.9h6.7v1.3h-5.4v4.9h4.4v1.3h-4.4v5.9h5.4v1.3h-6.7V19.9z"/>
<path class="st1" d="M168.2,32.5c-0.6,1.4-2,2.3-3.5,2.4c-3.5,0-4.1-4.7-4.1-7.6s0.5-7.6,4.1-7.6c1.5,0.1,2.8,1,3.3,2.4l-1.2,0.8
	c-0.3-1-1.2-1.7-2.2-1.7c-2.5,0-2.7,4.3-2.7,6.2s0.2,6.2,2.7,6.2c1.1-0.2,2-0.9,2.4-1.9L168.2,32.5z"/>
<path class="st1" d="M174.6,19.9v10.8c0,1.4,0.3,2.8,2,2.8s2-1.4,2-2.8V19.9h1.4v11.2c0,2.3-1.3,3.8-3.3,3.8s-3.3-1.5-3.3-3.7V19.9
	H174.6z"/>
<path class="st1" d="M186.2,19.9h3.7c1.3,0,3,1.3,3,3.9c0,1.9-0.7,3.6-2.3,4.1l2.8,6.3l-1.2,0.7l-3.1-6.9h-1.5v6.7h-1.4L186.2,19.9z
	 M187.6,26.8h2c1.2,0,1.9-1,1.9-2.9s-0.9-2.6-2.2-2.6h-1.7L187.6,26.8z"/>
<path class="st1" d="M200.7,21.2h-1.8v-1.3h5.2v1.3h-2v12.2h1.9v1.3h-5.2v-1.3h1.8L200.7,21.2L200.7,21.2z"/>
<path class="st1" d="M213.2,21.2h-3v-1.3h7.3v1.3h-3v13.5h-1.3L213.2,21.2z"/>
<path class="st1" d="M229.2,19.6l1.3,0.5l-3.5,8.7v5.9h-1.4v-5.9l-3.5-8.7l1.3-0.5l2.9,7.5L229.2,19.6z"/>
<g>
	<path class="st2" d="M95,5.5h1.4l3.4,6.5l0,0l-0.1-1.7V5.5h1.1v7.8h-1.4l-3.4-6.6l0,0l0.1,1.7v4.8H95V5.5z"/>
	<path class="st2" d="M103.3,11.5h1.6v1.7h-1.6V11.5z"/>
</g>
<g>
	<path class="st2" d="M116.9,30.1c-0.2-0.7-0.5-1.3-1.4-1.3c-0.9,0-1.3,0.7-1.3,1.4s0.2,0.9,1.7,1.7c1.2,0.7,2.1,1.2,2.1,2.5
		s-0.8,2.4-2.5,2.4c-1.7,0-2.4-1-2.5-2.4l1-0.1c0.2,0.9,0.4,1.7,1.6,1.7c0.8,0,1.4-0.5,1.4-1.5c0-1.1-0.8-1.5-1.9-2.1
		c-1.1-0.6-1.9-1-1.9-2.3c0-1.2,0.9-2.2,2.3-2.2c1.4,0,2.1,0.9,2.4,1.9L116.9,30.1z"/>
	<path class="st2" d="M119.9,34.8h1.4v1.9h-1.4V34.8z"/>
</g>
</svg>
