<!--?xml version="1.0" encoding="utf-8"?-->
<!-- Generator: Adobe Illustrator 22.0.0, SVG Export Plug-In . SVG Version: 6.00 Build 0)  -->
<svg version="1.1" id="Original" xmlns="http://www.w3.org/2000/svg" xmlns:xlink="http://www.w3.org/1999/xlink" x="500px" y="500px" viewBox="0 0 263.5 155.5" style="" xml:space="preserve" class="">
<style type="text/css">
	.st0{fill:#9B994A;}
	.st1{fill:none;stroke:#9B994A;stroke-width:3;stroke-miterlimit:10;}
	.st2{
    fill: #fff;
  }
  .std2 {
      position: relative;
      top: -webkit-calc(50% - 60px);
      top: calc(50% - 60px);
      text-shadow: 0px 0px 3px white;
  }
  .st3 {
      animation-delay: 3.45s !important;
  }
  .st4 {
      animation-delay: 3.6s !important;
  }
  .st5 {
      animation-delay: 3.75s !important;
  }
  .st6 {
      animation-delay: 3.9s !important;
  }
  .st7 {
      animation-delay: 4.05s !important;
  }
  .st8 {
      animation-delay: 4.2s !important;
  }
  .st9 {
      animation-delay: 4.35s !important;
  }
  .st10 {
      animation-delay: 4.5s !important;
  }
  .st11 {
      animation-delay: 4.65s !important;
  }
  .st12 {
      animation-delay: 4.8s !important;
  }
  .st13 {
      animation-delay: 4.95s !important;
  }
  .st14 {
      animation-delay: 5.1s !important;
  }
  .st15 {
      animation-delay: 5.25s !important;
  }
  .st16 {
      animation-delay: 5.4s !important;
  }
  .st17 {
      animation-delay: 5.55s !important;
  }
  .cVeiJBoO_2, .cVeiJBoO_1, .cVeiJBoO_0, .cVeiJBoO_3  {
      animation-delay: 2.9s !important;
  }

  @-webkit-keyframes fadeIn { from { opacity:0; } to { opacity:1; } }
  @-moz-keyframes fadeIn { from { opacity:0; } to { opacity:1; } }
  @keyframes fadeIn { from { opacity:0; } to { opacity:1; } }

  .st2,
  .cVeiJBoO_0,
  .cVeiJBoO_2,
  .cVeiJBoO_1,
  .cVeiJBoO_3 {
    opacity:0;
    -webkit-animation:fadeIn ease-in 1;
    -moz-animation: fadeIn ease-in 1;
    animation: fadeIn ease-in 1;

    -webkit-animation-fill-mode:forwards;
    -moz-animation-fill-mode:forwards;
    animation-fill-mode:forwards;

    -webkit-animation-duration:1.5s;
    -moz-animation-duration:1.5s;
    animation-duration:1.5s;
  }
  </style>

<g id="Logo" transform="">
  <g>
    <path class="st0 cVeiJBoO_0" d="M107.7,28h1.6l3.9,10.9l0,0l-0.1-2.9v-8h1.3v13h-1.6l-3.9-11l0,0l0.1,2.9v8h-1.3V28z"></path>
  	<path class="st0 cVeiJBoO_1" d="M117.1,38.1h1.8V41h-1.8V38.1z"></path>
  </g>
  <g>
    <path class="st0 cVeiJBoO_2" d="M144.9,65.9c-0.2-1-0.7-1.9-1.8-1.9c-1.2,0-1.7,1-1.7,2.1s0.2,1.4,2.3,2.6c1.6,1,2.7,1.8,2.7,3.8
  		s-1.1,3.7-3.3,3.7c-2.3,0-3.1-1.5-3.3-3.6l1.3-0.2c0.2,1.4,0.5,2.5,2.1,2.5c1.1,0,1.9-0.8,1.9-2.3c0-1.7-1.1-2.3-2.5-3.1
  		c-1.5-0.9-2.5-1.5-2.5-3.4c0-1.8,1.2-3.3,3-3.3s2.7,1.3,3.1,2.9L144.9,65.9z"></path>
  	<path class="st0 cVeiJBoO_3" d="M148.9,73h1.8v2.9h-1.8V73z"></path>
  </g>
  <path class="st1 cVeiJBoO_4" d="M92.5,20.7h36.7h35.1c0,0,0,85.7-35.9,85.7 M93.8,20.7c0,0-0.6,85.7,35.4,85.7l0.1-85.7 M94.8,47h35.1 M129.3,63.3l35.1-42.7 M101.2,76.2h28.6"></path>
  <animateTransform attributeName="transform" attributeType="XML" type="scale" from="0" to="1" begin="0.0s" dur="0.5s" repeatCount=""></animateTransform>
</g>


<g id="Text">
	<path class="st2 st3 " d="M35.2,118.4h1.7l4,11.4l0,0l-0.1-3v-8.4h1.4V132h-1.7l-4-11.5l0,0l0.1,3.1v8.3h-1.4V118.4z	"></path>
	<path class="st2 st4 " d="M54.8,125.2c0,1.7,0.1,7-3.8,7s-3.8-5.2-3.8-7c0-2.2,0.1-7,3.8-7C54.9,118.2,54.8,123.4,54.8,125.2z M48.7,125.2c0,3.7,0.4,5.7,2.3,5.7c2.4,0,2.3-3.3,2.3-5.7c0-2.6,0.1-5.7-2.3-5.7C48.6,119.5,48.7,123.2,48.7,125.2z"></path>
	<path class="st2 st5 " d="M59.6,132v-1.2h1.1v-11.2h-1.1v-1.2h4.2c1.5,0,3,1.2,3,3.4c0,1.1-0.4,2.1-1.4,2.6c1.5,0.7,2.1,1.8,2.1,3.5
		c0,2.8-1.6,4.1-3.4,4.1L59.6,132L59.6,132z M63.3,124c1.4,0,2.1-0.7,2.1-2.2c0-1.7-0.8-2.2-2.5-2.2h-0.8v4.4
		C62.1,124,63.3,124,63.3,124z M64,130.8c1.2,0,2.1-0.9,2.1-2.9c0-2-1-2.7-2.4-2.7h-1.5v5.6H64z">
  </path>
	<path class="st2 st6 " d="M74.8,119.6H73v-1.2h5v1.2h-1.9v11.2H78v1.2h-5v-1.2h1.8V119.6z"></path>
	<path class="st2 st7 " d="M85.1,118.4h1.4v12.4H92v1.2h-7L85.1,118.4L85.1,118.4z"></path>
	<path class="st2 st8 0" d="M99.3,119.6h-1.8v-1.2h5.1v1.2h-1.9v11.2h1.9v1.2h-5.1v-1.2h1.8V119.6z"></path>
	<path class="st2 st9 1" d="M114.2,121.5c-0.2-1-0.7-2-1.9-2c-1.3,0-1.8,1-1.8,2.2c0,1.1,0.2,1.4,2.4,2.7c1.7,1,2.8,1.8,2.8,3.9 c0,2.1-1.1,3.8-3.4,3.8c-2.4,0-3.3-1.6-3.5-3.8l1.4-0.2c0.2,1.5,0.5,2.7,2.2,2.7c1.2,0,2-0.8,2-2.4c0-1.8-1.2-2.4-2.6-3.2 c-1.6-0.9-2.6-1.6-2.6-3.6c0-1.8,1.2-3.5,3.2-3.5c1.9,0,2.9,1.4,3.2,3.1L114.2,121.5z"></path>
	<path class="st2 st10 2" d="M147.1,121.5c-0.2-1-0.7-2-1.9-2c-1.3,0-1.8,1-1.8,2.2c0,1.1,0.2,1.4,2.4,2.7c1.7,1,2.8,1.8,2.8,3.9 c0,2.1-1.1,3.8-3.4,3.8c-2.4,0-3.3-1.6-3.5-3.8l1.4-0.2c0.2,1.5,0.5,2.7,2.2,2.7c1.2,0,2-0.8,2-2.4c0-1.8-1.2-2.4-2.6-3.2 c-1.6-0.9-2.6-1.6-2.6-3.6c0-1.8,1.2-3.5,3.2-3.5c1.9,0,2.9,1.4,3.2,3.1L147.1,121.5z"></path>
	<path class="st2 st11 3" d="M154.5,118.4h6.6v1.2h-5.3v4.5h4.3v1.2h-4.3v5.4h5.3v1.2h-6.6V118.4z"></path>
	<path class="st2 st12 4" d="M173.5,130c-0.8,1.3-2,2.2-3.5,2.2c-3.5,0-4.1-4.3-4.1-7s0.5-7,4.1-7c1.5,0,2.6,0.9,3.3,2.2l-1.2,0.7 c-0.4-0.9-1.1-1.6-2.2-1.6c-2.5,0-2.7,3.9-2.7,5.7c0,1.8,0.2,5.7,2.7,5.7c1.1,0,1.9-0.9,2.4-1.7L173.5,130z"></path>
	<path class="st2 st13 5" d="M179.9,118.4v9.9c0,1.3,0.3,2.6,2,2.6s2-1.3,2-2.6v-9.9h1.4v10.3c0,2.1-1.3,3.5-3.3,3.5 c-2.1,0-3.3-1.4-3.3-3.4v-10.4H179.9z"></path>
	<path class="st2 st14 6" d="M191.3,118.4h3.7c1.3,0,3,1.2,3,3.6c0,1.7-0.7,3.3-2.3,3.8l2.8,5.8l-1.2,0.6l-3.1-6.3h-1.5v6.1h-1.4V118.4z M192.7,124.7h2c1.2,0,1.9-0.9,1.9-2.7c0-1.8-0.9-2.4-2.2-2.4h-1.7V124.7z"></path>
	<path class="st2 st15 7" d="M205.7,119.6h-1.8v-1.2h5.1v1.2h-2v11.2h1.9v1.2h-5.1v-1.2h1.8v-11.2H205.7z"></path>
	<path class="st2 st16 8" d="M218,119.6h-3v-1.2h7.2v1.2h-2.9V132H218V119.6z"></path>
	<path class="st2 st17 9" d="M233.8,118.1l1.3,0.5l-3.5,8v5.4h-1.4v-5.4l-3.5-8l1.3-0.5l2.9,6.9L233.8,118.1z"></path>
</g>
<style>.cVeiJBoO_4{stroke-dasharray:478 480;stroke-dashoffset:484;animation:cVeiJBoO_draw 7000ms ease-in-out 0ms forwards;}.cVeiJBoO_5{stroke-dasharray:81 83;stroke-dashoffset:82;animation:cVeiJBoO_draw 6000ms ease-in-out 0ms forwards;}.cVeiJBoO_6{stroke-dasharray:64 66;stroke-dashoffset:65;animation:cVeiJBoO_draw 6000ms ease-in-out 0ms forwards;}.cVeiJBoO_7{stroke-dasharray:74 76;stroke-dashoffset:75;animation:cVeiJBoO_draw 6000ms ease-in-out 0ms forwards;}.cVeiJBoO_8{stroke-dasharray:45 47;stroke-dashoffset:46;animation:cVeiJBoO_draw 6000ms ease-in-out 0ms forwards;}.cVeiJBoO_9{stroke-dasharray:42 44;stroke-dashoffset:43;animation:cVeiJBoO_draw 6000ms ease-in-out 0ms forwards;}.cVeiJBoO_10{stroke-dasharray:45 47;stroke-dashoffset:46;animation:cVeiJBoO_draw 6000ms ease-in-out 0ms forwards;}.cVeiJBoO_11{stroke-dasharray:57 59;stroke-dashoffset:58;animation:cVeiJBoO_draw 6000ms ease-in-out 0ms forwards;}.cVeiJBoO_12{stroke-dasharray:57 59;stroke-dashoffset:58;animation:cVeiJBoO_draw 6000ms ease-in-out 0ms forwards;}.cVeiJBoO_13{stroke-dasharray:60 62;stroke-dashoffset:61;animation:cVeiJBoO_draw 6000ms ease-in-out 0ms forwards;}.cVeiJBoO_14{stroke-dasharray:50 52;stroke-dashoffset:51;animation:cVeiJBoO_draw 6000ms ease-in-out 0ms forwards;}.cVeiJBoO_15{stroke-dasharray:62 64;stroke-dashoffset:63;animation:cVeiJBoO_draw 6000ms ease-in-out 0ms forwards;}.cVeiJBoO_16{stroke-dasharray:68 70;stroke-dashoffset:69;animation:cVeiJBoO_draw 6000ms ease-in-out 0ms forwards;}.cVeiJBoO_17{stroke-dasharray:46 48;stroke-dashoffset:47;animation:cVeiJBoO_draw 6000ms ease-in-out 0ms forwards;}.cVeiJBoO_18{stroke-dasharray:42 44;stroke-dashoffset:43;animation:cVeiJBoO_draw 6000ms ease-in-out 0ms forwards;}.cVeiJBoO_19{stroke-dasharray:48 50;stroke-dashoffset:49;animation:cVeiJBoO_draw 6000ms ease-in-out 0ms forwards;}@keyframes cVeiJBoO_draw{100%{stroke-dashoffset:0;}}@keyframes cVeiJBoO_fade{0%{stroke-opacity:1;}97.36842105263158%{stroke-opacity:1;}100%{stroke-opacity:0;}}</style></svg>
